{
DisplayStrings = (
/unif545,
"",
/unif547,
""
);
copyright = "GPL version 2 or any later version with font exception (http://www.gnu.org/licenses/gpl-faq.html#FontException)";
date = "2013-03-08 14:48:54 +0000";
designer = "WordPress design team";
designerURL = wordpress.org;
familyName = "Dashicons";
featurePrefixes = (
{
automatic = 1;
code = "languagesystem DFLT dflt;\012";
name = Languagesystems;
}
);
fontMaster = (
{
ascender = 2000;
capHeight = 2000;
descender = 0;
id = "684440DB-903B-4FB4-BFDB-FB0ECFF352DE";
userData = {
GSCornerRadius = 15;
};
xHeight = 1000;
}
);
glyphs = (
{
glyphname = uniF100;
lastChange = "2013-04-17 12:20:12 +0000";
layers = (
{
layerId = "684440DB-903B-4FB4-BFDB-FB0ECFF352DE";
name = Regular;
paths = (
{
closed = 1;
nodes = (
"1978 1424 LINE",
"1778 1383 OFFCURVE",
"1651 1445 OFFCURVE",
"1533 1509 CURVE SMOOTH",
"1385 1591 OFFCURVE",
"1363 1639 OFFCURVE",
"1242 1719 CURVE SMOOTH",
"1121 1798 OFFCURVE",
"941 1807 OFFCURVE",
"891 1751 CURVE",
"741 1601 LINE",
"1448 894 LINE"
);
},
{
closed = 1;
nodes = (
"1200 646 LINE SMOOTH",
"1161 607 OFFCURVE",
"1098 607 OFFCURVE",
"1059 646 CURVE SMOOTH",
"953 752 LINE SMOOTH",
"914 791 OFFCURVE",
"851 791 OFFCURVE",
"812 752 CURVE SMOOTH",
"751 692 OFFCURVE",
"700 609 OFFCURVE",
"643 531 CURVE SMOOTH",
"616 495 OFFCURVE",
"589 460 OFFCURVE",
"558 429 CURVE SMOOTH",
"424 296 OFFCURVE",
"239 193 OFFCURVE",
"140 293 CURVE SMOOTH",
"40 392 OFFCURVE",
"143 577 OFFCURVE",
"277 711 CURVE SMOOTH",
"308 742 OFFCURVE",
"343 769 OFFCURVE",
"378 795 CURVE SMOOTH",
"456 853 OFFCURVE",
"539 904 OFFCURVE",
"599 964 CURVE SMOOTH",
"638 1003 OFFCURVE",
"638 1067 OFFCURVE",
"599 1106 CURVE SMOOTH",
"493 1212 LINE SMOOTH",
"454 1251 OFFCURVE",
"454 1314 OFFCURVE",
"493 1353 CURVE SMOOTH",
"670 1530 LINE",
"1377 823 LINE"
);
}
);
width = 2000;
}
);
unicode = F100;
},
{
glyphname = unif101;
lastChange = "2013-10-09 12:36:39 +0000";
layers = (
{
layerId = "684440DB-903B-4FB4-BFDB-FB0ECFF352DE";
name = Regular;
paths = (
{
closed = 1;
nodes = (
"500 1800 LINE SMOOTH",
"390 1800 OFFCURVE",
"300 1710 OFFCURVE",
"300 1600 CURVE SMOOTH",
"300 900 LINE SMOOTH",
"300 790 OFFCURVE",
"390 700 OFFCURVE",
"500 700 CURVE SMOOTH",
"700 700 LINE",
"700 200 LINE",
"1200 700 LINE",
"1400 700 LINE SMOOTH",
"1510 700 OFFCURVE",
"1600 790 OFFCURVE",
"1600 900 CURVE SMOOTH",
"1600 1600 LINE SMOOTH",
"1600 1710 OFFCURVE",
"1510 1800 OFFCURVE",
"1400 1800 CURVE SMOOTH"
);
}
);
width = 2000;
}
);
unicode = F101;
},
{
glyphname = unif102;
lastChange = "2013-04-14 12:08:45 +0000";
layers = (
{
layerId = "684440DB-903B-4FB4-BFDB-FB0ECFF352DE";
name = Regular;
paths = (
{
closed = 1;
nodes = (
"400 797 LINE",
"400 200 LINE",
"1600 200 LINE",
"1600 797 LINE",
"1000 1396 LINE"
);
},
{
closed = 1;
nodes = (
"800 300 LINE",
"800 800 LINE",
"1200 800 LINE",
"1200 300 LINE"
);
},
{
closed = 1;
nodes = (
"1600 1550 LINE",
"1400 1550 LINE",
"1400 1350 LINE",
"1000 1750 LINE",
"247 997 LINE",
"353 891 LINE",
"1000 1538 LINE",
"1647 891 LINE",
"1753 997 LINE",
"1600 1150 LINE"
);
}
);
width = 2000;
}
);
unicode = F102;
},
{
glyphname = unif103;
lastChange = "2013-04-14 12:09:02 +0000";
layers = (
{
layerId = "684440DB-903B-4FB4-BFDB-FB0ECFF352DE";
name = Regular;
paths = (
{
closed = 1;
nodes = (
"936 581 LINE",
"783 428 LINE SMOOTH",
"699 344 OFFCURVE",
"563 344 OFFCURVE",
"479 428 CURVE SMOOTH",
"394 513 OFFCURVE",
"394 649 OFFCURVE",
"479 733 CURVE SMOOTH",
"631 886 LINE",
"893 1148 LINE",
"749 1185 OFFCURVE",
"591 1150 OFFCURVE",
"479 1038 CURVE SMOOTH",
"326 886 LINE SMOOTH",
"158 718 OFFCURVE",
"158 444 OFFCURVE",
"326 276 CURVE SMOOTH",
"495 108 OFFCURVE",
"767 108 OFFCURVE",
"936 276 CURVE SMOOTH",
"1088 429 LINE SMOOTH",
"1200 541 OFFCURVE",
"1235 699 OFFCURVE",
"1197 843 CURVE"
);
},
{
closed = 1;
nodes = (
"1606 1892 OFFCURVE",
"1333 1892 OFFCURVE",
"1164 1724 CURVE SMOOTH",
"1012 1571 LINE SMOOTH",
"900 1459 OFFCURVE",
"865 1301 OFFCURVE",
"902 1157 CURVE",
"1164 1419 LINE",
"1240 1495 LINE",
"1317 1571 LINE SMOOTH",
"1401 1656 OFFCURVE",
"1537 1656 OFFCURVE",
"1621 1571 CURVE SMOOTH",
"1705 1487 OFFCURVE",
"1705 1351 OFFCURVE",
"1621 1267 CURVE SMOOTH",
"1545 1191 LINE",
"1469 1114 LINE",
"1207 853 LINE",
"1351 815 OFFCURVE",
"1509 850 OFFCURVE",
"1621 962 CURVE SMOOTH",
"1774 1114 LINE SMOOTH",
"1942 1283 OFFCURVE",
"1942 1555 OFFCURVE",
"1774 1724 CURVE SMOOTH"
);
},
{
closed = 1;
nodes = (
"820 618 OFFCURVE",
"751 614 OFFCURVE",
"707 657 CURVE",
"665 699 OFFCURVE",
"665 767 OFFCURVE",
"707 809 CURVE SMOOTH",
"1240 1343 LINE SMOOTH",
"1280 1382 OFFCURVE",
"1349 1386 OFFCURVE",
"1393 1343 CURVE",
"1435 1301 OFFCURVE",
"1435 1233 OFFCURVE",
"1393 1191 CURVE SMOOTH",
"859 657 LINE SMOOTH"
);
}
);
width = 2000;
}
);
unicode = F103;
},
{
glyphname = unif104;
lastChange = "2013-04-14 12:09:10 +0000";
layers = (
{
layerId = "684440DB-903B-4FB4-BFDB-FB0ECFF352DE";
name = Regular;
paths = (
{
closed = 1;
nodes = (
"1300 900 LINE SMOOTH",
"1300 845 OFFCURVE",
"1255 800 OFFCURVE",
"1200 800 CURVE SMOOTH",
"200 800 LINE SMOOTH",
"145 800 OFFCURVE",
"100 845 OFFCURVE",
"100 900 CURVE SMOOTH",
"100 1600 LINE SMOOTH",
"100 1655 OFFCURVE",
"145 1700 OFFCURVE",
"200 1700 CURVE SMOOTH",
"367 1700 LINE",
"500 1900 LINE",
"900 1900 LINE",
"1033 1700 LINE",
"1200 1700 LINE SMOOTH",
"1255 1700 OFFCURVE",
"1300 1655 OFFCURVE",
"1300 1600 CURVE SMOOTH"
);
},
{
closed = 1;
nodes = (
"562 1550 OFFCURVE",
"450 1438 OFFCURVE",
"450 1300 CURVE SMOOTH",
"450 1162 OFFCURVE",
"562 1050 OFFCURVE",
"700 1050 CURVE SMOOTH",
"838 1050 OFFCURVE",
"950 1162 OFFCURVE",
"950 1300 CURVE SMOOTH",
"950 1438 OFFCURVE",
"838 1550 OFFCURVE",
"700 1550 CURVE SMOOTH"
);
},
{
closed = 1;
nodes = (
"984 598 OFFCURVE",
"967 600 OFFCURVE",
"950 600 CURVE SMOOTH",
"812 600 OFFCURVE",
"700 488 OFFCURVE",
"700 350 CURVE SMOOTH",
"700 212 OFFCURVE",
"812 100 OFFCURVE",
"950 100 CURVE SMOOTH",
"1088 100 OFFCURVE",
"1200 212 OFFCURVE",
"1200 350 CURVE SMOOTH",
"1200 700 LINE",
"1000 700 LINE",
"1000 595 LINE"
);
},
{
closed = 1;
nodes = (
"1400 1400 LINE",
"1400 1100 LINE",
"1700 1100 LINE",
"1700 595 LINE",
"1684 598 OFFCURVE",
"1667 600 OFFCURVE",
"1650 600 CURVE SMOOTH",
"1512 600 OFFCURVE",
"1400 488 OFFCURVE",
"1400 350 CURVE SMOOTH",
"1400 212 OFFCURVE",
"1512 100 OFFCURVE",
"1650 100 CURVE SMOOTH",
"1788 100 OFFCURVE",
"1900 212 OFFCURVE",
"1900 350 CURVE SMOOTH",
"1900 1400 LINE",
"1700 1400 LINE"
);
}
);
width = 2000;
}
);
unicode = F104;
},
{
glyphname = unif105;
lastChange = "2013-04-29 19:40:35 +0000";
layers = (
{
layerId = "684440DB-903B-4FB4-BFDB-FB0ECFF352DE";
name = Regular;
paths = (
{
closed = 1;
nodes = (
"1600 500 LINE",
"1600 1800 LINE",
"600 1800 LINE",
"600 500 LINE"
);
},
{
closed = 1;
nodes = (
"500 1500 LINE",
"300 1500 LINE",
"300 200 LINE",
"1300 200 LINE",
"1300 400 LINE",
"500 400 LINE"
);
}
);
width = 2000;
}
);
unicode = F105;
},
{
glyphname = unif106;
lastChange = "2013-04-14 12:09:52 +0000";
layers = (
{
layerId = "684440DB-903B-4FB4-BFDB-FB0ECFF352DE";
name = Regular;
paths = (
{
closed = 1;
nodes = (
"1346 1598 OFFCURVE",
"1332 1668 OFFCURVE",
"1280 1719 CURVE SMOOTH",
"1229 1771 OFFCURVE",
"1159 1785 OFFCURVE",
"1124 1751 CURVE SMOOTH",
"800 1427 LINE",
"987 1240 LINE",
"1311 1564 LINE SMOOTH"
);
},
{
closed = 1;
nodes = (
"1237 990 LINE",
"1423 803 LINE",
"1747 1128 LINE SMOOTH",
"1782 1162 OFFCURVE",
"1768 1232 OFFCURVE",
"1716 1283 CURVE SMOOTH",
"1665 1335 OFFCURVE",
"1595 1349 OFFCURVE",
"1561 1314 CURVE SMOOTH"
);
},
{
closed = 1;
nodes = (
"442 1317 OFFCURVE",
"402 1111 OFFCURVE",
"402 998 CURVE SMOOTH",
"402 610 LINE",
"278 486 LINE SMOOTH",
"219 427 OFFCURVE",
"219 332 OFFCURVE",
"278 274 CURVE SMOOTH",
"336 215 OFFCURVE",
"431 215 OFFCURVE",
"490 274 CURVE SMOOTH",
"614 398 LINE",
"1002 398 LINE SMOOTH",
"1121 398 OFFCURVE",
"1313 443 OFFCURVE",
"1384 514 CURVE",
"1503 598 LINE",
"602 1499 LINE",
"511 1387 LINE"
);
}
);
width = 2000;
}
);
unicode = F106;
},
{
glyphname = unif107;
lastChange = "2013-04-14 12:10:03 +0000";
layers = (
{
layerId = "684440DB-903B-4FB4-BFDB-FB0ECFF352DE";
name = Regular;
paths = (
{
closed = 1;
nodes = (
"1794 1149 OFFCURVE",
"1829 1330 OFFCURVE",
"1776 1488 CURVE",
"1490 1201 LINE",
"1208 1483 LINE",
"1497 1772 LINE",
"1337 1828 OFFCURVE",
"1153 1794 OFFCURVE",
"1025 1666 CURVE SMOOTH",
"891 1532 OFFCURVE",
"858 1336 OFFCURVE",
"926 1171 CURVE",
"274 629 LINE",
"175 531 OFFCURVE",
"175 371 OFFCURVE",
"274 272 CURVE SMOOTH",
"373 173 OFFCURVE",
"533 173 OFFCURVE",
"632 272 CURVE",
"1173 924 LINE",
"1338 856 OFFCURVE",
"1534 889 OFFCURVE",
"1668 1023 CURVE SMOOTH"
);
},
{
closed = 1;
nodes = (
"342 419 OFFCURVE",
"342 483 OFFCURVE",
"381 522 CURVE SMOOTH",
"421 562 OFFCURVE",
"485 562 OFFCURVE",
"524 522 CURVE SMOOTH",
"564 483 OFFCURVE",
"564 419 OFFCURVE",
"524 379 CURVE SMOOTH",
"485 340 OFFCURVE",
"421 340 OFFCURVE",
"381 379 CURVE SMOOTH"
);
}
);
width = 2000;
}
);
unicode = F107;
},
{
glyphname = unif108;
lastChange = "2013-04-14 12:10:24 +0000";
layers = (
{
layerId = "684440DB-903B-4FB4-BFDB-FB0ECFF352DE";
name = Regular;
paths = (
{
closed = 1;
nodes = (
"1800 345 OFFCURVE",
"1755 300 OFFCURVE",
"1700 300 CURVE SMOOTH",
"400 300 LINE SMOOTH",
"345 300 OFFCURVE",
"300 345 OFFCURVE",
"300 400 CURVE SMOOTH",
"300 1600 LINE SMOOTH",
"300 1655 OFFCURVE",
"345 1700 OFFCURVE",
"400 1700 CURVE SMOOTH",
"1700 1700 LINE SMOOTH",
"1755 1700 OFFCURVE",
"1800 1655 OFFCURVE",
"1800 1600 CURVE SMOOTH",
"1800 400 LINE SMOOTH"
);
},
{
closed = 1;
nodes = (
"800 900 LINE",
"800 1450 LINE SMOOTH",
"800 1478 OFFCURVE",
"778 1500 OFFCURVE",
"750 1500 CURVE SMOOTH",
"722 1500 OFFCURVE",
"700 1478 OFFCURVE",
"700 1450 CURVE SMOOTH",
"700 900 LINE",
"600 900 LINE SMOOTH",
"545 900 OFFCURVE",
"500 855 OFFCURVE",
"500 800 CURVE SMOOTH",
"500 745 OFFCURVE",
"545 700 OFFCURVE",
"600 700 CURVE SMOOTH",
"700 700 LINE",
"700 550 LINE SMOOTH",
"700 522 OFFCURVE",
"722 500 OFFCURVE",
"750 500 CURVE SMOOTH",
"778 500 OFFCURVE",
"800 522 OFFCURVE",
"800 550 CURVE SMOOTH",
"800 700 LINE",
"900 700 LINE SMOOTH",
"955 700 OFFCURVE",
"1000 745 OFFCURVE",
"1000 800 CURVE SMOOTH",
"1000 855 OFFCURVE",
"955 900 OFFCURVE",
"900 900 CURVE SMOOTH"
);
},
{
closed = 1;
nodes = (
"1300 1100 LINE",
"1300 550 LINE SMOOTH",
"1300 522 OFFCURVE",
"1322 500 OFFCURVE",
"1350 500 CURVE SMOOTH",
"1378 500 OFFCURVE",
"1400 522 OFFCURVE",
"1400 550 CURVE SMOOTH",
"1400 1100 LINE",
"1500 1100 LINE SMOOTH",
"1555 1100 OFFCURVE",
"1600 1145 OFFCURVE",
"1600 1200 CURVE SMOOTH",
"1600 1255 OFFCURVE",
"1555 1300 OFFCURVE",
"1500 1300 CURVE SMOOTH",
"1400 1300 LINE",
"1400 1450 LINE SMOOTH",
"1400 1478 OFFCURVE",
"1378 1500 OFFCURVE",
"1350 1500 CURVE SMOOTH",
"1322 1500 OFFCURVE",
"1300 1478 OFFCURVE",
"1300 1450 CURVE SMOOTH",
"1300 1300 LINE",
"1200 1300 LINE SMOOTH",
"1145 1300 OFFCURVE",
"1100 1255 OFFCURVE",
"1100 1200 CURVE SMOOTH",
"1100 1145 OFFCURVE",
"1145 1100 OFFCURVE",
"1200 1100 CURVE SMOOTH"
);
}
);
width = 2000;
}
);
unicode = F108;
},
{
glyphname = unif109;
lastChange = "2013-04-14 12:10:33 +0000";
layers = (
{
layerId = "684440DB-903B-4FB4-BFDB-FB0ECFF352DE";
name = Regular;
paths = (
{
closed = 1;
nodes = (
"1113 1592 OFFCURVE",
"1101 1449 OFFCURVE",
"1008 1357 CURVE SMOOTH",
"933 1282 LINE SMOOTH",
"841 1189 OFFCURVE",
"698 1177 OFFCURVE",
"593 1246 CURVE",
"410 1064 LINE",
"651 822 LINE",
"372 543 LINE SMOOTH",
"330 501 OFFCURVE",
"102 204 OFFCURVE",
"144 162 CURVE SMOOTH",
"186 120 OFFCURVE",
"482 349 OFFCURVE",
"524 391 CURVE SMOOTH",
"804 670 LINE",
"1045 429 LINE",
"1228 611 LINE",
"1159 717 OFFCURVE",
"1171 859 OFFCURVE",
"1263 952 CURVE SMOOTH",
"1338 1027 LINE SMOOTH",
"1431 1120 OFFCURVE",
"1574 1131 OFFCURVE",
"1679 1063 CURVE",
"1862 1245 LINE",
"1226 1880 LINE",
"1044 1698 LINE"
);
}
);
width = 2000;
}
);
unicode = F109;
},
{
glyphname = unif110;
lastChange = "2016-03-08 02:36:23 +0000";
layers = (
{
layerId = "684440DB-903B-4FB4-BFDB-FB0ECFF352DE";
name = Regular;
paths = (
{
closed = 1;
nodes = (
"1227 1075 OFFCURVE",
"1268 1419 OFFCURVE",
"1268 1419 CURVE",
"1295 1598 OFFCURVE",
"1213 1800 OFFCURVE",
"997 1800 CURVE SMOOTH",
"782 1800 OFFCURVE",
"700 1598 OFFCURVE",
"727 1419 CURVE",
"727 1419 OFFCURVE",
"773 1075 OFFCURVE",
"1000 1075 CURVE SMOOTH"
);
},
{
closed = 1;
nodes = (
"1000 818 LINE",
"723 995 LINE",
"470 995 OFFCURVE",
"276 772 OFFCURVE",
"276 547 CURVE SMOOTH",
"276 298 LINE",
"276 298 OFFCURVE",
"635 185 OFFCURVE",
"1000 185 CURVE SMOOTH",
"1359 185 OFFCURVE",
"1724 298 OFFCURVE",
"1724 298 CURVE",
"1724 547 LINE SMOOTH",
"1724 767 OFFCURVE",
"1511 1000 OFFCURVE",
"1272 1000 CURVE"
);
}
);
width = 2000;
}
);
unicode = F110;
},
{
glyphname = unif111;
lastChange = "2013-04-14 12:11:09 +0000";
layers = (
{
layerId = "684440DB-903B-4FB4-BFDB-FB0ECFF352DE";
name = Regular;
paths = (
{
closed = 1;
nodes = (
"1800 1097 LINE",
"1583 1097 LINE",
"1567 1167 OFFCURVE",
"1539 1232 OFFCURVE",
"1503 1291 CURVE",
"1657 1445 LINE",
"1445 1657 LINE",
"1291 1503 LINE",
"1233 1539 OFFCURVE",
"1168 1566 OFFCURVE",
"1100 1582 CURVE",
"1100 1800 LINE",
"800 1800 LINE",
"800 1582 LINE",
"731 1565 OFFCURVE",
"665 1538 OFFCURVE",
"607 1501 CURVE",
"453 1655 LINE",
"243 1445 LINE",
"397 1291 LINE",
"361 1232 OFFCURVE",
"333 1167 OFFCURVE",
"317 1097 CURVE",
"100 1097 LINE",
"100 800 LINE",
"318 800 LINE",
"334 732 OFFCURVE",
"361 667 OFFCURVE",
"397 609 CURVE",
"243 455 LINE",
"455 243 LINE",
"609 397 LINE",
"667 361 OFFCURVE",
"732 334 OFFCURVE",
"800 318 CURVE",
"800 100 LINE",
"1100 100 LINE",
"1100 318 LINE",
"1168 334 OFFCURVE",
"1233 361 OFFCURVE",
"1291 397 CURVE",
"1445 243 LINE",
"1655 453 LINE",
"1501 607 LINE",
"1538 665 OFFCURVE",
"1565 730 OFFCURVE",
"1582 800 CURVE",
"1800 800 LINE"
);
},
{
closed = 1;
nodes = (
"784 650 OFFCURVE",
"650 784 OFFCURVE",
"650 950 CURVE SMOOTH",
"650 1116 OFFCURVE",
"784 1250 OFFCURVE",
"950 1250 CURVE SMOOTH",
"1116 1250 OFFCURVE",
"1250 1116 OFFCURVE",
"1250 950 CURVE SMOOTH",
"1250 784 OFFCURVE",
"1116 650 OFFCURVE",
"950 650 CURVE SMOOTH"
);
}
);
width = 2000;
}
);
unicode = F111;
},
{
glyphname = unif112;
lastChange = "2013-04-14 11:59:17 +0000";
layers = (
{
layerId = "684440DB-903B-4FB4-BFDB-FB0ECFF352DE";
name = Regular;
paths = (
{
closed = 1;
nodes = (
"1499.9 1937.7 OFFCURVE",
"1183.3 1937.7 OFFCURVE",
"987.988 1742.38 CURVE SMOOTH",
"832.617 1587.01 OFFCURVE",
"802.93 1355.81 OFFCURVE",
"894.727 1169.04 CURVE",
"100 400 LINE",
"200 200 LINE",
"500 200 LINE",
"650 572.168 LINE",
"948.633 602.93 LINE",
"1136.13 934.375 LINE",
"1320.31 851.172 OFFCURVE",
"1543.95 883.789 OFFCURVE",
"1695.31 1035.16 CURVE SMOOTH",
"1890.62 1230.47 OFFCURVE",
"1890.62 1547.07 OFFCURVE",
"1695.31 1742.38 CURVE SMOOTH"
);
},
{
closed = 1;
nodes = (
"1370.9 1363.28 OFFCURVE",
"1311.23 1422.95 OFFCURVE",
"1311.23 1496.53 CURVE SMOOTH",
"1311.23 1569.97 OFFCURVE",
"1370.9 1629.54 OFFCURVE",
"1444.43 1629.54 CURVE SMOOTH",
"1517.87 1629.54 OFFCURVE",
"1577.44 1569.97 OFFCURVE",
"1577.44 1496.53 CURVE SMOOTH",
"1577.44 1422.95 OFFCURVE",
"1517.87 1363.28 OFFCURVE",
"1444.43 1363.28 CURVE SMOOTH"
);
}
);
width = 2000;
}
);
unicode = F112;
},
{
glyphname = unif113;
lastChange = "2013-04-14 11:59:17 +0000";
layers = (
{
layerId = "684440DB-903B-4FB4-BFDB-FB0ECFF352DE";
name = Regular;
paths = (
{
closed = 1;
nodes = (
"647.412 1700 OFFCURVE",
"356.592 1439.11 OFFCURVE",
"307.959 1100 CURVE",
"100 1100 LINE",
"450 700 LINE",
"800 1100 LINE",
"567.627 1100 LINE",
"613.135 1297.22 OFFCURVE",
"788.965 1444.63 OFFCURVE",
"1000 1444.63 CURVE SMOOTH",
"1145.12 1444.63 OFFCURVE",
"1272.66 1374.12 OFFCURVE",
"1353.81 1266.65 CURVE",
"1524.8 1462.11 LINE",
"1396.58 1607.71 OFFCURVE",
"1209.28 1700 OFFCURVE",
"1000 1700 CURVE SMOOTH"
);
},
{
closed = 1;
nodes = (
"1352.34 295.996 OFFCURVE",
"1643.16 556.836 OFFCURVE",
"1691.8 895.996 CURVE",
"1899.71 895.996 LINE",
"1549.71 1296 LINE",
"1199.71 895.996 LINE",
"1432.03 895.996 LINE",
"1386.52 698.828 OFFCURVE",
"1210.74 551.367 OFFCURVE",
"999.707 551.367 CURVE SMOOTH",
"854.59 551.367 OFFCURVE",
"727.051 621.875 OFFCURVE",
"645.898 729.297 CURVE",
"474.902 533.887 LINE",
"603.125 388.281 OFFCURVE",
"790.43 295.996 OFFCURVE",
"999.707 295.996 CURVE SMOOTH"
);
}
);
width = 2000;
}
);
unicode = F113;
},
{
glyphname = unif115;
lastChange = "2013-05-10 12:08:58 +0000";
layers = (
{
layerId = "684440DB-903B-4FB4-BFDB-FB0ECFF352DE";
name = Regular;
paths = (
{
closed = 1;
nodes = (
"1400 400 LINE",
"600 400 LINE",
"600 300 LINE",
"300 300 LINE",
"300 200 LINE",
"1700 200 LINE",
"1700 300 LINE",
"1400 300 LINE"
);
},
{
closed = 1;
nodes = (
"1800 545 OFFCURVE",
"1755 500 OFFCURVE",
"1700 500 CURVE SMOOTH",
"300 500 LINE SMOOTH",
"245 500 OFFCURVE",
"200 545 OFFCURVE",
"200 600 CURVE SMOOTH",
"200 1600 LINE SMOOTH",
"200 1655 OFFCURVE",
"245 1700 OFFCURVE",
"300 1700 CURVE SMOOTH",
"1700 1700 LINE SMOOTH",
"1755 1700 OFFCURVE",
"1800 1655 OFFCURVE",
"1800 1600 CURVE SMOOTH",
"1800 600 LINE SMOOTH"
);
},
{
closed = 1;
nodes = (
"770 1400 OFFCURVE",
"560 1286 OFFCURVE",
"400 1100 CURVE",
"560 914 OFFCURVE",
"770 800 OFFCURVE",
"1000 800 CURVE SMOOTH",
"1230 800 OFFCURVE",
"1440 914 OFFCURVE",
"1600 1100 CURVE",
"1440 1286 OFFCURVE",
"1230 1400 OFFCURVE",
"1000 1400 CURVE SMOOTH"
);
},
{
closed = 1;
nodes = (
"1200 990 OFFCURVE",
"1110 900 OFFCURVE",
"1000 900 CURVE SMOOTH",
"890 900 OFFCURVE",
"800 990 OFFCURVE",
"800 1100 CURVE SMOOTH",
"800 1210 OFFCURVE",
"890 1300 OFFCURVE",
"1000 1300 CURVE SMOOTH",
"1110 1300 OFFCURVE",
"1200 1210 OFFCURVE",
"1200 1100 CURVE SMOOTH"
);
}
);
width = 2000;
}
);
unicode = F115;
},
{
glyphname = unif116;
lastChange = "2013-04-17 12:20:54 +0000";
layers = (
{
layerId = "684440DB-903B-4FB4-BFDB-FB0ECFF352DE";
name = Regular;
paths = (
{
closed = 1;
nodes = (
"1900 400 LINE SMOOTH",
"1900 345 OFFCURVE",
"1855 300 OFFCURVE",
"1800 300 CURVE SMOOTH",
"300 300 LINE SMOOTH",
"245 300 OFFCURVE",
"200 345 OFFCURVE",
"200 400 CURVE SMOOTH",
"200 1700 LINE SMOOTH",
"200 1755 OFFCURVE",
"245 1800 OFFCURVE",
"300 1800 CURVE SMOOTH",
"1800 1800 LINE SMOOTH",
"1855 1800 OFFCURVE",
"1900 1755 OFFCURVE",
"1900 1700 CURVE SMOOTH"
);
},
{
closed = 1;
nodes = (
"400 1200 LINE",
"1700 1200 LINE",
"1700 1600 LINE",
"400 1600 LINE"
);
},
{
closed = 1;
nodes = (
"800 1500 LINE",
"800 1300 LINE",
"500 1300 LINE",
"500 1500 LINE"
);
},
{
closed = 1;
nodes = (
"1200 1500 LINE",
"1200 1300 LINE",
"900 1300 LINE",
"900 1500 LINE"
);
},
{
closed = 1;
nodes = (
"1600 1500 LINE",
"1600 1300 LINE",
"1300 1300 LINE",
"1300 1500 LINE"
);
},
{
closed = 1;
nodes = (
"422 1000 OFFCURVE",
"400 978 OFFCURVE",
"400 950 CURVE SMOOTH",
"400 922 OFFCURVE",
"422 900 OFFCURVE",
"450 900 CURVE SMOOTH",
"478 900 OFFCURVE",
"500 922 OFFCURVE",
"500 950 CURVE SMOOTH",
"500 978 OFFCURVE",
"478 1000 OFFCURVE",
"450 1000 CURVE SMOOTH"
);
},
{
closed = 1;
nodes = (
"600 900 LINE",
"1000 900 LINE",
"1000 1000 LINE",
"600 1000 LINE"
);
},
{
closed = 1;
nodes = (
"1200 500 LINE",
"1700 500 LINE",
"1700 1000 LINE",
"1200 1000 LINE"
);
},
{
closed = 1;
nodes = (
"422 800 OFFCURVE",
"400 778 OFFCURVE",
"400 750 CURVE SMOOTH",
"400 722 OFFCURVE",
"422 700 OFFCURVE",
"450 700 CURVE SMOOTH",
"478 700 OFFCURVE",
"500 722 OFFCURVE",
"500 750 CURVE SMOOTH",
"500 778 OFFCURVE",
"478 800 OFFCURVE",
"450 800 CURVE SMOOTH"
);
},
{
closed = 1;
nodes = (
"600 700 LINE",
"1000 700 LINE",
"1000 800 LINE",
"600 800 LINE"
);
},
{
closed = 1;
nodes = (
"1600 800 LINE",
"1600 600 LINE",
"1300 600 LINE",
"1300 800 LINE"
);
},
{
closed = 1;
nodes = (
"422 600 OFFCURVE",
"400 578 OFFCURVE",
"400 550 CURVE SMOOTH",
"400 522 OFFCURVE",
"422 500 OFFCURVE",
"450 500 CURVE SMOOTH",
"478 500 OFFCURVE",
"500 522 OFFCURVE",
"500 550 CURVE SMOOTH",
"500 578 OFFCURVE",
"478 600 OFFCURVE",
"450 600 CURVE SMOOTH"
);
},
{
closed = 1;
nodes = (
"600 500 LINE",
"1000 500 LINE",
"1000 600 LINE",
"600 600 LINE"
);
}
);
width = 2000;
}
);
unicode = F116;
},
{
glyphname = unif117;
lastChange = "2013-04-14 11:59:17 +0000";
layers = (
{
layerId = "684440DB-903B-4FB4-BFDB-FB0ECFF352DE";
name = Regular;
paths = (
{
closed = 1;
nodes = (
"500 1800 LINE SMOOTH",
"389.551 1800 OFFCURVE",
"300 1710.45 OFFCURVE",
"300 1600 CURVE SMOOTH",
"300 800 LINE SMOOTH",
"300 689.551 OFFCURVE",
"389.551 600 OFFCURVE",
"500 600 CURVE SMOOTH",
"800 600 LINE",
"800 100 LINE",
"1300 600 LINE",
"1500 600 LINE SMOOTH",
"1610.45 600 OFFCURVE",
"1700 689.551 OFFCURVE",
"1700 800 CURVE SMOOTH",
"1700 1600 LINE SMOOTH",
"1700 1710.45 OFFCURVE",
"1610.45 1800 OFFCURVE",
"1500 1800 CURVE SMOOTH"
);
},
{
closed = 1;
nodes = (
"1250 850 LINE",
"1000 1100 LINE",
"750 850 LINE",
"650 950 LINE",
"900 1200 LINE",
"650 1450 LINE",
"750 1550 LINE",
"1000 1300 LINE",
"1250 1550 LINE",
"1350 1450 LINE",
"1100 1200 LINE",
"1350 950 LINE"
);
}
);
width = 2000;
}
);
unicode = F117;
},
{
glyphname = unif118;
lastChange = "2013-04-29 19:40:03 +0000";
layers = (
{
layerId = "684440DB-903B-4FB4-BFDB-FB0ECFF352DE";
name = Regular;
paths = (
{
closed = 1;
nodes = (
"2000 1400 LINE",
"1000 1800 LINE",
"0 1400 LINE",
"148 1341 LINE",
"100 200 LINE",
"300 200 LINE",
"254 1298 LINE",
"1000 1000 LINE"
);
},
{
closed = 1;
nodes = (
"1055 1500 OFFCURVE",
"1100 1478 OFFCURVE",
"1100 1450 CURVE SMOOTH",
"1100 1422 OFFCURVE",
"1055 1400 OFFCURVE",
"1000 1400 CURVE SMOOTH",
"945 1400 OFFCURVE",
"900 1422 OFFCURVE",
"900 1450 CURVE SMOOTH",
"900 1478 OFFCURVE",
"945 1500 OFFCURVE",
"1000 1500 CURVE SMOOTH"
);
},
{
closed = 1;
nodes = (
"443 1123 LINE",
"372 1029 OFFCURVE",
"323 916 OFFCURVE",
"307 793 CURVE",
"337 797 OFFCURVE",
"368 800 OFFCURVE",
"400 800 CURVE SMOOTH",
"655 800 OFFCURVE",
"878 663 OFFCURVE",
"1000 459 CURVE",
"1122 663 OFFCURVE",
"1345 800 OFFCURVE",
"1600 800 CURVE SMOOTH",
"1632 800 OFFCURVE",
"1663 797 OFFCURVE",
"1693 793 CURVE",
"1677 916 OFFCURVE",
"1628 1029 OFFCURVE",
"1557 1123 CURVE",
"1000 900 LINE"
);
}
);
width = 2000;
}
);
unicode = F118;
},
{
glyphname = unif119;
lastChange = "2013-04-14 11:59:17 +0000";
layers = (
{
layerId = "684440DB-903B-4FB4-BFDB-FB0ECFF352DE";
name = Regular;
paths = (
{
closed = 1;
nodes = (
"1688.87 1880.37 LINE SMOOTH",
"1649.8 1919.53 OFFCURVE",
"1586.52 1919.43 OFFCURVE",
"1547.46 1880.37 CURVE SMOOTH",
"1367.09 1700 LINE",
"300 1700 LINE",
"300 200 LINE",
"1400 200 LINE",
"1400 1167.24 LINE",
"1830.27 1597.56 LINE SMOOTH",
"1869.34 1636.62 OFFCURVE",
"1869.43 1699.8 OFFCURVE",
"1830.27 1738.96 CURVE SMOOTH"
);
},
{
closed = 1;
nodes = (
"911.133 961.231 LINE",
"981.836 1173.24 LINE",
"1518.16 1709.67 LINE",
"1659.57 1568.26 LINE",
"1123.24 1031.84 LINE"
);
}
);
width = 2000;
}
);
unicode = F119;
},
{
glyphname = unif120;
lastChange = "2013-04-17 12:21:47 +0000";
layers = (
{
layerId = "684440DB-903B-4FB4-BFDB-FB0ECFF352DE";
name = Regular;
paths = (
{
closed = 1;
nodes = (
"2000 447.678 OFFCURVE",
"1552.34 0 OFFCURVE",
"999.951 0 CURVE SMOOTH",
"447.705 0 OFFCURVE",
"0 447.678 OFFCURVE",
"0 999.951 CURVE SMOOTH",
"0 1552.27 OFFCURVE",
"448 2000 OFFCURVE",
"1000 2000 CURVE SMOOTH",
"1552 2000 OFFCURVE",
"2000 1552.27 OFFCURVE",
"2000 999.951 CURVE SMOOTH"
);
},
{
closed = 1;
nodes = (
"503.319 1899.26 OFFCURVE",
"100.731 1496.66 OFFCURVE",
"100.731 999.951 CURVE SMOOTH",
"100.731 503.442 OFFCURVE",
"502.999 101 OFFCURVE",
"999.999 101 CURVE SMOOTH",
"1497 101 OFFCURVE",
"1899.22 503.442 OFFCURVE",
"1899.22 999.951 CURVE SMOOTH",
"1899.22 1496.66 OFFCURVE",
"1496.58 1899.26 OFFCURVE",
"999.95 1899.26 CURVE SMOOTH"
);
},
{
closed = 1;
nodes = (
"800.731 518.285 LINE",
"962.939 1042.63 LINE",
"851.317 1347.33 LINE",
"767.235 1354.95 LINE SMOOTH",
"723.974 1357.49 OFFCURVE",
"729.052 1465.06 OFFCURVE",
"772.314 1462.52 CURVE",
"772.314 1462.52 OFFCURVE",
"904.638 1452.32 OFFCURVE",
"983.397 1452.32 CURVE SMOOTH",
"1067.24 1452.32 OFFCURVE",
"1197.07 1462.52 OFFCURVE",
"1197.07 1462.52 CURVE",
"1240.33 1465.06 OFFCURVE",
"1245.41 1360.08 OFFCURVE",
"1202.15 1354.95 CURVE",
"1202.15 1354.95 OFFCURVE",
"1175.29 1341.57 OFFCURVE",
"1127.05 1339.03 CURVE",
"1398.34 589.089 LINE",
"1398.34 589.089 OFFCURVE",
"1524.61 903.46 OFFCURVE",
"1524.61 1036.77 CURVE SMOOTH",
"1525 1136 OFFCURVE",
"1505.57 1204.45 OFFCURVE",
"1475 1257.92 CURVE SMOOTH",
"1434.38 1323.94 OFFCURVE",
"1396.19 1379.85 OFFCURVE",
"1396.19 1445.92 CURVE",
"1396 1553 OFFCURVE",
"1481 1596 OFFCURVE",
"1541.41 1587.53 CURVE",
"1398.63 1718.2 OFFCURVE",
"1208.69 1796.96 OFFCURVE",
"999.95 1796.96 CURVE SMOOTH",
"719.872 1796.96 OFFCURVE",
"473.534 1654.28 OFFCURVE",
"330.224 1436.69 CURVE",
"349.022 1436.11 OFFCURVE",
"366.747 1435.71 OFFCURVE",
"381.786 1435.71 CURVE SMOOTH",
"465.624 1435.71 OFFCURVE",
"595.409 1445.92 OFFCURVE",
"595.409 1445.92 CURVE",
"638.622 1448.46 OFFCURVE",
"643.7 1351.78 OFFCURVE",
"600.536 1346.65 CURVE",
"600.536 1346.65 OFFCURVE",
"544.628 1341.57 OFFCURVE",
"496.337 1339.03 CURVE"
);
},
{
closed = 1;
nodes = (
"1402.93 303.333 LINE",
"1641.41 442.402 OFFCURVE",
"1796.88 704.231 OFFCURVE",
"1796.88 999.949 CURVE SMOOTH",
"1796.88 1139.41 OFFCURVE",
"1766.02 1266.81 OFFCURVE",
"1703.42 1380.98 CURVE",
"1731 1169 OFFCURVE",
"1664 999.998 OFFCURVE",
"1664 999.998 CURVE"
);
},
{
closed = 1;
nodes = (
"267.772 1322.62 LINE",
"223.241 1222.91 OFFCURVE",
"202.999 1116 OFFCURVE",
"202.999 1000 CURVE SMOOTH",
"202.999 683 OFFCURVE",
"382.714 404.707 OFFCURVE",
"650.146 274.818 CURVE"
);
},
{
closed = 1;
nodes = (
"793.999 232.998 LINE",
"858.999 213.998 OFFCURVE",
"928.319 203.035 OFFCURVE",
"999.95 203.035 CURVE SMOOTH",
"1084.96 203.035 OFFCURVE",
"1167 217.998 OFFCURVE",
"1242 244.998 CURVE",
"1012.79 869.767 LINE"
);
}
);
width = 2000;
}
);
unicode = F120;
},
{
glyphname = unif121;
lastChange = "2013-04-14 11:59:17 +0000";
layers = (
{
layerId = "684440DB-903B-4FB4-BFDB-FB0ECFF352DE";
name = Regular;
paths = (
{
closed = 1;
nodes = (
"300 100 LINE",
"1700 100 LINE",
"1700 1900 LINE",
"300 1900 LINE"
);
},
{
closed = 1;
nodes = (
"600 600 LINE",
"600 700 LINE",
"1200 700 LINE",
"1200 600 LINE"
);
},
{
closed = 1;
nodes = (
"600 900 LINE",
"600 1000 LINE",
"1400 1000 LINE",
"1400 900 LINE"
);
},
{
closed = 1;
nodes = (
"600 1200 LINE",
"600 1300 LINE",
"1400 1300 LINE",
"1400 1200 LINE"
);
},
{
closed = 1;
nodes = (
"600 1500 LINE",
"600 1600 LINE",
"1400 1600 LINE",
"1400 1500 LINE"
);
}
);
width = 2000;
}
);
unicode = F121;
},
{
glyphname = unif122;
lastChange = "2013-04-14 11:59:17 +0000";
layers = (
{
layerId = "684440DB-903B-4FB4-BFDB-FB0ECFF352DE";
name = Regular;
paths = (
{
closed = 1;
nodes = (
"1797 626 OFFCURVE",
"1765 547 OFFCURVE",
"1699 488 CURVE SMOOTH",
"1634 429 OFFCURVE",
"1551 400 OFFCURVE",
"1451 400 CURVE SMOOTH",
"1223 400 OFFCURVE",
"1062 584 OFFCURVE",
"1028 863 CURVE SMOOTH",
"974 1304 OFFCURVE",
"1288 1654 OFFCURVE",
"1608 1806 CURVE",
"1771 1578 LINE",
"1559 1472 OFFCURVE",
"1395 1226 OFFCURVE",
"1429 1033 CURVE",
"1511 1051 OFFCURVE",
"1652 1040 OFFCURVE",
"1725 948 CURVE SMOOTH",
"1773 887 OFFCURVE",
"1797 813 OFFCURVE",
"1797 726 CURVE SMOOTH"
);
},
{
closed = 1;
nodes = (
"854 626 OFFCURVE",
"822 547 OFFCURVE",
"756 488 CURVE SMOOTH",
"691 429 OFFCURVE",
"608 400 OFFCURVE",
"508 400 CURVE SMOOTH",
"280 400 OFFCURVE",
"119 584 OFFCURVE",
"85 863 CURVE SMOOTH",
"31 1304 OFFCURVE",
"345 1654 OFFCURVE",
"665 1806 CURVE",
"828 1578 LINE",
"616 1472 OFFCURVE",
"452 1226 OFFCURVE",
"486 1033 CURVE",
"568 1051 OFFCURVE",
"709 1040 OFFCURVE",
"782 948 CURVE SMOOTH",
"830 887 OFFCURVE",
"854 813 OFFCURVE",
"854 726 CURVE SMOOTH"
);
}
);
width = 2000;
}
);
unicode = F122;
},
{
glyphname = unif123;
lastChange = "2013-04-29 19:36:37 +0000";
layers = (
{
layerId = "684440DB-903B-4FB4-BFDB-FB0ECFF352DE";
name = Regular;
paths = (
{
closed = 1;
nodes = (
"100 100 LINE",
"1300 100 LINE",
"1900 700 LINE",
"1900 1900 LINE",
"100 1900 LINE"
);
},
{
closed = 1;
nodes = (
"1600 1600 LINE",
"1600 1500 LINE",
"400 1500 LINE",
"400 1600 LINE"
);
},
{
closed = 1;
nodes = (
"1600 1200 LINE",
"1600 1100 LINE",
"400 1100 LINE",
"400 1200 LINE"
);
},
{
closed = 1;
nodes = (
"400 700 LINE",
"400 800 LINE",
"1000 800 LINE",
"1000 700 LINE"
);
},
{
closed = 1;
nodes = (
"1200 800 LINE",
"1700 800 LINE",
"1200 300 LINE"
);
}
);
width = 2000;
}
);
unicode = F123;
},
{
glyphname = unif125;
lastChange = "2013-04-14 11:59:17 +0000";
layers = (
{
layerId = "684440DB-903B-4FB4-BFDB-FB0ECFF352DE";
name = Regular;
paths = (
{
closed = 1;
nodes = (
"1100 1400 LINE",
"1100 1700 LINE SMOOTH",
"1100 1810.45 OFFCURVE",
"1010.45 1900 OFFCURVE",
"900 1900 CURVE SMOOTH",
"300 1900 LINE SMOOTH",
"189.551 1900 OFFCURVE",
"100 1810.45 OFFCURVE",
"100 1700 CURVE SMOOTH",
"100 1200 LINE SMOOTH",
"100 1089.55 OFFCURVE",
"189.551 1000 OFFCURVE",
"300 1000 CURVE SMOOTH",
"500 1000 LINE",
"500 700 LINE",
"800 1000 LINE",
"800 1184.3 LINE SMOOTH",
"800 1280.31 OFFCURVE",
"906.909 1400 OFFCURVE",
"1017.92 1400 CURVE SMOOTH"
);
},
{
closed = 1;
nodes = (
"1200 1300 LINE",
"1100 1300 LINE SMOOTH",
"989.551 1300 OFFCURVE",
"900 1210.45 OFFCURVE",
"900 1100 CURVE SMOOTH",
"900 900 LINE",
"900 600 LINE SMOOTH",
"900 489.551 OFFCURVE",
"989.551 400 OFFCURVE",
"1100 400 CURVE SMOOTH",
"1200 400 LINE",
"1500 100 LINE",
"1500 400 LINE",
"1700 400 LINE SMOOTH",
"1810.45 400 OFFCURVE",
"1900 489.551 OFFCURVE",
"1900 600 CURVE SMOOTH",
"1900 1100 LINE SMOOTH",
"1900 1210.45 OFFCURVE",
"1810.45 1300 OFFCURVE",
"1700 1300 CURVE SMOOTH"
);
}
);
width = 2000;
}
);
unicode = F125;
},
{
glyphname = unif126;
lastChange = "2013-04-29 19:40:15 +0000";
layers = (
{
layerId = "684440DB-903B-4FB4-BFDB-FB0ECFF352DE";
name = Regular;
paths = (
{
closed = 1;
nodes = (
"200 1900 LINE SMOOTH",
"145 1900 OFFCURVE",
"100 1855 OFFCURVE",
"100 1800 CURVE SMOOTH",
"100 202 LINE",
"1900 200 LINE",
"1900 1800 LINE SMOOTH",
"1900 1855 OFFCURVE",
"1855 1900 OFFCURVE",
"1800 1900 CURVE SMOOTH"
);
},
{
closed = 1;
nodes = (
"1400 1500 LINE",
"1300 1500 LINE",
"1500 1800 LINE",
"1600 1800 LINE"
);
},
{
closed = 1;
nodes = (
"1100 1500 LINE",
"1000 1500 LINE",
"1200 1800 LINE",
"1300 1800 LINE"
);
},
{
closed = 1;
nodes = (
"800 1500 LINE",
"700 1500 LINE",
"900 1800 LINE",
"1000 1800 LINE"
);
},
{
closed = 1;
nodes = (
"700 1800 LINE",
"500 1500 LINE",
"400 1500 LINE",
"600 1800 LINE"
);
},
{
closed = 1;
nodes = (
"300 400 LINE",
"300 1400 LINE",
"1700 1400 LINE",
"1700 400 LINE"
);
},
{
closed = 1;
nodes = (
"800 500 LINE",
"1400 900 LINE",
"800 1300 LINE"
);
}
);
width = 2000;
}
);
unicode = F126;
},
{
glyphname = unif127;
lastChange = "2013-04-29 19:39:53 +0000";
layers = (
{
layerId = "684440DB-903B-4FB4-BFDB-FB0ECFF352DE";
name = Regular;
paths = (
{
closed = 1;
nodes = (
"699 1692 LINE SMOOTH",
"644 1683 OFFCURVE",
"600 1647 OFFCURVE",
"600 1592 CURVE SMOOTH",
"600 1492 LINE",
"600 1392 LINE",
"600 765 LINE",
"554 786 OFFCURVE",
"504 800 OFFCURVE",
"450 800 CURVE SMOOTH",
"257 800 OFFCURVE",
"100 643 OFFCURVE",
"100 450 CURVE SMOOTH",
"100 256 OFFCURVE",
"257 100 OFFCURVE",
"450 100 CURVE SMOOTH",
"626 100 OFFCURVE",
"776 230 OFFCURVE",
"800 400 CURVE",
"800 1292 LINE",
"1700 1492 LINE",
"1700 865 LINE",
"1654 886 OFFCURVE",
"1604 900 OFFCURVE",
"1550 900 CURVE SMOOTH",
"1357 900 OFFCURVE",
"1200 743 OFFCURVE",
"1200 550 CURVE SMOOTH",
"1200 356 OFFCURVE",
"1357 200 OFFCURVE",
"1550 200 CURVE SMOOTH",
"1743 200 OFFCURVE",
"1900 356 OFFCURVE",
"1900 550 CURVE SMOOTH",
"1900 567 OFFCURVE",
"1900 1592 OFFCURVE",
"1900 1592 CURVE",
"1900 1692 LINE",
"1900 1792 LINE SMOOTH",
"1900 1847 OFFCURVE",
"1856 1900 OFFCURVE",
"1801 1892 CURVE SMOOTH"
);
}
);
width = 2000;
}
);
unicode = F127;
},
{
glyphname = unif128;
lastChange = "2013-04-29 19:38:49 +0000";
layers = (
{
layerId = "684440DB-903B-4FB4-BFDB-FB0ECFF352DE";
name = Regular;
paths = (
{
closed = 1;
nodes = (
"156 1900 OFFCURVE",
"100 1844 OFFCURVE",
"100 1775 CURVE SMOOTH",
"100 225 LINE SMOOTH",
"100 156 OFFCURVE",
"156 100 OFFCURVE",
"225 100 CURVE SMOOTH",
"1775 100 LINE SMOOTH",
"1844 100 OFFCURVE",
"1900 156 OFFCURVE",
"1900 225 CURVE SMOOTH",
"1900 1775 LINE SMOOTH",
"1900 1844 OFFCURVE",
"1844 1900 OFFCURVE",
"1775 1900 CURVE SMOOTH",
"225 1900 LINE SMOOTH"
);
},
{
closed = 1;
nodes = (
"300 300 LINE",
"300 1700 LINE",
"1700 1700 LINE",
"1700 300 LINE"
);
},
{
closed = 1;
nodes = (
"1000 1290 OFFCURVE",
"910 1200 OFFCURVE",
"800 1200 CURVE SMOOTH",
"690 1200 OFFCURVE",
"600 1290 OFFCURVE",
"600 1400 CURVE SMOOTH",
"600 1510 OFFCURVE",
"690 1600 OFFCURVE",
"800 1600 CURVE SMOOTH",
"910 1600 OFFCURVE",
"1000 1510 OFFCURVE",
"1000 1400 CURVE SMOOTH"
);
},
{
closed = 1;
nodes = (
"1300 900 OFFCURVE",
"1200 1100 OFFCURVE",
"1000 1100 CURVE SMOOTH",
"800 1100 OFFCURVE",
"700 800 OFFCURVE",
"700 800 CURVE SMOOTH",
"700 800 OFFCURVE",
"600 1200 OFFCURVE",
"400 1200 CURVE",
"400 600 LINE",
"400 500 LINE SMOOTH",
"400 445 OFFCURVE",
"445 400 OFFCURVE",
"500 400 CURVE SMOOTH",
"1500 400 LINE SMOOTH",
"1555 400 OFFCURVE",
"1600 445 OFFCURVE",
"1600 500 CURVE SMOOTH",
"1600 600 LINE",
"1600 1500 LINE",
"1300 1500 OFFCURVE",
"1300 900 OFFCURVE",
"1300 900 CURVE SMOOTH"
);
}
);
width = 2000;
}
);
unicode = F128;
},
{
glyphname = unif129;
lastChange = "2013-04-14 11:59:17 +0000";
layers = (
{
layerId = "684440DB-903B-4FB4-BFDB-FB0ECFF352DE";
name = Regular;
paths = (
{
closed = 1;
nodes = (
"1500 1600 LINE",
"1200 1800 LINE",
"800 1800 LINE",
"500 1600 LINE",
"205.908 1600 LINE SMOOTH",
"147.461 1600 OFFCURVE",
"100 1552.64 OFFCURVE",
"100 1494.09 CURVE SMOOTH",
"100 312.5 LINE SMOOTH",
"100 253.906 OFFCURVE",
"147.461 200 OFFCURVE",
"205.908 200 CURVE SMOOTH",
"1794.14 200 LINE SMOOTH",
"1852.54 200 OFFCURVE",
"1900 253.906 OFFCURVE",
"1900 312.5 CURVE SMOOTH",
"1900 1494.09 LINE SMOOTH",
"1900 1552.64 OFFCURVE",
"1852.54 1600 OFFCURVE",
"1794.14 1600 CURVE SMOOTH"
);
},
{
closed = 1;
nodes = (
"779.102 500 OFFCURVE",
"600 679.102 OFFCURVE",
"600 900.049 CURVE SMOOTH",
"600 1120.95 OFFCURVE",
"779.102 1300.05 OFFCURVE",
"1000 1300.05 CURVE SMOOTH",
"1220.9 1300.05 OFFCURVE",
"1400 1120.95 OFFCURVE",
"1400 900.049 CURVE SMOOTH",
"1400 679.102 OFFCURVE",
"1220.9 500 OFFCURVE",
"1000 500 CURVE SMOOTH"
);
}
);
width = 2000;
}
);
unicode = F129;
},
{
glyphname = unif130;
lastChange = "2013-04-14 11:59:17 +0000";
layers = (
{
layerId = "684440DB-903B-4FB4-BFDB-FB0ECFF352DE";
name = Regular;
paths = (
{
closed = 1;
nodes = (
"245 350 OFFCURVE",
"200 305 OFFCURVE",
"200 250 CURVE SMOOTH",
"200 195 OFFCURVE",
"245 150 OFFCURVE",
"300 150 CURVE SMOOTH",
"355 150 OFFCURVE",
"400 195 OFFCURVE",
"400 250 CURVE SMOOTH",
"400 305 OFFCURVE",
"355 350 OFFCURVE",
"300 350 CURVE SMOOTH"
);
},
{
closed = 1;
nodes = (
"517 550 OFFCURVE",
"450 483 OFFCURVE",
"450 400 CURVE SMOOTH",
"450 317 OFFCURVE",
"517 250 OFFCURVE",
"600 250 CURVE SMOOTH",
"683 250 OFFCURVE",
"750 317 OFFCURVE",
"750 400 CURVE SMOOTH",
"750 483 OFFCURVE",
"683 550 OFFCURVE",
"600 550 CURVE SMOOTH"
);
},
{
closed = 1;
nodes = (
"300 1900 OFFCURVE",
"100 1609 OFFCURVE",
"100 1250 CURVE SMOOTH",
"100 891 OFFCURVE",
"300 600 OFFCURVE",
"1000 600 CURVE SMOOTH",
"1700 600 OFFCURVE",
"1900 891 OFFCURVE",
"1900 1250 CURVE SMOOTH",
"1900 1609 OFFCURVE",
"1700 1900 OFFCURVE",
"1000 1900 CURVE SMOOTH"
);
},
{
closed = 1;
nodes = (
"467 1100 OFFCURVE",
"400 1167 OFFCURVE",
"400 1250 CURVE SMOOTH",
"400 1333 OFFCURVE",
"467 1400 OFFCURVE",
"550 1400 CURVE SMOOTH",
"633 1400 OFFCURVE",
"700 1333 OFFCURVE",
"700 1250 CURVE SMOOTH",
"700 1167 OFFCURVE",
"633 1100 OFFCURVE",
"550 1100 CURVE SMOOTH"
);
},
{
closed = 1;
nodes = (
"917 1100 OFFCURVE",
"850 1167 OFFCURVE",
"850 1250 CURVE SMOOTH",
"850 1333 OFFCURVE",
"917 1400 OFFCURVE",
"1000 1400 CURVE SMOOTH",
"1083 1400 OFFCURVE",
"1150 1333 OFFCURVE",
"1150 1250 CURVE SMOOTH",
"1150 1167 OFFCURVE",
"1083 1100 OFFCURVE",
"1000 1100 CURVE SMOOTH"
);
},
{
closed = 1;
nodes = (
"1367 1100 OFFCURVE",
"1300 1167 OFFCURVE",
"1300 1250 CURVE SMOOTH",
"1300 1333 OFFCURVE",
"1367 1400 OFFCURVE",
"1450 1400 CURVE SMOOTH",
"1533 1400 OFFCURVE",
"1600 1333 OFFCURVE",
"1600 1250 CURVE SMOOTH",
"1600 1167 OFFCURVE",
"1533 1100 OFFCURVE",
"1450 1100 CURVE SMOOTH"
);
}
);
width = 2000;
}
);
unicode = F130;
},
{
glyphname = unif132;
lastChange = "2015-07-08 18:41:47 +0000";
layers = (
{
layerId = "684440DB-903B-4FB4-BFDB-FB0ECFF352DE";
name = Regular;
paths = (
{
closed = 1;
nodes = (
"1200 1300 LINE",
"1200 1800 LINE",
"900 1800 LINE",
"900 1300 LINE",
"400 1300 LINE",
"400 1000 LINE",
"900 1000 LINE",
"900 500 LINE",
"1200 500 LINE",
"1200 1000 LINE",
"1700 1000 LINE",
"1700 1300 LINE"
);
}
);
width = 2000;
}
);
unicode = F132;
},
{
glyphname = unif133;
lastChange = "2013-04-14 11:59:17 +0000";
layers = (
{
layerId = "684440DB-903B-4FB4-BFDB-FB0ECFF352DE";
name = Regular;
paths = (
{
closed = 1;
nodes = (
"1500 1300 LINE",
"1500 1100 LINE",
"1400 1100 LINE",
"1400 200 LINE",
"300 200 LINE",
"300 1700 LINE",
"1200 1700 LINE",
"1200 1800 LINE",
"1500 1800 LINE",
"1500 1600 LINE",
"1700 1600 LINE",
"1700 1300 LINE"
);
},
{
closed = 1;
nodes = (
"1400 1500 LINE",
"1400 1700 LINE",
"1300 1700 LINE",
"1300 1500 LINE",
"1100 1500 LINE",
"1100 1400 LINE",
"1300 1400 LINE",
"1300 1200 LINE",
"1400 1200 LINE",
"1400 1400 LINE",
"1600 1400 LINE",
"1600 1500 LINE"
);
}
);
width = 2000;
}
);
unicode = F133;
},
{
glyphname = unif134;
lastChange = "2014-12-01 15:26:50 +0000";
layers = (
{
layerId = "684440DB-903B-4FB4-BFDB-FB0ECFF352DE";
name = Regular;
paths = (
{
closed = 1;
nodes = (
"300 1700 LINE",
"1700 1700 LINE",
"1700 1500 LINE",
"300 1500 LINE"
);
},
{
closed = 1;
nodes = (
"300 500 LINE",
"1700 500 LINE",
"1700 300 LINE",
"300 300 LINE"
);
},
{
closed = 1;
nodes = (
"500 700 LINE",
"500 1300 LINE",
"1500 1300 LINE",
"1500 700 LINE"
);
}
);
width = 2000;
}
);
unicode = F134;
},
{
glyphname = unif135;
lastChange = "2014-12-01 15:21:30 +0000";
layers = (
{
layerId = "684440DB-903B-4FB4-BFDB-FB0ECFF352DE";
name = Regular;
paths = (
{
closed = 1;
nodes = (
"300 1700 LINE",
"1700 1700 LINE",
"1700 1500 LINE",
"300 1500 LINE"
);
},
{
closed = 1;
nodes = (
"1400 1300 LINE",
"1700 1300 LINE",
"1700 1100 LINE",
"1400 1100 LINE"
);
},
{
closed = 1;
nodes = (
"1400 900 LINE",
"1700 900 LINE",
"1700 700 LINE",
"1400 700 LINE"
);
},
{
closed = 1;
nodes = (
"300 500 LINE",
"1700 500 LINE",
"1700 300 LINE",
"300 300 LINE"
);
},
{
closed = 1;
nodes = (
"300 700 LINE",
"300 1300 LINE",
"1200 1300 LINE",
"1200 700 LINE"
);
}
);
width = 2000;
}
);
unicode = F135;
},
{
glyphname = unif136;
lastChange = "2014-12-01 15:21:47 +0000";
layers = (
{
layerId = "684440DB-903B-4FB4-BFDB-FB0ECFF352DE";
name = Regular;
paths = (
{
closed = 1;
nodes = (
"300 1700 LINE",
"1700 1700 LINE",
"1700 1500 LINE",
"300 1500 LINE"
);
},
{
closed = 1;
nodes = (
"300 1300 LINE",
"600 1300 LINE",
"600 1100 LINE",
"300 1100 LINE"
);
},
{
closed = 1;
nodes = (
"300 900 LINE",
"600 900 LINE",
"600 700 LINE",
"300 700 LINE"
);
},
{
closed = 1;
nodes = (
"300 500 LINE",
"1700 500 LINE",
"1700 300 LINE",
"300 300 LINE"
);
},
{
closed = 1;
nodes = (
"800 700 LINE",
"800 1300 LINE",
"1700 1300 LINE",
"1700 700 LINE"
);
}
);
width = 2000;
}
);
unicode = F136;
},
{
glyphname = unif138;
lastChange = "2014-12-01 15:27:10 +0000";
layers = (
{
layerId = "684440DB-903B-4FB4-BFDB-FB0ECFF352DE";
name = Regular;
paths = (
{
closed = 1;
nodes = (
"300 1700 LINE",
"1700 1700 LINE",
"1700 1500 LINE",
"300 1500 LINE"
);
},
{
closed = 1;
nodes = (
"300 500 LINE",
"1700 500 LINE",
"1700 300 LINE",
"300 300 LINE"
);
},
{
closed = 1;
nodes = (
"300 700 LINE",
"300 1300 LINE",
"1300 1300 LINE",
"1300 700 LINE"
);
}
);
width = 2000;
}
);
unicode = F138;
},
{
glyphname = unif139;
lastChange = "2013-04-14 11:59:17 +0000";
layers = (
{
layerId = "684440DB-903B-4FB4-BFDB-FB0ECFF352DE";
name = Regular;
paths = (
{
closed = 1;
nodes = (
"800 600 LINE",
"1400 997 LINE",
"800 1400 LINE"
);
}
);
width = 2000;
},
{
associatedMasterId = "684440DB-903B-4FB4-BFDB-FB0ECFF352DE";
layerId = "CF8338BE-614F-482D-897F-B06020C6C07C";
name = "Regular Mar 20 13, 07:24";
paths = (
{
closed = 1;
nodes = (
"800 600 LINE",
"1400 997 LINE",
"800 1400 LINE"
);
}
);
width = 2000;
}
);
unicode = F139;
},
{
glyphname = unif140;
lastChange = "2013-04-14 11:59:17 +0000";
layers = (
{
layerId = "684440DB-903B-4FB4-BFDB-FB0ECFF352DE";
name = Regular;
paths = (
{
closed = 1;
nodes = (
"700 1200 LINE",
"1097 600 LINE",
"1500 1200 LINE"
);
}
);
width = 2000;
}
);
unicode = F140;
},
{
glyphname = unif141;
lastChange = "2013-04-14 11:59:17 +0000";
layers = (
{
layerId = "684440DB-903B-4FB4-BFDB-FB0ECFF352DE";
name = Regular;
paths = (
{
closed = 1;
nodes = (
"1300 1400 LINE",
"700 1003 LINE",
"1300 600 LINE"
);
}
);
width = 2000;
},
{
associatedMasterId = "684440DB-903B-4FB4-BFDB-FB0ECFF352DE";
layerId = "CF8338BE-614F-482D-897F-B06020C6C07C";
name = "Regular Mar 20 13, 07:24";
paths = (
{
closed = 1;
nodes = (
"800 600 LINE",
"1400 997 LINE",
"800 1400 LINE"
);
}
);
width = 2000;
}
);
unicode = F141;
},
{
glyphname = unif142;
lastChange = "2013-04-14 11:59:17 +0000";
layers = (
{
layerId = "684440DB-903B-4FB4-BFDB-FB0ECFF352DE";
name = Regular;
paths = (
{
closed = 1;
nodes = (
"1500 700 LINE",
"1103 1300 LINE",
"700 700 LINE"
);
}
);
width = 2000;
}
);
unicode = F142;
},
{
glyphname = unif143;
lastChange = "2013-04-14 11:59:17 +0000";
layers = (
{
layerId = "684440DB-903B-4FB4-BFDB-FB0ECFF352DE";
name = Regular;
paths = (
{
closed = 1;
nodes = (
"1500 700 LINE",
"1103 1300 LINE",
"700 700 LINE"
);
}
);
width = 2000;
}
);
unicode = F143;
},
{
glyphname = unif145;
lastChange = "2013-04-17 12:22:52 +0000";
layers = (
{
layerId = "684440DB-903B-4FB4-BFDB-FB0ECFF352DE";
name = Regular;
paths = (
{
closed = 1;
nodes = (
"1500 1700 LINE SMOOTH",
"1500 1783 OFFCURVE",
"1433 1850 OFFCURVE",
"1350 1850 CURVE SMOOTH",
"1267 1850 OFFCURVE",
"1200 1783 OFFCURVE",
"1200 1700 CURVE SMOOTH",
"1200 1600 LINE",
"800 1600 LINE",
"800 1700 LINE SMOOTH",
"800 1783 OFFCURVE",
"733 1850 OFFCURVE",
"650 1850 CURVE SMOOTH",
"567 1850 OFFCURVE",
"500 1783 OFFCURVE",
"500 1700 CURVE SMOOTH",
"500 1600 LINE",
"200 1600 LINE",
"200 200 LINE",
"1800 200 LINE",
"1800 1600 LINE",
"1500 1600 LINE"
);
},
{
closed = 1;
nodes = (
"600 1700 LINE SMOOTH",
"600 1728 OFFCURVE",
"622 1750 OFFCURVE",
"650 1750 CURVE SMOOTH",
"678 1750 OFFCURVE",
"700 1728 OFFCURVE",
"700 1700 CURVE SMOOTH",
"700 1450 LINE SMOOTH",
"700 1422.36 OFFCURVE",
"677.637 1400 OFFCURVE",
"650 1400 CURVE SMOOTH",
"622.363 1400 OFFCURVE",
"600 1422.36 OFFCURVE",
"600 1450 CURVE SMOOTH"
);
},
{
closed = 1;
nodes = (
"1300 1700 LINE SMOOTH",
"1300 1728 OFFCURVE",
"1322 1750 OFFCURVE",
"1350 1750 CURVE SMOOTH",
"1378 1750 OFFCURVE",
"1400 1728 OFFCURVE",
"1400 1700 CURVE SMOOTH",
"1400 1450 LINE SMOOTH",
"1400 1422.36 OFFCURVE",
"1377.64 1400 OFFCURVE",
"1350 1400 CURVE SMOOTH",
"1322.36 1400 OFFCURVE",
"1300 1422.36 OFFCURVE",
"1300 1450 CURVE SMOOTH"
);
},
{
closed = 1;
nodes = (
"300 300 LINE",
"300 1200 LINE",
"1700 1200 LINE",
"1700 300 LINE"
);
},
{
closed = 1;
nodes = (
"500 400 LINE",
"500 1100 LINE",
"700 1100 LINE",
"700 400 LINE"
);
},
{
closed = 1;
nodes = (
"900 400 LINE",
"900 1100 LINE",
"1100 1100 LINE",
"1100 400 LINE"
);
},
{
closed = 1;
nodes = (
"1300 400 LINE",
"1300 1100 LINE",
"1500 1100 LINE",
"1500 400 LINE"
);
}
);
width = 2000;
}
);
unicode = F145;
},
{
glyphname = unif147;
lastChange = "2015-06-26 02:18:08 +0000";
layers = (
{
layerId = "684440DB-903B-4FB4-BFDB-FB0ECFF352DE";
name = Regular;
paths = (
{
closed = 1;
nodes = (
"969 918 LINE",
"712 1158 LINE",
"578 1033 LINE",
"902 579 LINE",
"1036 579 LINE",
"1617 1417 LINE",
"1483 1511 LINE"
);
}
);
width = 2000;
}
);
unicode = F147;
},
{
glyphname = unif148;
lastChange = "2013-04-14 11:59:17 +0000";
layers = (
{
layerId = "684440DB-903B-4FB4-BFDB-FB0ECFF352DE";
name = Regular;
paths = (
{
closed = 1;
nodes = (
"571 1784 OFFCURVE",
"216 1433 OFFCURVE",
"216 1000 CURVE SMOOTH",
"216 567 OFFCURVE",
"567 216 OFFCURVE",
"1000 216 CURVE SMOOTH",
"1433 216 OFFCURVE",
"1784 567 OFFCURVE",
"1784 1000 CURVE SMOOTH",
"1784 1433 OFFCURVE",
"1433 1784 OFFCURVE",
"1000 1784 CURVE SMOOTH"
);
},
{
closed = 1;
nodes = (
"618 1003 LINE",
"1200 1388 LINE",
"1200 612 LINE"
);
}
);
width = 2000;
}
);
unicode = F148;
},
{
glyphname = unif153;
lastChange = "2013-04-14 11:59:17 +0000";
layers = (
{
layerId = "684440DB-903B-4FB4-BFDB-FB0ECFF352DE";
name = Regular;
paths = (
{
closed = 1;
nodes = (
"558.154 1800 OFFCURVE",
"200 1441.85 OFFCURVE",
"200 1000 CURVE SMOOTH",
"200 558.203 OFFCURVE",
"558.154 200 OFFCURVE",
"1000 200 CURVE SMOOTH",
"1441.8 200 OFFCURVE",
"1800 558.203 OFFCURVE",
"1800 1000 CURVE SMOOTH",
"1800 1441.85 OFFCURVE",
"1441.8 1800 OFFCURVE",
"1000 1800 CURVE SMOOTH"
);
},
{
closed = 1;
nodes = (
"1300 500 LINE",
"1000 800 LINE",
"700 500 LINE",
"500 700 LINE",
"800 1000 LINE",
"500 1300 LINE",
"700 1500 LINE",
"1000 1200 LINE",
"1300 1500 LINE",
"1500 1300 LINE",
"1200 1000 LINE",
"1500 700 LINE"
);
}
);
width = 2000;
}
);
unicode = F153;
},
{
glyphname = unif154;
lastChange = "2013-05-13 12:00:15 +0000";
layers = (
{
layerId = "684440DB-903B-4FB4-BFDB-FB0ECFF352DE";
name = Regular;
paths = (
{
closed = 1;
nodes = (
"1300 1300 LINE",
"1900 1225 LINE",
"1487.5 762.5 LINE",
"1600 100 LINE",
"1000 400 LINE",
"400 100 LINE",
"512.5 762.5 LINE",
"100 1225 LINE",
"700 1300 LINE",
"1000 1900 LINE"
);
},
{
closed = 1;
nodes = (
"765.527 1207.42 LINE",
"301.416 1149.41 LINE",
"619.141 793.164 LINE",
"531.592 277.637 LINE",
"1000 511.816 LINE",
"1468.46 277.637 LINE",
"1380.86 793.164 LINE",
"1698.54 1149.41 LINE",
"1234.47 1207.42 LINE",
"1000 1676.42 LINE"
);
}
);
width = 2000;
}
);
unicode = F154;
},
{
glyphname = unif155;
lastChange = "2013-04-14 11:59:17 +0000";
layers = (
{
layerId = "684440DB-903B-4FB4-BFDB-FB0ECFF352DE";
name = Regular;
paths = (
{
closed = 1;
nodes = (
"700 1300 LINE",
"100 1225 LINE",
"512.5 762.5 LINE",
"400 100 LINE",
"1000 400 LINE",
"1600 100 LINE",
"1487.5 762.5 LINE",
"1900 1225 LINE",
"1300 1300 LINE",
"1000 1900 LINE"
);
}
);
width = 2000;
}
);
unicode = F155;
},
{
glyphname = unif156;
lastChange = "2013-04-14 11:59:17 +0000";
layers = (
{
layerId = "684440DB-903B-4FB4-BFDB-FB0ECFF352DE";
name = Regular;
paths = (
{
closed = 1;
nodes = (
"600 600 LINE",
"100 1300 LINE",
"1100 1300 LINE"
);
},
{
closed = 1;
nodes = (
"1400 1300 LINE",
"1900 600 LINE",
"900 600 LINE"
);
}
);
width = 2000;
}
);
unicode = F156;
},
{
glyphname = unif157;
lastChange = "2013-04-14 11:59:17 +0000";
layers = (
{
layerId = "684440DB-903B-4FB4-BFDB-FB0ECFF352DE";
name = Regular;
paths = (
{
closed = 1;
nodes = (
"1305.66 1899.56 OFFCURVE",
"1167.19 1800 OFFCURVE",
"1154.3 1600 CURVE",
"200 1600 LINE",
"200 100 LINE",
"1300 100 LINE",
"1300 1152.73 LINE",
"1406.44 1259.23 LINE",
"1429.3 1254 OFFCURVE",
"1452.54 1251.37 OFFCURVE",
"1475.98 1251.37 CURVE SMOOTH",
"1654.69 1251.37 OFFCURVE",
"1800 1396.73 OFFCURVE",
"1800 1575.44 CURVE SMOOTH",
"1800 1754.2 OFFCURVE",
"1654.69 1899.56 OFFCURVE",
"1475.98 1899.56 CURVE SMOOTH"
);
},
{
closed = 1;
nodes = (
"1441.41 1351.42 OFFCURVE",
"1409.08 1359.91 OFFCURVE",
"1379.69 1373.93 CURVE",
"1056.15 1050.19 LINE SMOOTH",
"1030.86 1024.95 OFFCURVE",
"865.82 897.363 OFFCURVE",
"817.383 897.363 CURVE SMOOTH",
"812.891 897.363 OFFCURVE",
"809.473 898.438 OFFCURVE",
"807.227 900.635 CURVE SMOOTH",
"779.688 928.174 OFFCURVE",
"929.102 1122.22 OFFCURVE",
"956.641 1149.71 CURVE SMOOTH",
"1278.52 1471.83 LINE",
"1262.01 1502.98 OFFCURVE",
"1251.86 1537.89 OFFCURVE",
"1251.86 1575.49 CURVE SMOOTH",
"1251.86 1699.22 OFFCURVE",
"1352.15 1799.66 OFFCURVE",
"1475.98 1799.66 CURVE SMOOTH",
"1599.71 1799.66 OFFCURVE",
"1700 1699.22 OFFCURVE",
"1700 1575.49 CURVE SMOOTH",
"1700 1451.76 OFFCURVE",
"1599.71 1351.42 OFFCURVE",
"1475.98 1351.42 CURVE SMOOTH"
);
}
);
width = 2000;
}
);
unicode = F157;
},
{
glyphname = unif158;
lastChange = "2013-04-14 11:59:17 +0000";
layers = (
{
layerId = "684440DB-903B-4FB4-BFDB-FB0ECFF352DE";
name = Regular;
paths = (
{
closed = 1;
nodes = (
"1212 994 LINE",
"1576 1337 LINE",
"1371 1555 LINE",
"1007 1213 LINE",
"664 1577 LINE",
"446 1371 LINE",
"788 1007 LINE",
"424 664 LINE",
"630 446 LINE",
"994 789 LINE",
"1336 424 LINE",
"1555 630 LINE"
);
}
);
width = 2000;
}
);
unicode = F158;
},
{
glyphname = unif159;
lastChange = "2013-04-17 12:23:19 +0000";
layers = (
{
layerId = "684440DB-903B-4FB4-BFDB-FB0ECFF352DE";
name = Regular;
paths = (
{
closed = 1;
nodes = (
"558.154 1800 OFFCURVE",
"200 1441.85 OFFCURVE",
"200 1000 CURVE SMOOTH",
"200 558.203 OFFCURVE",
"558.154 200 OFFCURVE",
"1000 200 CURVE SMOOTH",
"1441.8 200 OFFCURVE",
"1800 558.203 OFFCURVE",
"1800 1000 CURVE SMOOTH",
"1800 1441.85 OFFCURVE",
"1441.8 1800 OFFCURVE",
"1000 1800 CURVE SMOOTH"
);
},
{
closed = 1;
nodes = (
"723.828 500 OFFCURVE",
"500 723.828 OFFCURVE",
"500 1000 CURVE SMOOTH",
"500 1276.17 OFFCURVE",
"723.828 1500 OFFCURVE",
"1000 1500 CURVE SMOOTH",
"1276.17 1500 OFFCURVE",
"1500 1276.17 OFFCURVE",
"1500 1000 CURVE SMOOTH",
"1500 723.828 OFFCURVE",
"1276.17 500 OFFCURVE",
"1000 500 CURVE SMOOTH"
);
}
);
width = 2000;
}
);
unicode = F159;
},
{
glyphname = unif160;
lastChange = "2013-04-14 11:59:17 +0000";
layers = (
{
layerId = "684440DB-903B-4FB4-BFDB-FB0ECFF352DE";
name = Regular;
paths = (
{
closed = 1;
nodes = (
"1400 1100 LINE",
"1400 1400 LINE SMOOTH",
"1400 1620.9 OFFCURVE",
"1220.9 1800 OFFCURVE",
"1000 1800 CURVE SMOOTH",
"779.102 1800 OFFCURVE",
"600 1620.9 OFFCURVE",
"600 1400 CURVE SMOOTH",
"600 1100 LINE",
"500 1100 LINE SMOOTH",
"444.775 1100 OFFCURVE",
"400 1055.27 OFFCURVE",
"400 1000 CURVE SMOOTH",
"400 300 LINE SMOOTH",
"400 244.727 OFFCURVE",
"444.775 200 OFFCURVE",
"500 200 CURVE SMOOTH",
"1500 200 LINE SMOOTH",
"1555.27 200 OFFCURVE",
"1600 244.727 OFFCURVE",
"1600 300 CURVE SMOOTH",
"1600 1000 LINE SMOOTH",
"1600 1055.27 OFFCURVE",
"1555.27 1100 OFFCURVE",
"1500 1100 CURVE SMOOTH"
);
},
{
closed = 1;
nodes = (
"900 400 LINE",
"935.84 614.941 LINE",
"885.205 639.063 OFFCURVE",
"850 690.234 OFFCURVE",
"850 750 CURVE SMOOTH",
"850 832.813 OFFCURVE",
"917.139 900 OFFCURVE",
"1000 900 CURVE SMOOTH",
"1082.81 900 OFFCURVE",
"1150 832.813 OFFCURVE",
"1150 750 CURVE SMOOTH",
"1150 690.234 OFFCURVE",
"1114.75 639.063 OFFCURVE",
"1064.16 614.941 CURVE",
"1100 400 LINE"
);
},
{
closed = 1;
nodes = (
"800 1100 LINE",
"800 1400 LINE SMOOTH",
"800 1510.45 OFFCURVE",
"889.551 1600 OFFCURVE",
"1000 1600 CURVE SMOOTH",
"1110.45 1600 OFFCURVE",
"1200 1510.45 OFFCURVE",
"1200 1400 CURVE SMOOTH",
"1200 1100 LINE"
);
}
);
width = 2000;
}
);
unicode = F160;
},
{
glyphname = unif161;
lastChange = "2013-04-29 19:41:23 +0000";
layers = (
{
layerId = "684440DB-903B-4FB4-BFDB-FB0ECFF352DE";
name = Regular;
paths = (
{
closed = 1;
nodes = (
"1600 1600 LINE",
"1600 1796 LINE SMOOTH",
"1600 1853 OFFCURVE",
"1553 1900 OFFCURVE",
"1496 1900 CURVE SMOOTH",
"204 1900 LINE SMOOTH",
"147 1900 OFFCURVE",
"100 1853 OFFCURVE",
"100 1796 CURVE SMOOTH",
"100 504 LINE SMOOTH",
"100 447 OFFCURVE",
"147 400 OFFCURVE",
"204 400 CURVE SMOOTH",
"400 400 LINE",
"400 204 LINE SMOOTH",
"400 147 OFFCURVE",
"447 100 OFFCURVE",
"504 100 CURVE SMOOTH",
"1796 100 LINE SMOOTH",
"1853 100 OFFCURVE",
"1900 147 OFFCURVE",
"1900 204 CURVE SMOOTH",
"1900 1496 LINE SMOOTH",
"1900 1553 OFFCURVE",
"1853 1600 OFFCURVE",
"1796 1600 CURVE SMOOTH"
);
},
{
closed = 1;
nodes = (
"300 1700 LINE",
"1400 1700 LINE",
"1400 600 LINE",
"300 600 LINE"
);
},
{
closed = 1;
nodes = (
"600 300 LINE",
"600 400 LINE",
"899 400 OFFCURVE",
"1197 400 OFFCURVE",
"1496 400 CURVE SMOOTH",
"1553 400 OFFCURVE",
"1600 447 OFFCURVE",
"1600 504 CURVE SMOOTH",
"1600 1400 LINE",
"1700 1400 LINE",
"1700 300 LINE"
);
},
{
closed = 1;
nodes = (
"1000 1000 OFFCURVE",
"967 1200 OFFCURVE",
"800 1200 CURVE SMOOTH",
"633 1200 OFFCURVE",
"600 1000 OFFCURVE",
"600 1000 CURVE SMOOTH",
"600 1000 OFFCURVE",
"600 1300 OFFCURVE",
"400 1300 CURVE",
"400 700 LINE",
"1300 700 LINE",
"1300 1500 LINE",
"1100 1500 OFFCURVE",
"1000 1000 OFFCURVE",
"1000 1000 CURVE SMOOTH"
);
},
{
closed = 1;
nodes = (
"800 1367 OFFCURVE",
"733 1300 OFFCURVE",
"650 1300 CURVE SMOOTH",
"567 1300 OFFCURVE",
"500 1367 OFFCURVE",
"500 1450 CURVE SMOOTH",
"500 1533 OFFCURVE",
"567 1600 OFFCURVE",
"650 1600 CURVE SMOOTH",
"733 1600 OFFCURVE",
"800 1533 OFFCURVE",
"800 1450 CURVE SMOOTH"
);
}
);
width = 2000;
}
);
unicode = F161;
},
{
glyphname = unif163;
lastChange = "2013-04-17 12:23:32 +0000";
layers = (
{
layerId = "684440DB-903B-4FB4-BFDB-FB0ECFF352DE";
name = Regular;
paths = (
{
closed = 1;
nodes = (
"200 100 LINE SMOOTH",
"144.775 100 OFFCURVE",
"100 144.727 OFFCURVE",
"100 200 CURVE SMOOTH",
"100 1800 LINE SMOOTH",
"100 1855.22 OFFCURVE",
"144.775 1900 OFFCURVE",
"200 1900 CURVE SMOOTH",
"1800 1900 LINE SMOOTH",
"1855.27 1900 OFFCURVE",
"1900 1855.22 OFFCURVE",
"1900 1800 CURVE SMOOTH",
"1900 200 LINE SMOOTH",
"1900 144.727 OFFCURVE",
"1855.27 100 OFFCURVE",
"1800 100 CURVE SMOOTH"
);
},
{
closed = 1;
nodes = (
"600 1700 LINE",
"600 1500 LINE",
"1700 1500 LINE",
"1700 1700 LINE"
);
},
{
closed = 1;
nodes = (
"344.775 1699.95 OFFCURVE",
"300 1655.18 OFFCURVE",
"300 1599.95 CURVE SMOOTH",
"300 1544.73 OFFCURVE",
"344.775 1499.95 OFFCURVE",
"400 1499.95 CURVE SMOOTH",
"455.225 1499.95 OFFCURVE",
"500 1544.73 OFFCURVE",
"500 1599.95 CURVE SMOOTH",
"500 1655.18 OFFCURVE",
"455.225 1699.95 OFFCURVE",
"400 1699.95 CURVE SMOOTH"
);
},
{
closed = 1;
nodes = (
"600 1300 LINE",
"600 1100 LINE",
"1700 1100 LINE",
"1700 1300 LINE"
);
},
{
closed = 1;
nodes = (
"344.775 1299.95 OFFCURVE",
"300 1255.18 OFFCURVE",
"300 1199.95 CURVE SMOOTH",
"300 1144.73 OFFCURVE",
"344.775 1099.95 OFFCURVE",
"400 1099.95 CURVE SMOOTH",
"455.225 1099.95 OFFCURVE",
"500 1144.73 OFFCURVE",
"500 1199.95 CURVE SMOOTH",
"500 1255.18 OFFCURVE",
"455.225 1299.95 OFFCURVE",
"400 1299.95 CURVE SMOOTH"
);
},
{
closed = 1;
nodes = (
"344.775 900 OFFCURVE",
"300 855.176 OFFCURVE",
"300 800 CURVE SMOOTH",
"300 744.727 OFFCURVE",
"344.775 700 OFFCURVE",
"400 700 CURVE SMOOTH",
"455.225 700 OFFCURVE",
"500 744.727 OFFCURVE",
"500 800 CURVE SMOOTH",
"500 855.176 OFFCURVE",
"455.225 900 OFFCURVE",
"400 900 CURVE SMOOTH"
);
},
{
closed = 1;
nodes = (
"600 900 LINE",
"600 700 LINE",
"1700 700 LINE",
"1700 900 LINE"
);
},
{
closed = 1;
nodes = (
"344.775 500 OFFCURVE",
"300 455.176 OFFCURVE",
"300 400 CURVE SMOOTH",
"300 344.727 OFFCURVE",
"344.775 300 OFFCURVE",
"400 300 CURVE SMOOTH",
"455.225 300 OFFCURVE",
"500 344.727 OFFCURVE",
"500 400 CURVE SMOOTH",
"500 455.176 OFFCURVE",
"455.225 500 OFFCURVE",
"400 500 CURVE SMOOTH"
);
},
{
closed = 1;
nodes = (
"600 500 LINE",
"600 300 LINE",
"1700 300 LINE",
"1700 500 LINE"
);
}
);
width = 2000;
}
);
unicode = F163;
},
{
glyphname = unif164;
lastChange = "2013-04-14 11:59:17 +0000";
layers = (
{
layerId = "684440DB-903B-4FB4-BFDB-FB0ECFF352DE";
name = Regular;
paths = (
{
closed = 1;
nodes = (
"1900 144.727 OFFCURVE",
"1855.27 100 OFFCURVE",
"1800 100 CURVE SMOOTH",
"200 100 LINE SMOOTH",
"144.775 100 OFFCURVE",
"100 144.727 OFFCURVE",
"100 200 CURVE SMOOTH",
"100 1800 LINE SMOOTH",
"100 1855.22 OFFCURVE",
"144.775 1900 OFFCURVE",
"200 1900 CURVE SMOOTH",
"1800 1900 LINE SMOOTH",
"1855.27 1900 OFFCURVE",
"1900 1855.22 OFFCURVE",
"1900 1800 CURVE SMOOTH",
"1900 200 LINE SMOOTH"
);
},
{
closed = 1;
nodes = (
"344.775 1699.95 OFFCURVE",
"300 1655.18 OFFCURVE",
"300 1599.95 CURVE SMOOTH",
"300 1544.73 OFFCURVE",
"344.775 1499.95 OFFCURVE",
"400 1499.95 CURVE SMOOTH",
"455.225 1499.95 OFFCURVE",
"500 1544.73 OFFCURVE",
"500 1599.95 CURVE SMOOTH",
"500 1655.18 OFFCURVE",
"455.225 1699.95 OFFCURVE",
"400 1699.95 CURVE SMOOTH"
);
},
{
closed = 1;
nodes = (
"344.775 900 OFFCURVE",
"300 855.176 OFFCURVE",
"300 800 CURVE SMOOTH",
"300 744.727 OFFCURVE",
"344.775 700 OFFCURVE",
"400 700 CURVE SMOOTH",
"455.225 700 OFFCURVE",
"500 744.727 OFFCURVE",
"500 800 CURVE SMOOTH",
"500 855.176 OFFCURVE",
"455.225 900 OFFCURVE",
"400 900 CURVE SMOOTH"
);
},
{
closed = 1;
nodes = (
"600 1700 LINE",
"600 1100 LINE",
"1700 1100 LINE",
"1700 1700 LINE"
);
},
{
closed = 1;
nodes = (
"600 900 LINE",
"600 300 LINE",
"1700 300 LINE",
"1700 900 LINE"
);
}
);
width = 2000;
}
);
unicode = F164;
},
{
glyphname = unif165;
lastChange = "2013-04-14 11:59:17 +0000";
layers = (
{
layerId = "684440DB-903B-4FB4-BFDB-FB0ECFF352DE";
name = Regular;
paths = (
{
closed = 1;
nodes = (
"1500 800 LINE",
"1500 1300 LINE",
"1500 1500 LINE",
"1800 1800 LINE",
"1700 1900 LINE",
"1400 1600 LINE",
"1200 1600 LINE",
"700 1600 LINE",
"700 2000 LINE",
"400 2000 LINE",
"400 1600 LINE",
"0 1600 LINE",
"0 1300 LINE",
"400 1300 LINE",
"400 800 LINE",
"400 500 LINE",
"700 500 LINE",
"1200 500 LINE",
"1200 100 LINE",
"1500 100 LINE",
"1500 500 LINE",
"1900 500 LINE",
"1900 800 LINE"
);
},
{
closed = 1;
nodes = (
"700 900 LINE",
"700 1300 LINE",
"1100 1300 LINE"
);
},
{
closed = 1;
nodes = (
"1200 1200 LINE",
"1200 800 LINE",
"800 800 LINE"
);
}
);
width = 2000;
}
);
unicode = F165;
},
{
glyphname = unif166;
lastChange = "2013-04-14 11:59:17 +0000";
layers = (
{
layerId = "684440DB-903B-4FB4-BFDB-FB0ECFF352DE";
name = Regular;
paths = (
{
closed = 1;
nodes = (
"700 1500 LINE",
"380 1161 LINE",
"118 1500 LINE",
"296 1500 LINE",
"296 1789 OFFCURVE",
"485 2000 OFFCURVE",
"800 2000 CURVE",
"800 1790 LINE",
"590 1790 OFFCURVE",
"505 1674 OFFCURVE",
"505 1500 CURVE"
);
},
{
closed = 1;
nodes = (
"1000 1900 LINE",
"1000 1000 LINE",
"100 1000 LINE",
"100 0 LINE",
"1500 0 LINE",
"1500 500 LINE",
"2000 500 LINE",
"2000 1900 LINE"
);
},
{
closed = 1;
nodes = (
"1300 200 LINE",
"300 200 LINE",
"300 800 LINE",
"1300 800 LINE"
);
},
{
closed = 1;
nodes = (
"1800 700 LINE",
"1500 700 LINE",
"1500 1000 LINE",
"1200 1000 LINE",
"1200 1700 LINE",
"1800 1700 LINE"
);
}
);
width = 2000;
}
);
unicode = F166;
},
{
glyphname = unif167;
lastChange = "2013-04-17 12:23:45 +0000";
layers = (
{
layerId = "684440DB-903B-4FB4-BFDB-FB0ECFF352DE";
name = Regular;
paths = (
{
closed = 1;
nodes = (
"1595 1674 OFFCURVE",
"1510 1790 OFFCURVE",
"1300 1790 CURVE",
"1300 2000 LINE",
"1615 2000 OFFCURVE",
"1804 1789 OFFCURVE",
"1804 1500 CURVE",
"1982 1500 LINE",
"1720 1161 LINE",
"1400 1500 LINE",
"1595 1500 LINE"
);
},
{
closed = 1;
nodes = (
"100 500 LINE",
"600 500 LINE",
"600 0 LINE",
"2000 0 LINE",
"2000 1000 LINE",
"1100 1000 LINE",
"1100 1900 LINE",
"100 1900 LINE"
);
},
{
closed = 1;
nodes = (
"1800 800 LINE",
"1800 200 LINE",
"800 200 LINE",
"800 800 LINE"
);
},
{
closed = 1;
nodes = (
"900 1700 LINE",
"900 1000 LINE",
"600 1000 LINE",
"600 700 LINE",
"300 700 LINE",
"300 1700 LINE"
);
}
);
width = 2000;
}
);
unicode = F167;
},
{
glyphname = unif168;
lastChange = "2013-04-17 12:23:53 +0000";
layers = (
{
layerId = "684440DB-903B-4FB4-BFDB-FB0ECFF352DE";
name = Regular;
paths = (
{
closed = 1;
nodes = (
"1700 1100 LINE",
"1700 1900 LINE",
"300 1900 LINE",
"300 1100 LINE",
"0 1100 LINE",
"0 900 LINE",
"300 900 LINE",
"300 100 LINE",
"1700 100 LINE",
"1700 900 LINE",
"2000 900 LINE",
"2000 1100 LINE"
);
},
{
closed = 1;
nodes = (
"1000 1700 LINE",
"1350 1300 LINE",
"650 1300 LINE"
);
},
{
closed = 1;
nodes = (
"1700 950 LINE",
"300 950 LINE",
"300 1050 LINE",
"1700 1050 LINE"
);
},
{
closed = 1;
nodes = (
"1000 300 LINE",
"650 700 LINE",
"1350 700 LINE"
);
}
);
width = 2000;
}
);
unicode = F168;
},
{
glyphname = unif169;
lastChange = "2013-04-17 12:23:59 +0000";
layers = (
{
layerId = "684440DB-903B-4FB4-BFDB-FB0ECFF352DE";
name = Regular;
paths = (
{
closed = 1;
nodes = (
"1100 1700 LINE",
"1100 2000 LINE",
"900 2000 LINE",
"900 1700 LINE",
"100 1700 LINE",
"100 300 LINE",
"900 300 LINE",
"900 0 LINE",
"1100 0 LINE",
"1100 300 LINE",
"1900 300 LINE",
"1900 1700 LINE"
);
},
{
closed = 1;
nodes = (
"950 300 LINE",
"950 1700 LINE",
"1050 1700 LINE",
"1050 300 LINE"
);
},
{
closed = 1;
nodes = (
"700 650 LINE",
"300 1000 LINE",
"700 1350 LINE"
);
},
{
closed = 1;
nodes = (
"1300 650 LINE",
"1300 1350 LINE",
"1700 1000 LINE"
);
}
);
width = 2000;
}
);
unicode = F169;
},
{
glyphname = unif171;
lastChange = "2013-04-14 11:59:17 +0000";
layers = (
{
layerId = "684440DB-903B-4FB4-BFDB-FB0ECFF352DE";
name = Regular;
paths = (
{
closed = 1;
nodes = (
"1672 1110 OFFCURVE",
"1599 1218 OFFCURVE",
"1508 1308 CURVE SMOOTH",
"1418 1399 OFFCURVE",
"1310 1472 OFFCURVE",
"1190 1523 CURVE SMOOTH",
"1070 1574 OFFCURVE",
"938 1602 OFFCURVE",
"800 1602 CURVE",
"800 1900 LINE",
"200 1450 LINE",
"800 1000 LINE",
"800 1300 LINE SMOOTH",
"897 1300 OFFCURVE",
"989 1280 OFFCURVE",
"1073 1245 CURVE SMOOTH",
"1156 1210 OFFCURVE",
"1232 1158 OFFCURVE",
"1295 1095 CURVE SMOOTH",
"1358 1032 OFFCURVE",
"1410 956 OFFCURVE",
"1445 872 CURVE SMOOTH",
"1480 789 OFFCURVE",
"1500 697 OFFCURVE",
"1500 600 CURVE SMOOTH",
"1500 503 OFFCURVE",
"1480 411 OFFCURVE",
"1445 327 CURVE",
"1723 210 LINE",
"1774 330 OFFCURVE",
"1802 462 OFFCURVE",
"1802 600 CURVE SMOOTH",
"1802 738 OFFCURVE",
"1774 870 OFFCURVE",
"1723 990 CURVE SMOOTH"
);
}
);
width = 2000;
}
);
unicode = F171;
},
{
glyphname = unif172;
lastChange = "2013-04-14 11:59:17 +0000";
layers = (
{
layerId = "684440DB-903B-4FB4-BFDB-FB0ECFF352DE";
name = Regular;
paths = (
{
closed = 1;
nodes = (
"226 870 OFFCURVE",
"198 738 OFFCURVE",
"198 600 CURVE SMOOTH",
"198 462 OFFCURVE",
"226 330 OFFCURVE",
"277 210 CURVE",
"555 327 LINE",
"520 411 OFFCURVE",
"500 503 OFFCURVE",
"500 600 CURVE SMOOTH",
"500 697 OFFCURVE",
"520 789 OFFCURVE",
"555 872 CURVE SMOOTH",
"590 956 OFFCURVE",
"642 1032 OFFCURVE",
"705 1095 CURVE SMOOTH",
"768 1158 OFFCURVE",
"844 1210 OFFCURVE",
"927 1245 CURVE SMOOTH",
"1011 1280 OFFCURVE",
"1103 1300 OFFCURVE",
"1200 1300 CURVE SMOOTH",
"1200 1000 LINE",
"1800 1450 LINE",
"1200 1900 LINE",
"1200 1602 LINE",
"1062 1602 OFFCURVE",
"930 1574 OFFCURVE",
"810 1523 CURVE SMOOTH",
"690 1472 OFFCURVE",
"582 1399 OFFCURVE",
"492 1308 CURVE SMOOTH",
"401 1218 OFFCURVE",
"328 1110 OFFCURVE",
"277 990 CURVE SMOOTH"
);
}
);
width = 2000;
}
);
unicode = F172;
},
{
glyphname = unif173;
lastChange = "2013-04-14 11:59:17 +0000";
layers = (
{
layerId = "684440DB-903B-4FB4-BFDB-FB0ECFF352DE";
name = Regular;
paths = (
{
closed = 1;
nodes = (
"1400 1621 OFFCURVE",
"1221 1800 OFFCURVE",
"1000 1800 CURVE SMOOTH",
"779 1800 OFFCURVE",
"600 1621 OFFCURVE",
"600 1400 CURVE SMOOTH",
"600 1214 OFFCURVE",
"728 1059 OFFCURVE",
"900 1014 CURVE",
"900 200 LINE",
"900 200 OFFCURVE",
"1100 300 OFFCURVE",
"1100 400 CURVE SMOOTH",
"1100 476 OFFCURVE",
"1100 845 OFFCURVE",
"1100 1014 CURVE",
"1272 1059 OFFCURVE",
"1400 1214 OFFCURVE",
"1400 1400 CURVE SMOOTH"
);
},
{
closed = 1;
nodes = (
"800 1555 OFFCURVE",
"845 1600 OFFCURVE",
"900 1600 CURVE SMOOTH",
"955 1600 OFFCURVE",
"1000 1555 OFFCURVE",
"1000 1500 CURVE SMOOTH",
"1000 1445 OFFCURVE",
"955 1400 OFFCURVE",
"900 1400 CURVE SMOOTH",
"845 1400 OFFCURVE",
"800 1445 OFFCURVE",
"800 1500 CURVE SMOOTH"
);
}
);
width = 2000;
}
);
unicode = F173;
},
{
glyphname = unif174;
lastChange = "2013-04-14 11:59:17 +0000";
layers = (
{
layerId = "684440DB-903B-4FB4-BFDB-FB0ECFF352DE";
name = Regular;
paths = (
{
closed = 1;
nodes = (
"467 400 OFFCURVE",
"400 333 OFFCURVE",
"400 250 CURVE SMOOTH",
"400 167 OFFCURVE",
"467 100 OFFCURVE",
"550 100 CURVE SMOOTH",
"633 100 OFFCURVE",
"700 167 OFFCURVE",
"700 250 CURVE SMOOTH",
"700 333 OFFCURVE",
"633 400 OFFCURVE",
"550 400 CURVE SMOOTH"
);
},
{
closed = 1;
nodes = (
"1367 400 OFFCURVE",
"1300 333 OFFCURVE",
"1300 250 CURVE SMOOTH",
"1300 167 OFFCURVE",
"1367 100 OFFCURVE",
"1450 100 CURVE SMOOTH",
"1533 100 OFFCURVE",
"1600 167 OFFCURVE",
"1600 250 CURVE SMOOTH",
"1600 333 OFFCURVE",
"1533 400 OFFCURVE",
"1450 400 CURVE SMOOTH"
);
},
{
closed = 1;
nodes = (
"600 700 LINE",
"600 800 LINE",
"1500 800 LINE",
"1900 1500 LINE",
"600 1500 LINE",
"600 1700 LINE SMOOTH",
"600 1755 OFFCURVE",
"555 1800 OFFCURVE",
"500 1800 CURVE SMOOTH",
"200 1800 LINE SMOOTH",
"145 1800 OFFCURVE",
"100 1755 OFFCURVE",
"100 1700 CURVE SMOOTH",
"100 1645 OFFCURVE",
"145 1600 OFFCURVE",
"200 1600 CURVE SMOOTH",
"400 1600 LINE",
"400 900 LINE",
"400 800 LINE",
"400 600 LINE SMOOTH",
"400 545 OFFCURVE",
"445 500 OFFCURVE",
"500 500 CURVE SMOOTH",
"1500 500 LINE SMOOTH",
"1555 500 OFFCURVE",
"1600 545 OFFCURVE",
"1600 600 CURVE SMOOTH",
"1600 655 OFFCURVE",
"1555 700 OFFCURVE",
"1500 700 CURVE SMOOTH"
);
}
);
width = 2000;
}
);
unicode = F174;
},
{
glyphname = unif175;
lastChange = "2013-09-18 15:47:48 +0000";
layers = (
{
layerId = "684440DB-903B-4FB4-BFDB-FB0ECFF352DE";
name = Regular;
paths = (
{
closed = 1;
nodes = (
"1600 1200 LINE",
"1600 900 LINE",
"800 900 LINE",
"800 1200 LINE"
);
},
{
closed = 1;
nodes = (
"1600 800 LINE",
"1600 500 LINE",
"800 500 LINE",
"800 800 LINE"
);
},
{
closed = 1;
nodes = (
"700 1200 LINE",
"700 1100 LINE",
"400 1100 LINE",
"400 1200 LINE"
);
},
{
closed = 1;
nodes = (
"700 800 LINE",
"700 700 LINE",
"400 700 LINE",
"400 800 LINE"
);
},
{
closed = 1;
nodes = (
"200 1800 LINE SMOOTH",
"145 1800 OFFCURVE",
"100 1755 OFFCURVE",
"100 1700 CURVE SMOOTH",
"100 300 LINE SMOOTH",
"100 245 OFFCURVE",
"145 200 OFFCURVE",
"200 200 CURVE SMOOTH",
"1800 200 LINE SMOOTH",
"1855 200 OFFCURVE",
"1900 245 OFFCURVE",
"1900 300 CURVE SMOOTH",
"1900 1700 LINE SMOOTH",
"1900 1755 OFFCURVE",
"1855 1800 OFFCURVE",
"1800 1800 CURVE SMOOTH"
);
},
{
closed = 1;
nodes = (
"300 400 LINE",
"300 1300 LINE",
"1700 1300 LINE",
"1700 400 LINE"
);
}
);
width = 2000;
}
);
unicode = F175;
},
{
glyphname = unif176;
lastChange = "2013-04-14 11:59:17 +0000";
layers = (
{
layerId = "684440DB-903B-4FB4-BFDB-FB0ECFF352DE";
name = Regular;
paths = (
{
closed = 1;
nodes = (
"1494 1030 OFFCURVE",
"1500 1064 OFFCURVE",
"1500 1100 CURVE SMOOTH",
"1500 1321 OFFCURVE",
"1321 1500 OFFCURVE",
"1100 1500 CURVE SMOOTH",
"945 1500 OFFCURVE",
"811 1411 OFFCURVE",
"745 1281 CURVE",
"716 1293 OFFCURVE",
"684 1300 OFFCURVE",
"650 1300 CURVE SMOOTH",
"512 1300 OFFCURVE",
"400 1188 OFFCURVE",
"400 1050 CURVE SMOOTH",
"400 1031 OFFCURVE",
"402 1013 OFFCURVE",
"406 996 CURVE",
"234 974 OFFCURVE",
"100 829 OFFCURVE",
"100 650 CURVE SMOOTH",
"100 457 OFFCURVE",
"257 300 OFFCURVE",
"450 300 CURVE SMOOTH",
"1450 300 LINE SMOOTH",
"1643 300 OFFCURVE",
"1800 457 OFFCURVE",
"1800 650 CURVE SMOOTH",
"1800 831 OFFCURVE",
"1661 979 OFFCURVE",
"1485 997 CURVE"
);
}
);
width = 2000;
}
);
unicode = F176;
},
{
glyphname = unif177;
lastChange = "2014-03-09 18:31:30 +0000";
layers = (
{
layerId = "684440DB-903B-4FB4-BFDB-FB0ECFF352DE";
name = Regular;
paths = (
{
closed = 1;
nodes = (
"1740 616 OFFCURVE",
"1398 391 OFFCURVE",
"1000 391 CURVE SMOOTH",
"602 391 OFFCURVE",
"260 616 OFFCURVE",
"100 941 CURVE",
"260 1266 OFFCURVE",
"602 1491 OFFCURVE",
"1000 1491 CURVE SMOOTH",
"1398 1491 OFFCURVE",
"1740 1266 OFFCURVE",
"1900 941 CURVE"
);
},
{
closed = 1;
nodes = (
"664 1313 OFFCURVE",
"375 1183 OFFCURVE",
"240 941 CURVE",
"375 699 OFFCURVE",
"664 511 OFFCURVE",
"1000 511 CURVE SMOOTH",
"1336 511 OFFCURVE",
"1625 699 OFFCURVE",
"1760 941 CURVE",
"1625 1183 OFFCURVE",
"1336 1313 OFFCURVE",
"1000 1313 CURVE SMOOTH"
);
},
{
closed = 1;
nodes = (
"1404 777 OFFCURVE",
"1223 596 OFFCURVE",
"1000 596 CURVE SMOOTH",
"777 596 OFFCURVE",
"596 777 OFFCURVE",
"596 1000 CURVE SMOOTH",
"596 1223 OFFCURVE",
"777 1404 OFFCURVE",
"1000 1404 CURVE SMOOTH",
"1223 1404 OFFCURVE",
"1404 1223 OFFCURVE",
"1404 1000 CURVE SMOOTH"
);
},
{
closed = 1;
nodes = (
"1035 1310 OFFCURVE",
"977 1253 OFFCURVE",
"977 1181 CURVE SMOOTH",
"977 1110 OFFCURVE",
"1035 1052 OFFCURVE",
"1106 1052 CURVE SMOOTH",
"1178 1052 OFFCURVE",
"1235 1110 OFFCURVE",
"1235 1181 CURVE SMOOTH",
"1235 1253 OFFCURVE",
"1178 1310 OFFCURVE",
"1106 1310 CURVE SMOOTH"
);
}
);
width = 2000;
}
);
unicode = F177;
},
{
glyphname = unif178;
lastChange = "2013-05-07 18:46:47 +0000";
layers = (
{
layerId = "684440DB-903B-4FB4-BFDB-FB0ECFF352DE";
name = Regular;
paths = (
{
closed = 1;
nodes = (
"1800 245 OFFCURVE",
"1755 200 OFFCURVE",
"1700 200 CURVE SMOOTH",
"300 200 LINE SMOOTH",
"245 200 OFFCURVE",
"200 245 OFFCURVE",
"200 300 CURVE SMOOTH",
"200 1700 LINE SMOOTH",
"200 1755 OFFCURVE",
"245 1800 OFFCURVE",
"300 1800 CURVE SMOOTH",
"1700 1800 LINE SMOOTH",
"1755 1800 OFFCURVE",
"1800 1755 OFFCURVE",
"1800 1700 CURVE SMOOTH",
"1800 300 LINE SMOOTH"
);
},
{
closed = 1;
nodes = (
"1700 1700 LINE",
"1233 1700 OFFCURVE",
"767 1700 OFFCURVE",
"300 1700 CURVE",
"300 300 LINE",
"1700 300 LINE"
);
},
{
closed = 1;
nodes = (
"475 1600 LINE SMOOTH",
"434 1600 OFFCURVE",
"400 1566 OFFCURVE",
"400 1525 CURVE SMOOTH",
"400 475 LINE SMOOTH",
"400 434 OFFCURVE",
"434 400 OFFCURVE",
"475 400 CURVE SMOOTH",
"1525 400 LINE SMOOTH",
"1566 400 OFFCURVE",
"1600 434 OFFCURVE",
"1600 475 CURVE SMOOTH",
"1600 600 LINE",
"1500 600 LINE",
"1500 900 LINE",
"1600 900 LINE",
"1600 1100 LINE",
"1500 1100 LINE",
"1500 1400 LINE",
"1600 1400 LINE",
"1600 1525 LINE SMOOTH",
"1600 1566 OFFCURVE",
"1566 1600 OFFCURVE",
"1525 1600 CURVE SMOOTH"
);
},
{
closed = 1;
nodes = (
"1300 779 OFFCURVE",
"1121 600 OFFCURVE",
"900 600 CURVE SMOOTH",
"679 600 OFFCURVE",
"500 779 OFFCURVE",
"500 1000 CURVE SMOOTH",
"500 1221 OFFCURVE",
"679 1400 OFFCURVE",
"900 1400 CURVE SMOOTH",
"1121 1400 OFFCURVE",
"1300 1221 OFFCURVE",
"1300 1000 CURVE SMOOTH"
);
},
{
closed = 1;
nodes = (
"900 1300 LINE",
"823 1185 LINE",
"751 1154 OFFCURVE",
"700 1083 OFFCURVE",
"700 1000 CURVE SMOOTH",
"700 890 OFFCURVE",
"790 800 OFFCURVE",
"900 800 CURVE SMOOTH",
"1010 800 OFFCURVE",
"1100 890 OFFCURVE",
"1100 1000 CURVE SMOOTH",
"1100 1083 OFFCURVE",
"1049 1154 OFFCURVE",
"977 1185 CURVE"
);
}
);
width = 2000;
}
);
unicode = F178;
},
{
glyphname = unif179;
lastChange = "2013-05-07 18:46:51 +0000";
layers = (
{
layerId = "684440DB-903B-4FB4-BFDB-FB0ECFF352DE";
name = Regular;
paths = (
{
closed = 1;
nodes = (
"999 1797 OFFCURVE",
"651 1797 OFFCURVE",
"436 1582 CURVE SMOOTH",
"222 1368 OFFCURVE",
"222 1019 OFFCURVE",
"436 804 CURVE SMOOTH",
"611 630 OFFCURVE",
"873 597 OFFCURVE",
"1080 706 CURVE",
"1095 691 OFFCURVE",
"1108 676 OFFCURVE",
"1124 656 CURVE SMOOTH",
"1140 635 OFFCURVE",
"1158 610 OFFCURVE",
"1180 578 CURVE SMOOTH",
"1202 547 OFFCURVE",
"1217 525 OFFCURVE",
"1227 512 CURVE SMOOTH",
"1257 471 OFFCURVE",
"1283 440 OFFCURVE",
"1304 419 CURVE SMOOTH",
"1336 387 OFFCURVE",
"1369 359 OFFCURVE",
"1404 335 CURVE SMOOTH",
"1438 310 OFFCURVE",
"1473 290 OFFCURVE",
"1508 276 CURVE SMOOTH",
"1542 261 OFFCURVE",
"1576 255 OFFCURVE",
"1607 257 CURVE SMOOTH",
"1639 259 OFFCURVE",
"1666 271 OFFCURVE",
"1688 293 CURVE SMOOTH",
"1710 315 OFFCURVE",
"1722 342 OFFCURVE",
"1724 374 CURVE SMOOTH",
"1727 406 OFFCURVE",
"1720 439 OFFCURVE",
"1706 474 CURVE SMOOTH",
"1691 509 OFFCURVE",
"1672 543 OFFCURVE",
"1647 578 CURVE SMOOTH",
"1623 613 OFFCURVE",
"1595 646 OFFCURVE",
"1563 678 CURVE SMOOTH",
"1542 699 OFFCURVE",
"1511 725 OFFCURVE",
"1469 756 CURVE SMOOTH",
"1459 764 OFFCURVE",
"1437 779 OFFCURVE",
"1403 803 CURVE SMOOTH",
"1369 826 OFFCURVE",
"1342 846 OFFCURVE",
"1322 862 CURVE SMOOTH",
"1308 872 OFFCURVE",
"1298 883 OFFCURVE",
"1286 893 CURVE",
"1425 1107 OFFCURVE",
"1401 1395 OFFCURVE",
"1214 1582 CURVE SMOOTH"
);
},
{
closed = 1;
nodes = (
"936 809 OFFCURVE",
"714 809 OFFCURVE",
"578 946 CURVE SMOOTH",
"441 1083 OFFCURVE",
"441 1304 OFFCURVE",
"578 1441 CURVE SMOOTH",
"714 1578 OFFCURVE",
"936 1578 OFFCURVE",
"1073 1441 CURVE SMOOTH",
"1209 1304 OFFCURVE",
"1209 1083 OFFCURVE",
"1073 946 CURVE SMOOTH"
);
}
);
width = 2000;
}
);
unicode = F179;
},
{
glyphname = unif180;
lastChange = "2013-05-07 18:47:00 +0000";
layers = (
{
layerId = "684440DB-903B-4FB4-BFDB-FB0ECFF352DE";
name = Regular;
paths = (
{
closed = 1;
nodes = (
"300 1100 LINE",
"300 1700 LINE",
"900 1700 LINE",
"900 1100 LINE"
);
},
{
closed = 1;
nodes = (
"1100 1100 LINE",
"1100 1700 LINE",
"1700 1700 LINE",
"1700 1100 LINE"
);
},
{
closed = 1;
nodes = (
"300 300 LINE",
"300 900 LINE",
"900 900 LINE",
"900 300 LINE"
);
},
{
closed = 1;
nodes = (
"1100 300 LINE",
"1100 900 LINE",
"1700 900 LINE",
"1700 300 LINE"
);
}
);
width = 2000;
}
);
unicode = F180;
},
{
glyphname = unif181;
lastChange = "2013-05-07 18:48:32 +0000";
layers = (
{
layerId = "684440DB-903B-4FB4-BFDB-FB0ECFF352DE";
name = Regular;
paths = (
{
closed = 1;
nodes = (
"1600 700 LINE",
"1800 700 LINE",
"1800 1300 LINE",
"1600 1300 LINE"
);
},
{
closed = 1;
nodes = (
"400 700 LINE",
"400 1300 LINE",
"200 1300 LINE",
"200 700 LINE"
);
},
{
closed = 1;
nodes = (
"1500 600 LINE",
"1500 1400 LINE",
"500 1400 LINE",
"500 600 LINE"
);
},
{
closed = 1;
nodes = (
"1400 1300 LINE",
"1400 700 LINE",
"600 700 LINE",
"600 1300 LINE"
);
},
{
closed = 1;
nodes = (
"700 1100 LINE",
"700 1200 LINE",
"1300 1200 LINE",
"1300 1100 LINE"
);
},
{
closed = 1;
nodes = (
"700 800 LINE",
"700 1000 LINE",
"1300 1000 LINE",
"1300 800 LINE"
);
}
);
width = 2000;
}
);
unicode = F181;
},
{
glyphname = unif182;
lastChange = "2013-05-07 18:48:37 +0000";
layers = (
{
layerId = "684440DB-903B-4FB4-BFDB-FB0ECFF352DE";
name = Regular;
paths = (
{
closed = 1;
nodes = (
"400 300 LINE SMOOTH",
"400 245 OFFCURVE",
"445 200 OFFCURVE",
"500 200 CURVE SMOOTH",
"1400 200 LINE SMOOTH",
"1455 200 OFFCURVE",
"1500 245 OFFCURVE",
"1500 300 CURVE SMOOTH",
"1500 1300 LINE",
"400 1300 LINE"
);
},
{
closed = 1;
nodes = (
"600 400 LINE",
"600 1100 LINE",
"700 1100 LINE",
"700 400 LINE"
);
},
{
closed = 1;
nodes = (
"900 400 LINE",
"900 1100 LINE",
"1000 1100 LINE",
"1000 400 LINE"
);
},
{
closed = 1;
nodes = (
"1200 400 LINE",
"1200 1100 LINE",
"1300 1100 LINE",
"1300 400 LINE"
);
},
{
closed = 1;
nodes = (
"1200 1600 LINE",
"1177 1714 OFFCURVE",
"1071 1800 OFFCURVE",
"950 1800 CURVE SMOOTH",
"829 1800 OFFCURVE",
"723 1714 OFFCURVE",
"700 1600 CURVE",
"400 1600 LINE SMOOTH",
"345 1600 OFFCURVE",
"300 1555 OFFCURVE",
"300 1500 CURVE SMOOTH",
"300 1400 LINE",
"1600 1400 LINE",
"1600 1500 LINE SMOOTH",
"1600 1555 OFFCURVE",
"1555 1600 OFFCURVE",
"1500 1600 CURVE SMOOTH"
);
},
{
closed = 1;
nodes = (
"821 1658 OFFCURVE",
"885 1700 OFFCURVE",
"950 1700 CURVE SMOOTH",
"1015 1700 OFFCURVE",
"1079 1658 OFFCURVE",
"1100 1600 CURVE",
"800 1600 LINE"
);
}
);
width = 2000;
}
);
unicode = F182;
},
{
glyphname = unif183;
lastChange = "2013-05-07 18:48:42 +0000";
layers = (
{
layerId = "684440DB-903B-4FB4-BFDB-FB0ECFF352DE";
name = Regular;
paths = (
{
closed = 1;
nodes = (
"1600 500 LINE",
"400 500 LINE",
"400 400 LINE",
"1600 400 LINE"
);
},
{
closed = 1;
nodes = (
"534 1300 OFFCURVE",
"400 1166 OFFCURVE",
"400 1000 CURVE SMOOTH",
"400 834 OFFCURVE",
"534 700 OFFCURVE",
"700 700 CURVE SMOOTH",
"866 700 OFFCURVE",
"1000 834 OFFCURVE",
"1000 1000 CURVE",
"700 1000 LINE",
"700 1300 LINE"
);
},
{
closed = 1;
nodes = (
"200 200 LINE",
"200 1800 LINE",
"1800 1800 LINE",
"1800 200 LINE"
);
},
{
closed = 1;
nodes = (
"800 1100 LINE",
"1000 1100 LINE",
"1000 1210 OFFCURVE",
"910 1300 OFFCURVE",
"800 1300 CURVE"
);
},
{
closed = 1;
nodes = (
"1600 800 LINE",
"1200 800 LINE",
"1200 700 LINE",
"1600 700 LINE"
);
},
{
closed = 1;
nodes = (
"1600 1100 LINE",
"1200 1100 LINE",
"1200 900 LINE",
"1600 900 LINE"
);
},
{
closed = 1;
nodes = (
"1600 1300 LINE",
"1200 1300 LINE",
"1200 1200 LINE",
"1600 1200 LINE"
);
},
{
closed = 1;
nodes = (
"1600 1600 LINE",
"400 1600 LINE",
"400 1500 LINE",
"1600 1500 LINE"
);
}
);
width = 2000;
}
);
unicode = F183;
},
{
glyphname = unif184;
lastChange = "2013-05-07 18:48:46 +0000";
layers = (
{
layerId = "684440DB-903B-4FB4-BFDB-FB0ECFF352DE";
name = Regular;
paths = (
{
closed = 1;
nodes = (
"513 1600 OFFCURVE",
"200 1287 OFFCURVE",
"200 900 CURVE SMOOTH",
"200 513 OFFCURVE",
"513 200 OFFCURVE",
"900 200 CURVE SMOOTH",
"1287 200 OFFCURVE",
"1600 513 OFFCURVE",
"1600 900 CURVE",
"900 900 LINE",
"900 1600 LINE"
);
},
{
closed = 1;
nodes = (
"1000 1000 LINE",
"1700 1000 LINE",
"1700 1387 OFFCURVE",
"1387 1700 OFFCURVE",
"1000 1700 CURVE"
);
}
);
width = 2000;
}
);
unicode = F184;
},
{
glyphname = unif185;
lastChange = "2013-05-07 18:48:51 +0000";
layers = (
{
layerId = "684440DB-903B-4FB4-BFDB-FB0ECFF352DE";
name = Regular;
paths = (
{
closed = 1;
nodes = (
"800 200 LINE",
"800 1300 LINE",
"1200 1300 LINE",
"1200 200 LINE"
);
},
{
closed = 1;
nodes = (
"1400 200 LINE",
"1400 1800 LINE",
"1800 1800 LINE",
"1800 200 LINE"
);
},
{
closed = 1;
nodes = (
"200 200 LINE",
"200 1000 LINE",
"600 1000 LINE",
"600 200 LINE"
);
}
);
width = 2000;
}
);
unicode = F185;
},
{
glyphname = unif200;
lastChange = "2013-05-05 14:50:43 +0000";
layers = (
{
layerId = "684440DB-903B-4FB4-BFDB-FB0ECFF352DE";
name = Regular;
paths = (
{
closed = 1;
nodes = (
"978 1600 LINE SMOOTH",
"1150 1600 OFFCURVE",
"1275 1574 OFFCURVE",
"1352 1521 CURVE SMOOTH",
"1430 1469 OFFCURVE",
"1469 1385 OFFCURVE",
"1469 1271 CURVE SMOOTH",
"1469 1193 OFFCURVE",
"1452 1130 OFFCURVE",
"1418 1080 CURVE SMOOTH",
"1384 1030 OFFCURVE",
"1339 1000 OFFCURVE",
"1282 990 CURVE",
"1282 981 LINE",
"1359 963 OFFCURVE",
"1415 928 OFFCURVE",
"1449 878 CURVE SMOOTH",
"1483 828 OFFCURVE",
"1500 761 OFFCURVE",
"1500 677 CURVE SMOOTH",
"1500 558 OFFCURVE",
"1460 466 OFFCURVE",
"1380 400 CURVE SMOOTH",
"1300 333 OFFCURVE",
"1191 300 OFFCURVE",
"1054 300 CURVE SMOOTH",
"600 300 LINE",
"600 1600 LINE"
);
},
{
closed = 1;
nodes = (
"1007 1085 LINE SMOOTH",
"1076 1085 OFFCURVE",
"1127 1097 OFFCURVE",
"1158 1120 CURVE SMOOTH",
"1189 1143 OFFCURVE",
"1205 1181 OFFCURVE",
"1205 1235 CURVE SMOOTH",
"1205 1284 OFFCURVE",
"1188 1320 OFFCURVE",
"1154 1342 CURVE SMOOTH",
"1120 1363 OFFCURVE",
"1066 1374 OFFCURVE",
"993 1374 CURVE SMOOTH",
"857 1374 LINE",
"857 1085 LINE"
);
},
{
closed = 1;
nodes = (
"857 528 LINE",
"1025 528 LINE SMOOTH",
"1096 528 OFFCURVE",
"1148 542 OFFCURVE",
"1182 571 CURVE SMOOTH",
"1216 600 OFFCURVE",
"1233 645 OFFCURVE",
"1233 705 CURVE SMOOTH",
"1233 813 OFFCURVE",
"1161 866 OFFCURVE",
"1017 866 CURVE SMOOTH",
"857 866 LINE"
);
}
);
width = 2000;
}
);
unicode = F200;
},
{
glyphname = unif201;
lastChange = "2013-05-05 14:50:43 +0000";
layers = (
{
layerId = "684440DB-903B-4FB4-BFDB-FB0ECFF352DE";
name = Regular;
paths = (
{
closed = 1;
nodes = (
"1540 1600 LINE",
"865 1600 LINE",
"803 1400 LINE",
"1016 1400 LINE",
"736 500 LINE",
"522 500 LINE",
"460 300 LINE",
"1135 300 LINE",
"1197 500 LINE",
"985 500 LINE",
"1265 1400 LINE",
"1478 1400 LINE"
);
}
);
width = 2000;
}
);
unicode = F201;
},
{
glyphname = unif203;
lastChange = "2013-05-05 14:50:43 +0000";
layers = (
{
layerId = "684440DB-903B-4FB4-BFDB-FB0ECFF352DE";
name = Regular;
paths = (
{
closed = 1;
nodes = (
"632 1300 OFFCURVE",
"700 1367 OFFCURVE",
"700 1450 CURVE SMOOTH",
"700 1532 OFFCURVE",
"632 1600 OFFCURVE",
"550 1600 CURVE SMOOTH",
"467 1600 OFFCURVE",
"400 1532 OFFCURVE",
"400 1450 CURVE SMOOTH",
"400 1367 OFFCURVE",
"467 1300 OFFCURVE",
"550 1300 CURVE SMOOTH"
);
},
{
closed = 1;
nodes = (
"632 800 OFFCURVE",
"700 867 OFFCURVE",
"700 950 CURVE SMOOTH",
"700 1032 OFFCURVE",
"632 1100 OFFCURVE",
"550 1100 CURVE SMOOTH",
"467 1100 OFFCURVE",
"400 1032 OFFCURVE",
"400 950 CURVE SMOOTH",
"400 867 OFFCURVE",
"467 800 OFFCURVE",
"550 800 CURVE SMOOTH"
);
},
{
closed = 1;
nodes = (
"800 1400 LINE",
"1700 1400 LINE",
"1700 1500 LINE",
"800 1500 LINE"
);
},
{
closed = 1;
nodes = (
"800 900 LINE",
"1700 900 LINE",
"1700 1000 LINE",
"800 1000 LINE"
);
},
{
closed = 1;
nodes = (
"632 300 OFFCURVE",
"700 367 OFFCURVE",
"700 450 CURVE SMOOTH",
"700 532 OFFCURVE",
"632 600 OFFCURVE",
"550 600 CURVE SMOOTH",
"467 600 OFFCURVE",
"400 532 OFFCURVE",
"400 450 CURVE SMOOTH",
"400 367 OFFCURVE",
"467 300 OFFCURVE",
"550 300 CURVE SMOOTH"
);
},
{
closed = 1;
nodes = (
"800 400 LINE",
"1700 400 LINE",
"1700 500 LINE",
"800 500 LINE"
);
}
);
width = 2000;
}
);
unicode = F203;
},
{
glyphname = unif204;
lastChange = "2013-05-05 14:50:43 +0000";
layers = (
{
layerId = "684440DB-903B-4FB4-BFDB-FB0ECFF352DE";
name = Regular;
paths = (
{
closed = 1;
nodes = (
"800 1400 LINE",
"1700 1400 LINE",
"1700 1500 LINE",
"800 1500 LINE"
);
},
{
closed = 1;
nodes = (
"800 900 LINE",
"1700 900 LINE",
"1700 1000 LINE",
"800 1000 LINE"
);
},
{
closed = 1;
nodes = (
"800 400 LINE",
"1700 400 LINE",
"1700 500 LINE",
"800 500 LINE"
);
},
{
closed = 1;
nodes = (
"516 1300 LINE",
"516 1531 LINE",
"516 1569 LINE",
"518 1611 LINE",
"504 1597 OFFCURVE",
"494 1588 OFFCURVE",
"488 1583 CURVE SMOOTH",
"442 1546 LINE",
"402 1597 LINE",
"531 1700 LINE",
"600 1700 LINE",
"600 1300 LINE"
);
},
{
closed = 1;
nodes = (
"401 805 LINE",
"401 863 LINE",
"500 963 LINE SMOOTH",
"529 993 OFFCURVE",
"549 1014 OFFCURVE",
"558 1025 CURVE SMOOTH",
"567 1037 OFFCURVE",
"573 1048 OFFCURVE",
"577 1058 CURVE SMOOTH",
"581 1068 OFFCURVE",
"583 1078 OFFCURVE",
"583 1088 CURVE SMOOTH",
"583 1104 OFFCURVE",
"579 1116 OFFCURVE",
"570 1124 CURVE SMOOTH",
"561 1132 OFFCURVE",
"549 1135 OFFCURVE",
"535 1135 CURVE SMOOTH",
"520 1135 OFFCURVE",
"505 1132 OFFCURVE",
"490 1125 CURVE SMOOTH",
"476 1118 OFFCURVE",
"461 1108 OFFCURVE",
"445 1095 CURVE",
"400 1149 LINE",
"419 1165 OFFCURVE",
"436 1177 OFFCURVE",
"448 1184 CURVE SMOOTH",
"461 1190 OFFCURVE",
"475 1196 OFFCURVE",
"490 1199 CURVE SMOOTH",
"505 1203 OFFCURVE",
"522 1205 OFFCURVE",
"541 1205 CURVE SMOOTH",
"565 1205 OFFCURVE",
"587 1200 OFFCURVE",
"606 1191 CURVE SMOOTH",
"625 1182 OFFCURVE",
"640 1170 OFFCURVE",
"650 1154 CURVE SMOOTH",
"661 1138 OFFCURVE",
"666 1119 OFFCURVE",
"666 1098 CURVE SMOOTH",
"666 1080 OFFCURVE",
"663 1063 OFFCURVE",
"656 1047 CURVE SMOOTH",
"650 1031 OFFCURVE",
"640 1015 OFFCURVE",
"626 998 CURVE SMOOTH",
"613 981 OFFCURVE",
"589 958 OFFCURVE",
"556 927 CURVE SMOOTH",
"505 879 LINE",
"505 875 LINE",
"677 875 LINE",
"677 805 LINE"
);
},
{
closed = 1;
nodes = (
"671 579 OFFCURVE",
"663 558 OFFCURVE",
"648 540 CURVE SMOOTH",
"632 522 OFFCURVE",
"610 509 OFFCURVE",
"583 503 CURVE",
"583 501 LINE",
"615 497 OFFCURVE",
"640 487 OFFCURVE",
"657 471 CURVE SMOOTH",
"674 455 OFFCURVE",
"683 434 OFFCURVE",
"683 407 CURVE SMOOTH",
"683 367 OFFCURVE",
"669 337 OFFCURVE",
"640 315 CURVE SMOOTH",
"612 293 OFFCURVE",
"571 282 OFFCURVE",
"518 282 CURVE SMOOTH",
"474 282 OFFCURVE",
"434 289 OFFCURVE",
"400 304 CURVE",
"400 378 LINE",
"416 370 OFFCURVE",
"433 363 OFFCURVE",
"452 358 CURVE SMOOTH",
"471 353 OFFCURVE",
"490 350 OFFCURVE",
"509 350 CURVE SMOOTH",
"537 350 OFFCURVE",
"558 355 OFFCURVE",
"572 365 CURVE SMOOTH",
"585 375 OFFCURVE",
"592 390 OFFCURVE",
"592 412 CURVE SMOOTH",
"592 431 OFFCURVE",
"584 445 OFFCURVE",
"569 453 CURVE SMOOTH",
"553 461 OFFCURVE",
"528 465 OFFCURVE",
"494 465 CURVE SMOOTH",
"463 465 LINE",
"463 531 LINE",
"494 531 LINE SMOOTH",
"526 531 OFFCURVE",
"549 535 OFFCURVE",
"564 543 CURVE SMOOTH",
"579 551 OFFCURVE",
"586 566 OFFCURVE",
"586 586 CURVE SMOOTH",
"586 617 OFFCURVE",
"566 632 OFFCURVE",
"528 632 CURVE SMOOTH",
"514 632 OFFCURVE",
"501 630 OFFCURVE",
"487 625 CURVE SMOOTH",
"473 621 OFFCURVE",
"458 613 OFFCURVE",
"441 602 CURVE",
"401 662 LINE",
"438 689 OFFCURVE",
"482 702 OFFCURVE",
"534 702 CURVE SMOOTH",
"576 702 OFFCURVE",
"610 693 OFFCURVE",
"634 676 CURVE SMOOTH",
"659 659 OFFCURVE",
"671 635 OFFCURVE",
"671 605 CURVE SMOOTH"
);
}
);
width = 2000;
}
);
unicode = F204;
},
{
glyphname = unif205;
lastChange = "2013-05-05 14:52:10 +0000";
layers = (
{
layerId = "684440DB-903B-4FB4-BFDB-FB0ECFF352DE";
name = Regular;
paths = (
{
closed = 1;
nodes = (
"1754 593 OFFCURVE",
"1727 525 OFFCURVE",
"1671 475 CURVE SMOOTH",
"1615 425 OFFCURVE",
"1544 400 OFFCURVE",
"1459 400 CURVE SMOOTH",
"1264 400 OFFCURVE",
"1127 557 OFFCURVE",
"1098 795 CURVE SMOOTH",
"1052 1172 OFFCURVE",
"1320 1470 OFFCURVE",
"1593 1600 CURVE",
"1732 1405 LINE",
"1551 1315 OFFCURVE",
"1411 1105 OFFCURVE",
"1440 940 CURVE",
"1510 956 OFFCURVE",
"1630 946 OFFCURVE",
"1693 868 CURVE SMOOTH",
"1734 816 OFFCURVE",
"1754 752 OFFCURVE",
"1754 678 CURVE SMOOTH"
);
},
{
closed = 1;
nodes = (
"949 593 OFFCURVE",
"922 525 OFFCURVE",
"866 475 CURVE SMOOTH",
"810 425 OFFCURVE",
"739 400 OFFCURVE",
"654 400 CURVE SMOOTH",
"459 400 OFFCURVE",
"321 557 OFFCURVE",
"292 795 CURVE SMOOTH",
"246 1172 OFFCURVE",
"515 1470 OFFCURVE",
"788 1600 CURVE",
"927 1405 LINE",
"746 1315 OFFCURVE",
"606 1105 OFFCURVE",
"635 940 CURVE",
"705 956 OFFCURVE",
"826 946 OFFCURVE",
"888 868 CURVE SMOOTH",
"929 816 OFFCURVE",
"949 752 OFFCURVE",
"949 678 CURVE SMOOTH"
);
}
);
width = 2000;
}
);
unicode = F205;
},
{
glyphname = unif206;
lastChange = "2013-05-05 14:53:15 +0000";
layers = (
{
layerId = "684440DB-903B-4FB4-BFDB-FB0ECFF352DE";
name = Regular;
paths = (
{
closed = 1;
nodes = (
"300 1500 LINE",
"300 1700 LINE",
"1200 1700 LINE",
"1200 1500 LINE"
);
},
{
closed = 1;
nodes = (
"300 1100 LINE",
"300 1300 LINE",
"1700 1300 LINE",
"1700 1100 LINE"
);
},
{
closed = 1;
nodes = (
"300 700 LINE",
"300 900 LINE",
"1200 900 LINE",
"1200 700 LINE"
);
},
{
closed = 1;
nodes = (
"300 300 LINE",
"300 500 LINE",
"1700 500 LINE",
"1700 300 LINE"
);
}
);
width = 2000;
}
);
unicode = F206;
},
{
glyphname = unif207;
lastChange = "2013-05-05 14:55:48 +0000";
layers = (
{
layerId = "684440DB-903B-4FB4-BFDB-FB0ECFF352DE";
name = Regular;
paths = (
{
closed = 1;
nodes = (
"600 1500 LINE",
"600 1700 LINE",
"1400 1700 LINE",
"1400 1500 LINE"
);
},
{
closed = 1;
nodes = (
"300 1100 LINE",
"300 1300 LINE",
"1700 1300 LINE",
"1700 1100 LINE"
);
},
{
closed = 1;
nodes = (
"600 700 LINE",
"600 900 LINE",
"1400 900 LINE",
"1400 700 LINE"
);
},
{
closed = 1;
nodes = (
"300 300 LINE",
"300 500 LINE",
"1700 500 LINE",
"1700 300 LINE"
);
}
);
width = 2000;
}
);
unicode = F207;
},
{
glyphname = unif208;
lastChange = "2013-05-05 14:56:30 +0000";
layers = (
{
layerId = "684440DB-903B-4FB4-BFDB-FB0ECFF352DE";
name = Regular;
paths = (
{
closed = 1;
nodes = (
"800 1500 LINE",
"800 1700 LINE",
"1700 1700 LINE",
"1700 1500 LINE"
);
},
{
closed = 1;
nodes = (
"300 1100 LINE",
"300 1300 LINE",
"1700 1300 LINE",
"1700 1100 LINE"
);
},
{
closed = 1;
nodes = (
"800 700 LINE",
"800 900 LINE",
"1700 900 LINE",
"1700 700 LINE"
);
},
{
closed = 1;
nodes = (
"300 300 LINE",
"300 500 LINE",
"1700 500 LINE",
"1700 300 LINE"
);
}
);
width = 2000;
}
);
unicode = F208;
},
{
glyphname = unif209;
lastChange = "2013-05-05 14:57:21 +0000";
layers = (
{
layerId = "684440DB-903B-4FB4-BFDB-FB0ECFF352DE";
name = Regular;
paths = (
{
closed = 1;
nodes = (
"299.951 1300.05 LINE",
"300.049 1699.95 LINE",
"1700.1 1699.95 LINE",
"1700 1300.05 LINE"
);
},
{
closed = 1;
nodes = (
"299.951 900 LINE",
"299.951 1100.05 LINE",
"599.951 1100.05 LINE",
"599.951 900 LINE"
);
},
{
closed = 1;
nodes = (
"799.951 900 LINE",
"799.951 1100.05 LINE",
"1200 1100.05 LINE",
"1200 900 LINE"
);
},
{
closed = 1;
nodes = (
"1400 900 LINE",
"1400 1100.05 LINE",
"1700 1100.05 LINE",
"1700 900 LINE"
);
},
{
closed = 1;
nodes = (
"300.049 299.902 LINE",
"299.951 700 LINE",
"1700 700 LINE",
"1700.1 299.902 LINE"
);
}
);
width = 2000;
}
);
unicode = F209;
},
{
glyphname = unif210;
lastChange = "2013-05-05 14:58:12 +0000";
layers = (
{
layerId = "684440DB-903B-4FB4-BFDB-FB0ECFF352DE";
name = Regular;
paths = (
{
closed = 1;
nodes = (
"589.941 1365.92 LINE",
"361.426 1365.92 LINE",
"303.027 1200 LINE",
"200 1200 LINE",
"423.535 1800 LINE",
"529.883 1800 LINE",
"753.516 1200 LINE",
"649.609 1200 LINE"
);
},
{
closed = 1;
nodes = (
"508.203 1612.84 LINE SMOOTH",
"504.102 1623.68 OFFCURVE",
"498.438 1640.82 OFFCURVE",
"491.26 1664.36 CURVE SMOOTH",
"484.033 1687.74 OFFCURVE",
"479.053 1704.93 OFFCURVE",
"476.318 1715.82 CURVE",
"468.994 1682.28 OFFCURVE",
"458.154 1645.7 OFFCURVE",
"444.043 1605.81 CURVE SMOOTH",
"390.088 1450.15 LINE",
"564.209 1450.15 LINE"
);
},
{
closed = 1;
nodes = (
"978.125 1800 LINE SMOOTH",
"1060.79 1800 OFFCURVE",
"1120.61 1787.94 OFFCURVE",
"1157.32 1763.87 CURVE SMOOTH",
"1194.24 1739.79 OFFCURVE",
"1212.5 1701.76 OFFCURVE",
"1212.5 1649.76 CURVE SMOOTH",
"1212.5 1614.75 OFFCURVE",
"1203.42 1585.64 OFFCURVE",
"1185.45 1562.35 CURVE SMOOTH",
"1167.29 1539.11 OFFCURVE",
"1141.5 1524.41 OFFCURVE",
"1107.42 1518.46 CURVE",
"1107.42 1514.36 LINE",
"1149.71 1506.4 OFFCURVE",
"1180.76 1490.72 OFFCURVE",
"1200.39 1467.33 CURVE SMOOTH",
"1220.31 1443.95 OFFCURVE",
"1230.18 1412.3 OFFCURVE",
"1230.18 1372.36 CURVE SMOOTH",
"1230.18 1318.41 OFFCURVE",
"1211.52 1276.27 OFFCURVE",
"1173.73 1245.75 CURVE SMOOTH",
"1136.23 1215.19 OFFCURVE",
"1083.79 1200 OFFCURVE",
"1016.7 1200 CURVE SMOOTH",
"800 1200 LINE",
"800 1800 LINE"
);
},
{
closed = 1;
nodes = (
"992.529 1552.15 LINE SMOOTH",
"1033.54 1552.15 OFFCURVE",
"1063.53 1558.59 OFFCURVE",
"1082.42 1571.63 CURVE SMOOTH",
"1101.37 1584.57 OFFCURVE",
"1110.64 1606.69 OFFCURVE",
"1110.64 1637.94 CURVE SMOOTH",
"1110.64 1666.02 OFFCURVE",
"1100.59 1686.52 OFFCURVE",
"1080.18 1699.02 CURVE SMOOTH",
"1059.81 1711.57 OFFCURVE",
"1027.39 1717.92 OFFCURVE",
"983.106 1717.92 CURVE SMOOTH",
"898.144 1717.92 LINE",
"898.144 1552.15 LINE"
);
},
{
closed = 1;
nodes = (
"898.144 1282.47 LINE",
"1002.39 1282.47 LINE SMOOTH",
"1043.46 1282.47 OFFCURVE",
"1074.41 1290.28 OFFCURVE",
"1095.36 1306.05 CURVE SMOOTH",
"1116.31 1321.83 OFFCURVE",
"1126.66 1346.58 OFFCURVE",
"1126.66 1380.57 CURVE SMOOTH",
"1126.66 1411.72 OFFCURVE",
"1116.02 1434.91 OFFCURVE",
"1094.78 1449.9 CURVE SMOOTH",
"1073.39 1464.99 OFFCURVE",
"1041.02 1472.51 OFFCURVE",
"997.412 1472.51 CURVE SMOOTH",
"898.144 1472.51 LINE"
);
},
{
closed = 1;
nodes = (
"1527.73 1723.93 OFFCURVE",
"1483.59 1704 OFFCURVE",
"1451.46 1664.16 CURVE SMOOTH",
"1419.04 1624.32 OFFCURVE",
"1403.12 1569.34 OFFCURVE",
"1403.12 1499.22 CURVE SMOOTH",
"1403.12 1425.78 OFFCURVE",
"1418.46 1370.31 OFFCURVE",
"1449.61 1332.62 CURVE SMOOTH",
"1480.47 1295.02 OFFCURVE",
"1525.29 1276.17 OFFCURVE",
"1583.98 1276.17 CURVE SMOOTH",
"1609.38 1276.17 OFFCURVE",
"1633.98 1278.71 OFFCURVE",
"1657.71 1283.69 CURVE SMOOTH",
"1681.45 1288.77 OFFCURVE",
"1705.96 1295.21 OFFCURVE",
"1731.74 1303.12 CURVE",
"1731.74 1219.24 LINE",
"1684.67 1201.56 OFFCURVE",
"1631.54 1192.68 OFFCURVE",
"1572.17 1192.68 CURVE SMOOTH",
"1484.57 1192.68 OFFCURVE",
"1417.29 1219.24 OFFCURVE",
"1370.41 1272.27 CURVE SMOOTH",
"1323.34 1325.29 OFFCURVE",
"1300 1401.27 OFFCURVE",
"1300 1500 CURVE SMOOTH",
"1300 1562.21 OFFCURVE",
"1311.23 1616.7 OFFCURVE",
"1334.18 1663.38 CURVE SMOOTH",
"1356.84 1709.96 OFFCURVE",
"1389.84 1745.8 OFFCURVE",
"1433.01 1770.61 CURVE SMOOTH",
"1475.98 1795.41 OFFCURVE",
"1526.76 1807.81 OFFCURVE",
"1584.86 1807.81 CURVE SMOOTH",
"1645.8 1807.81 OFFCURVE",
"1702.34 1795.02 OFFCURVE",
"1754.3 1769.34 CURVE",
"1719.14 1687.89 LINE",
"1698.83 1697.46 OFFCURVE",
"1677.54 1705.86 OFFCURVE",
"1655.08 1713.09 CURVE SMOOTH",
"1632.52 1720.31 OFFCURVE",
"1608.79 1723.93 OFFCURVE",
"1583.98 1723.93 CURVE SMOOTH"
);
},
{
closed = 1;
nodes = (
"500 800 LINE",
"900 500 LINE",
"1700 1099.95 LINE",
"1800 999.951 LINE",
"900 200 LINE",
"400 700 LINE"
);
}
);
width = 2000;
}
);
unicode = F210;
},
{
glyphname = unif211;
lastChange = "2013-05-05 14:58:55 +0000";
layers = (
{
layerId = "684440DB-903B-4FB4-BFDB-FB0ECFF352DE";
name = Regular;
paths = (
{
closed = 1;
nodes = (
"700 800 LINE",
"700 1199.95 LINE",
"1300 1199.95 LINE",
"1300 800 LINE"
);
},
{
closed = 1;
nodes = (
"200 1700 LINE",
"600 1700 LINE",
"200 1300 LINE"
);
},
{
closed = 1;
nodes = (
"700 1199.95 LINE",
"200 1499.95 LINE",
"400 1699.95 LINE"
);
},
{
closed = 1;
nodes = (
"1800 1700 LINE",
"1400 1700 LINE",
"1800 1300 LINE"
);
},
{
closed = 1;
nodes = (
"1300 1199.95 LINE",
"1800 1499.95 LINE",
"1600 1699.95 LINE"
);
},
{
closed = 1;
nodes = (
"1800 300 LINE",
"1400 300 LINE",
"1800 700 LINE"
);
},
{
closed = 1;
nodes = (
"1300 800 LINE",
"1800 500 LINE",
"1600 300 LINE"
);
},
{
closed = 1;
nodes = (
"200 300 LINE",
"600 300 LINE",
"200 700 LINE"
);
},
{
closed = 1;
nodes = (
"700 800 LINE",
"200 500 LINE",
"400 300 LINE"
);
}
);
width = 2000;
}
);
unicode = F211;
},
{
glyphname = unif212;
lastChange = "2013-05-05 15:10:43 +0000";
layers = (
{
layerId = "684440DB-903B-4FB4-BFDB-FB0ECFF352DE";
name = Regular;
paths = (
{
closed = 1;
nodes = (
"200.049 1299.95 LINE",
"200.049 1699.95 LINE",
"1800 1699.95 LINE",
"1800 1299.95 LINE"
);
},
{
closed = 1;
nodes = (
"300.049 1599.95 LINE",
"300.049 1399.95 LINE",
"500.049 1399.95 LINE",
"500.049 1599.95 LINE"
);
},
{
closed = 1;
nodes = (
"600 1599.95 LINE",
"600 1399.95 LINE",
"800 1399.95 LINE",
"800 1599.95 LINE"
);
},
{
closed = 1;
nodes = (
"899.951 1599.95 LINE",
"899.951 1399.95 LINE",
"1099.95 1399.95 LINE",
"1099.95 1599.95 LINE"
);
},
{
closed = 1;
nodes = (
"1200 1599.95 LINE",
"1200 1399.95 LINE",
"1400 1399.95 LINE",
"1400 1599.95 LINE"
);
},
{
closed = 1;
nodes = (
"1500 1599.95 LINE",
"1500 1399.95 LINE",
"1700 1399.95 LINE",
"1700 1599.95 LINE"
);
},
{
closed = 1;
nodes = (
"100 1800 LINE",
"100 1200 LINE",
"1900 1200 LINE",
"1900 1800 LINE"
);
},
{
closed = 1;
nodes = (
"200.049 300 LINE",
"200.049 999.951 LINE",
"1800 999.951 LINE",
"1800 300 LINE"
);
},
{
closed = 1;
nodes = (
"300.049 900 LINE",
"300.049 700 LINE",
"500.049 700 LINE",
"500.049 900 LINE"
);
},
{
closed = 1;
nodes = (
"600 900 LINE",
"600 700 LINE",
"800 700 LINE",
"800 900 LINE"
);
},
{
closed = 1;
nodes = (
"899.951 900 LINE",
"899.951 700 LINE",
"1099.95 700 LINE",
"1099.95 900 LINE"
);
},
{
closed = 1;
nodes = (
"1200 900 LINE",
"1200 700 LINE",
"1700 700 LINE",
"1700 900 LINE"
);
},
{
closed = 1;
nodes = (
"300.049 600 LINE",
"300.049 400 LINE",
"1100 400 LINE",
"1100 600 LINE"
);
},
{
closed = 1;
nodes = (
"1200 600 LINE",
"1200 400 LINE",
"1400 400 LINE",
"1400 600 LINE"
);
},
{
closed = 1;
nodes = (
"1500 600 LINE",
"1500 400 LINE",
"1700 400 LINE",
"1700 600 LINE"
);
},
{
closed = 1;
nodes = (
"100 1100 LINE",
"100 200 LINE",
"1900 200 LINE",
"1900 1100 LINE"
);
}
);
width = 2000;
}
);
unicode = F212;
},
{
glyphname = unif213;
lastChange = "2013-05-05 16:26:14 +0000";
layers = (
{
layerId = "684440DB-903B-4FB4-BFDB-FB0ECFF352DE";
name = Regular;
paths = (
{
closed = 1;
nodes = (
"1400 1500 OFFCURVE",
"1400 1102 OFFCURVE",
"1400 909 CURVE SMOOTH",
"1400 717 OFFCURVE",
"1297 459 OFFCURVE",
"948 459 CURVE SMOOTH",
"600 459 OFFCURVE",
"500 722 OFFCURVE",
"500 913 CURVE SMOOTH",
"500 1500 LINE",
"700 1500 LINE",
"700 927 LINE SMOOTH",
"700 731 OFFCURVE",
"823 631 OFFCURVE",
"955 631 CURVE SMOOTH",
"1088 631 OFFCURVE",
"1200 730 OFFCURVE",
"1200 929 CURVE SMOOTH",
"1200 1500 LINE",
"1400 1500 LINE"
);
},
{
closed = 1;
nodes = (
"500 200 LINE",
"500 400 LINE",
"1400 400 LINE",
"1400 200 LINE"
);
}
);
width = 2000;
}
);
unicode = F213;
},
{
glyphname = unif214;
lastChange = "2013-05-05 19:12:09 +0000";
layers = (
{
layerId = "684440DB-903B-4FB4-BFDB-FB0ECFF352DE";
name = Regular;
paths = (
{
closed = 1;
nodes = (
"200 1500 LINE",
"1800 1500 LINE",
"1800 1700 LINE",
"200 1700 LINE"
);
},
{
closed = 1;
nodes = (
"200 1100 LINE",
"1800 1100 LINE",
"1800 1300 LINE",
"200 1300 LINE"
);
},
{
closed = 1;
nodes = (
"200 700 LINE",
"1800 700 LINE",
"1800 900 LINE",
"200 900 LINE"
);
},
{
closed = 1;
nodes = (
"200 300 LINE",
"1800 300 LINE",
"1800 500 LINE",
"200 500 LINE"
);
}
);
width = 2000;
}
);
unicode = F214;
},
{
glyphname = unif215;
lastChange = "2013-05-05 19:17:35 +0000";
layers = (
{
layerId = "684440DB-903B-4FB4-BFDB-FB0ECFF352DE";
name = Regular;
paths = (
{
closed = 1;
nodes = (
"1213 800 LINE",
"795 800 LINE",
"688 500 LINE",
"500 500 LINE",
"900 1600 LINE",
"1100 1600 LINE",
"1513 500 LINE",
"1323 500 LINE"
);
},
{
closed = 1;
nodes = (
"1000 1440 LINE",
"851 954 LINE",
"1170 954 LINE"
);
}
);
width = 2000;
}
);
unicode = F215;
},
{
glyphname = unif216;
lastChange = "2013-05-06 22:43:56 +0000";
layers = (
{
layerId = "684440DB-903B-4FB4-BFDB-FB0ECFF352DE";
name = Regular;
paths = (
{
closed = 1;
nodes = (
"764 1800 LINE",
"500 1500 LINE",
"500 1400 LINE",
"1500 1400 LINE",
"1500 1500 LINE",
"1238 1800 LINE"
);
},
{
closed = 1;
nodes = (
"945 1500 OFFCURVE",
"900 1545 OFFCURVE",
"900 1600 CURVE SMOOTH",
"900 1655 OFFCURVE",
"945 1700 OFFCURVE",
"1000 1700 CURVE SMOOTH",
"1055 1700 OFFCURVE",
"1100 1655 OFFCURVE",
"1100 1600 CURVE SMOOTH",
"1100 1545 OFFCURVE",
"1055 1500 OFFCURVE",
"1000 1500 CURVE SMOOTH"
);
},
{
closed = 1;
nodes = (
"1800 300 LINE SMOOTH",
"1800 245 OFFCURVE",
"1755 200 OFFCURVE",
"1700 200 CURVE SMOOTH",
"300 200 LINE SMOOTH",
"245 200 OFFCURVE",
"200 245 OFFCURVE",
"200 300 CURVE SMOOTH",
"200 1500 LINE SMOOTH",
"200 1555 OFFCURVE",
"245 1600 OFFCURVE",
"300 1600 CURVE SMOOTH",
"455 1600 LINE",
"400 1538 LINE",
"400 1300 LINE",
"1600 1300 LINE",
"1600 1537 LINE",
"1546 1600 LINE",
"1700 1600 LINE SMOOTH",
"1755 1600 OFFCURVE",
"1800 1555 OFFCURVE",
"1800 1500 CURVE SMOOTH"
);
},
{
closed = 1;
nodes = (
"1300 1100 LINE",
"1200 600 LINE",
"1100 1100 LINE",
"900 1100 LINE",
"800 600 LINE",
"700 1100 LINE",
"500 1100 LINE",
"692 400 LINE",
"900 400 LINE",
"1000 900 LINE",
"1100 400 LINE",
"1300 400 LINE",
"1500 1100 LINE"
);
}
);
width = 2000;
}
);
unicode = F216;
},
{
glyphname = unif217;
lastChange = "2013-05-06 22:44:16 +0000";
layers = (
{
layerId = "684440DB-903B-4FB4-BFDB-FB0ECFF352DE";
name = Regular;
paths = (
{
closed = 1;
nodes = (
"764 1800 LINE",
"500 1500 LINE",
"500 1400 LINE",
"1500 1400 LINE",
"1500 1500 LINE",
"1238 1800 LINE"
);
},
{
closed = 1;
nodes = (
"945 1500 OFFCURVE",
"900 1544 OFFCURVE",
"900 1600 CURVE SMOOTH",
"900 1655 OFFCURVE",
"945 1700 OFFCURVE",
"1000 1700 CURVE SMOOTH",
"1055 1700 OFFCURVE",
"1100 1655 OFFCURVE",
"1100 1600 CURVE SMOOTH",
"1100 1544 OFFCURVE",
"1055 1500 OFFCURVE",
"1000 1500 CURVE SMOOTH"
);
},
{
closed = 1;
nodes = (
"1545 1600 LINE",
"1600 1537 LINE",
"1600 1300 LINE",
"400 1300 LINE",
"400 1537 LINE",
"455 1600 LINE",
"300 1600 LINE SMOOTH",
"245 1600 OFFCURVE",
"200 1555 OFFCURVE",
"200 1500 CURVE SMOOTH",
"200 300 LINE SMOOTH",
"200 244 OFFCURVE",
"245 200 OFFCURVE",
"300 200 CURVE SMOOTH",
"1700 200 LINE SMOOTH",
"1755 200 OFFCURVE",
"1800 244 OFFCURVE",
"1800 300 CURVE SMOOTH",
"1800 1500 LINE SMOOTH",
"1800 1555 OFFCURVE",
"1755 1600 OFFCURVE",
"1700 1600 CURVE SMOOTH"
);
},
{
closed = 1;
nodes = (
"1100 900 LINE",
"1100 400 LINE",
"900 400 LINE",
"900 900 LINE",
"600 900 LINE",
"600 1100 LINE",
"1400 1100 LINE",
"1400 900 LINE"
);
}
);
width = 2000;
}
);
unicode = F217;
},
{
glyphname = unif218;
lastChange = "2013-05-07 11:49:30 +0000";
layers = (
{
layerId = "684440DB-903B-4FB4-BFDB-FB0ECFF352DE";
name = Regular;
paths = (
{
closed = 1;
nodes = (
"1429 1541 LINE",
"1318 1651 LINE SMOOTH",
"1277 1692 OFFCURVE",
"1224 1712 OFFCURVE",
"1171 1712 CURVE SMOOTH",
"1118 1712 OFFCURVE",
"1064 1692 OFFCURVE",
"1024 1651 CURVE SMOOTH",
"692 1320 LINE",
"361 989 LINE SMOOTH",
"320 948 OFFCURVE",
"300 895 OFFCURVE",
"300 841 CURVE SMOOTH",
"300 629 LINE SMOOTH",
"300 576 OFFCURVE",
"320 522 OFFCURVE",
"361 482 CURVE SMOOTH",
"471 371 LINE",
"582 261 LINE SMOOTH",
"622 220 OFFCURVE",
"676 200 OFFCURVE",
"729 200 CURVE SMOOTH",
"782 200 OFFCURVE",
"836 220 OFFCURVE",
"876 261 CURVE SMOOTH",
"1208 592 LINE",
"1539 924 LINE SMOOTH",
"1580 964 OFFCURVE",
"1600 1018 OFFCURVE",
"1600 1071 CURVE SMOOTH",
"1600 1283 LINE SMOOTH",
"1600 1336 OFFCURVE",
"1580 1390 OFFCURVE",
"1539 1430 CURVE SMOOTH"
);
},
{
closed = 1;
nodes = (
"808 571 LINE SMOOTH",
"769 533 OFFCURVE",
"703 533 OFFCURVE",
"665 571 CURVE SMOOTH",
"451 785 LINE SMOOTH",
"412 824 OFFCURVE",
"412 888 OFFCURVE",
"451 928 CURVE SMOOTH",
"1093 1570 LINE SMOOTH",
"1112 1589 OFFCURVE",
"1137 1599 OFFCURVE",
"1164 1599 CURVE SMOOTH",
"1191 1599 OFFCURVE",
"1217 1589 OFFCURVE",
"1236 1570 CURVE SMOOTH",
"1450 1356 LINE SMOOTH",
"1489 1316 OFFCURVE",
"1489 1252 OFFCURVE",
"1450 1213 CURVE SMOOTH"
);
}
);
width = 2000;
}
);
unicode = F218;
},
{
glyphname = unif219;
lastChange = "2013-05-07 11:49:36 +0000";
layers = (
{
layerId = "684440DB-903B-4FB4-BFDB-FB0ECFF352DE";
name = Regular;
paths = (
{
closed = 1;
nodes = (
"500 1700 LINE",
"500 1600 LINE",
"600 1600 LINE",
"600 1700 LINE"
);
},
{
closed = 1;
nodes = (
"500 1500 LINE",
"500 1400 LINE",
"600 1400 LINE",
"600 1500 LINE"
);
},
{
closed = 1;
nodes = (
"500 1300 LINE",
"500 1200 LINE",
"600 1200 LINE",
"600 1300 LINE"
);
},
{
closed = 1;
nodes = (
"500 1100 LINE",
"500 1000 LINE",
"600 1000 LINE",
"600 1100 LINE"
);
},
{
closed = 1;
nodes = (
"500 900 LINE",
"500 800 LINE",
"600 800 LINE",
"600 900 LINE"
);
},
{
closed = 1;
nodes = (
"500 700 LINE",
"500 600 LINE",
"600 600 LINE",
"600 700 LINE"
);
},
{
closed = 1;
nodes = (
"500 500 LINE",
"500 400 LINE",
"600 400 LINE",
"600 500 LINE"
);
},
{
closed = 1;
nodes = (
"1400 1700 LINE",
"1400 1600 LINE",
"1500 1600 LINE",
"1500 1700 LINE"
);
},
{
closed = 1;
nodes = (
"1400 1500 LINE",
"1400 1400 LINE",
"1500 1400 LINE",
"1500 1500 LINE"
);
},
{
closed = 1;
nodes = (
"1400 1300 LINE",
"1400 1200 LINE",
"1500 1200 LINE",
"1500 1300 LINE"
);
},
{
closed = 1;
nodes = (
"1400 1100 LINE",
"1400 1000 LINE",
"1500 1000 LINE",
"1500 1100 LINE"
);
},
{
closed = 1;
nodes = (
"1400 900 LINE",
"1400 800 LINE",
"1500 800 LINE",
"1500 900 LINE"
);
},
{
closed = 1;
nodes = (
"1400 700 LINE",
"1400 600 LINE",
"1500 600 LINE",
"1500 700 LINE"
);
},
{
closed = 1;
nodes = (
"1400 500 LINE",
"1400 400 LINE",
"1500 400 LINE",
"1500 500 LINE"
);
},
{
closed = 1;
nodes = (
"1600 300 LINE",
"1300 300 LINE",
"1300 400 LINE",
"700 400 LINE",
"700 300 LINE",
"400 300 LINE",
"400 1800 LINE",
"700 1800 LINE",
"700 1700 LINE",
"1300 1700 LINE",
"1300 1800 LINE",
"1600 1800 LINE"
);
},
{
closed = 1;
nodes = (
"700 1600 LINE",
"700 1100 LINE",
"1300 1100 LINE",
"1300 1600 LINE"
);
},
{
closed = 1;
nodes = (
"700 1000 LINE",
"700 500 LINE",
"1300 500 LINE",
"1300 1000 LINE"
);
}
);
width = 2000;
}
);
unicode = F219;
},
{
glyphname = unif220;
lastChange = "2013-05-07 12:04:55 +0000";
layers = (
{
layerId = "684440DB-903B-4FB4-BFDB-FB0ECFF352DE";
name = Regular;
paths = (
{
closed = 1;
nodes = (
"872 1460 OFFCURVE",
"775 1424 OFFCURVE",
"709 1352 CURVE SMOOTH",
"642 1280 OFFCURVE",
"609 1176 OFFCURVE",
"609 1039 CURVE SMOOTH",
"609 913 OFFCURVE",
"631 806 OFFCURVE",
"676 717 CURVE SMOOTH",
"720 628 OFFCURVE",
"802 564 OFFCURVE",
"900 500 CURVE",
"900 300 LINE",
"300 300 LINE",
"300 500 LINE",
"666 500 LINE",
"575 565 OFFCURVE",
"504 635 OFFCURVE",
"456 736 CURVE SMOOTH",
"407 838 OFFCURVE",
"383 948 OFFCURVE",
"383 1069 CURVE SMOOTH",
"383 1245 OFFCURVE",
"438 1385 OFFCURVE",
"548 1489 CURVE SMOOTH",
"657 1593 OFFCURVE",
"808 1646 OFFCURVE",
"1000 1646 CURVE SMOOTH",
"1192 1646 OFFCURVE",
"1342 1594 OFFCURVE",
"1452 1491 CURVE SMOOTH",
"1562 1388 OFFCURVE",
"1617 1247 OFFCURVE",
"1617 1069 CURVE SMOOTH",
"1617 947 OFFCURVE",
"1592 835 OFFCURVE",
"1543 734 CURVE SMOOTH",
"1493 634 OFFCURVE",
"1423 564 OFFCURVE",
"1331 500 CURVE",
"1700 500 LINE",
"1700 300 LINE",
"1100 300 LINE",
"1100 500 LINE",
"1195 560 OFFCURVE",
"1275 623 OFFCURVE",
"1322 712 CURVE SMOOTH",
"1368 802 OFFCURVE",
"1391 911 OFFCURVE",
"1391 1039 CURVE SMOOTH",
"1391 1176 OFFCURVE",
"1357 1281 OFFCURVE",
"1291 1352 CURVE SMOOTH",
"1224 1424 OFFCURVE",
"1127 1460 OFFCURVE",
"1000 1460 CURVE SMOOTH"
);
}
);
width = 2000;
}
);
unicode = F220;
},
{
glyphname = unif221;
lastChange = "2013-05-07 12:17:16 +0000";
layers = (
{
layerId = "684440DB-903B-4FB4-BFDB-FB0ECFF352DE";
name = Regular;
paths = (
{
closed = 1;
nodes = (
"800 1500 LINE",
"800 1700 LINE",
"1700 1700 LINE",
"1700 1500 LINE"
);
},
{
closed = 1;
nodes = (
"800 1200 LINE",
"800 1400 LINE",
"1700 1400 LINE",
"1700 1200 LINE"
);
},
{
closed = 1;
nodes = (
"800 600 LINE",
"800 800 LINE",
"1700 800 LINE",
"1700 600 LINE"
);
},
{
closed = 1;
nodes = (
"800 900 LINE",
"800 1100 LINE",
"1500 1100 LINE",
"1500 900 LINE"
);
},
{
closed = 1;
nodes = (
"800 300 LINE",
"800 500 LINE",
"1100 500 LINE",
"1100 300 LINE"
);
},
{
closed = 1;
nodes = (
"700 1000 LINE",
"500 1000 LINE",
"500 800 LINE",
"100 1150 LINE",
"500 1500 LINE",
"500 1300 LINE",
"700 1300 LINE"
);
},
{
closed = 1;
nodes = (
"300 1600 LINE",
"300 1700 LINE",
"700 1700 LINE",
"700 1600 LINE"
);
},
{
closed = 1;
nodes = (
"300 600 LINE",
"300 700 LINE",
"700 700 LINE",
"700 600 LINE"
);
}
);
width = 2000;
}
);
unicode = F221;
},
{
glyphname = unif222;
lastChange = "2013-05-07 12:17:23 +0000";
layers = (
{
layerId = "684440DB-903B-4FB4-BFDB-FB0ECFF352DE";
name = Regular;
paths = (
{
closed = 1;
nodes = (
"1200 1500 LINE",
"1200 1700 LINE",
"300 1700 LINE",
"300 1500 LINE"
);
},
{
closed = 1;
nodes = (
"1200 1200 LINE",
"1200 1400 LINE",
"300 1400 LINE",
"300 1200 LINE"
);
},
{
closed = 1;
nodes = (
"1200 600 LINE",
"1200 800 LINE",
"300 800 LINE",
"300 600 LINE"
);
},
{
closed = 1;
nodes = (
"1200 900 LINE",
"1200 1100 LINE",
"500 1100 LINE",
"500 900 LINE"
);
},
{
closed = 1;
nodes = (
"1200 300 LINE",
"1200 500 LINE",
"900 500 LINE",
"900 300 LINE"
);
},
{
closed = 1;
nodes = (
"1300 1000 LINE",
"1500 1000 LINE",
"1500 800 LINE",
"1900 1150 LINE",
"1500 1500 LINE",
"1500 1300 LINE",
"1300 1300 LINE"
);
},
{
closed = 1;
nodes = (
"1700 1600 LINE",
"1700 1700 LINE",
"1300 1700 LINE",
"1300 1600 LINE"
);
},
{
closed = 1;
nodes = (
"1700 600 LINE",
"1700 700 LINE",
"1300 700 LINE",
"1300 600 LINE"
);
}
);
width = 2000;
}
);
unicode = F222;
},
{
glyphname = unif223;
lastChange = "2013-05-07 12:17:27 +0000";
layers = (
{
layerId = "684440DB-903B-4FB4-BFDB-FB0ECFF352DE";
name = Regular;
paths = (
{
closed = 1;
nodes = (
"1700 613 OFFCURVE",
"1386 300 OFFCURVE",
"1000 300 CURVE SMOOTH",
"613 300 OFFCURVE",
"300 613 OFFCURVE",
"300 1000 CURVE SMOOTH",
"300 1387 OFFCURVE",
"613 1700 OFFCURVE",
"1000 1700 CURVE SMOOTH",
"1386 1700 OFFCURVE",
"1700 1387 OFFCURVE",
"1700 1000 CURVE SMOOTH"
);
},
{
closed = 1;
nodes = (
"1070 887 LINE SMOOTH",
"1070 910 OFFCURVE",
"1075 929 OFFCURVE",
"1085 944 CURVE SMOOTH",
"1095 958 OFFCURVE",
"1118 979 OFFCURVE",
"1156 1007 CURVE SMOOTH",
"1210 1046 OFFCURVE",
"1248 1081 OFFCURVE",
"1267 1113 CURVE SMOOTH",
"1287 1144 OFFCURVE",
"1296 1181 OFFCURVE",
"1296 1224 CURVE SMOOTH",
"1296 1288 OFFCURVE",
"1273 1340 OFFCURVE",
"1225 1379 CURVE SMOOTH",
"1178 1417 OFFCURVE",
"1114 1437 OFFCURVE",
"1033 1437 CURVE SMOOTH",
"936 1437 OFFCURVE",
"843 1412 OFFCURVE",
"756 1363 CURVE",
"820 1235 LINE",
"895 1273 OFFCURVE",
"962 1292 OFFCURVE",
"1020 1292 CURVE SMOOTH",
"1054 1292 OFFCURVE",
"1080 1286 OFFCURVE",
"1099 1273 CURVE SMOOTH",
"1118 1259 OFFCURVE",
"1127 1240 OFFCURVE",
"1127 1215 CURVE SMOOTH",
"1127 1192 OFFCURVE",
"1121 1171 OFFCURVE",
"1107 1153 CURVE SMOOTH",
"1094 1135 OFFCURVE",
"1067 1111 OFFCURVE",
"1026 1082 CURVE SMOOTH",
"984 1050 OFFCURVE",
"954 1021 OFFCURVE",
"938 993 CURVE SMOOTH",
"922 965 OFFCURVE",
"914 933 OFFCURVE",
"914 895 CURVE SMOOTH",
"914 852 LINE",
"1070 852 LINE"
);
},
{
closed = 1;
nodes = (
"941 561 OFFCURVE",
"966 552 OFFCURVE",
"999 552 CURVE SMOOTH",
"1031 552 OFFCURVE",
"1056 561 OFFCURVE",
"1074 579 CURVE SMOOTH",
"1092 596 OFFCURVE",
"1101 621 OFFCURVE",
"1101 651 CURVE SMOOTH",
"1101 683 OFFCURVE",
"1092 708 OFFCURVE",
"1074 725 CURVE SMOOTH",
"1056 742 OFFCURVE",
"1031 751 OFFCURVE",
"999 751 CURVE SMOOTH",
"965 751 OFFCURVE",
"940 743 OFFCURVE",
"922 726 CURVE SMOOTH",
"904 709 OFFCURVE",
"896 684 OFFCURVE",
"896 651 CURVE SMOOTH",
"896 620 OFFCURVE",
"905 595 OFFCURVE",
"923 578 CURVE SMOOTH"
);
}
);
width = 2000;
}
);
unicode = F223;
},
{
glyphname = unif224;
lastChange = "2013-05-07 12:17:31 +0000";
layers = (
{
layerId = "684440DB-903B-4FB4-BFDB-FB0ECFF352DE";
name = Regular;
paths = (
{
closed = 1;
nodes = (
"590 867 LINE",
"362 867 LINE",
"304 700 LINE",
"200 700 LINE",
"424 1299 LINE",
"530 1299 LINE",
"752 700 LINE",
"649 700 LINE"
);
},
{
closed = 1;
nodes = (
"508 1111 LINE SMOOTH",
"504 1122 OFFCURVE",
"499 1139 OFFCURVE",
"491 1162 CURVE SMOOTH",
"484 1186 OFFCURVE",
"479 1203 OFFCURVE",
"477 1213 CURVE",
"469 1180 OFFCURVE",
"459 1144 OFFCURVE",
"444 1104 CURVE SMOOTH",
"391 949 LINE",
"564 949 LINE"
);
},
{
closed = 1;
nodes = (
"977 1300 LINE SMOOTH",
"1077 1300 OFFCURVE",
"1118 1283 OFFCURVE",
"1154 1259 CURVE SMOOTH",
"1191 1235 OFFCURVE",
"1209 1197 OFFCURVE",
"1209 1146 CURVE SMOOTH",
"1209 1111 OFFCURVE",
"1200 1082 OFFCURVE",
"1182 1059 CURVE SMOOTH",
"1164 1036 OFFCURVE",
"1138 1022 OFFCURVE",
"1105 1016 CURVE",
"1105 1012 LINE",
"1146 1004 OFFCURVE",
"1177 988 OFFCURVE",
"1197 965 CURVE SMOOTH",
"1217 942 OFFCURVE",
"1226 910 OFFCURVE",
"1226 871 CURVE SMOOTH",
"1226 817 OFFCURVE",
"1208 776 OFFCURVE",
"1171 745 CURVE SMOOTH",
"1133 715 OFFCURVE",
"1081 700 OFFCURVE",
"1015 700 CURVE SMOOTH",
"800 700 LINE",
"800 1300 LINE"
);
},
{
closed = 1;
nodes = (
"991 1049 LINE SMOOTH",
"1032 1049 OFFCURVE",
"1061 1056 OFFCURVE",
"1080 1068 CURVE SMOOTH",
"1099 1081 OFFCURVE",
"1108 1103 OFFCURVE",
"1108 1134 CURVE SMOOTH",
"1108 1162 OFFCURVE",
"1098 1182 OFFCURVE",
"1078 1195 CURVE SMOOTH",
"1058 1207 OFFCURVE",
"1025 1213 OFFCURVE",
"981 1213 CURVE SMOOTH",
"897 1213 LINE",
"897 1049 LINE"
);
},
{
closed = 1;
nodes = (
"897 782 LINE",
"1001 782 LINE SMOOTH",
"1041 782 OFFCURVE",
"1072 790 OFFCURVE",
"1093 805 CURVE SMOOTH",
"1114 821 OFFCURVE",
"1124 845 OFFCURVE",
"1124 879 CURVE SMOOTH",
"1124 910 OFFCURVE",
"1113 933 OFFCURVE",
"1092 948 CURVE SMOOTH",
"1071 963 OFFCURVE",
"1039 970 OFFCURVE",
"996 970 CURVE SMOOTH",
"897 970 LINE"
);
},
{
closed = 1;
nodes = (
"1527 1220 OFFCURVE",
"1483 1200 OFFCURVE",
"1451 1161 CURVE SMOOTH",
"1419 1121 OFFCURVE",
"1403 1066 OFFCURVE",
"1403 997 CURVE SMOOTH",
"1403 924 OFFCURVE",
"1418 868 OFFCURVE",
"1449 831 CURVE SMOOTH",
"1479 794 OFFCURVE",
"1524 775 OFFCURVE",
"1582 775 CURVE SMOOTH",
"1608 775 OFFCURVE",
"1632 777 OFFCURVE",
"1656 782 CURVE SMOOTH",
"1679 787 OFFCURVE",
"1704 794 OFFCURVE",
"1729 802 CURVE",
"1729 718 LINE",
"1683 701 OFFCURVE",
"1630 692 OFFCURVE",
"1571 692 CURVE SMOOTH",
"1483 692 OFFCURVE",
"1417 718 OFFCURVE",
"1370 771 CURVE SMOOTH",
"1323 824 OFFCURVE",
"1300 899 OFFCURVE",
"1300 997 CURVE SMOOTH",
"1300 1059 OFFCURVE",
"1311 1113 OFFCURVE",
"1334 1160 CURVE SMOOTH",
"1357 1206 OFFCURVE",
"1389 1242 OFFCURVE",
"1432 1266 CURVE SMOOTH",
"1475 1291 OFFCURVE",
"1525 1303 OFFCURVE",
"1583 1303 CURVE SMOOTH",
"1644 1303 OFFCURVE",
"1700 1291 OFFCURVE",
"1752 1265 CURVE",
"1717 1184 LINE",
"1697 1194 OFFCURVE",
"1675 1202 OFFCURVE",
"1653 1209 CURVE SMOOTH",
"1631 1216 OFFCURVE",
"1607 1220 OFFCURVE",
"1582 1220 CURVE SMOOTH"
);
},
{
closed = 1;
nodes = (
"200 950 LINE",
"200 1050 LINE",
"1700 1050 LINE",
"1700 950 LINE"
);
}
);
width = 2000;
}
);
unicode = F224;
},
{
glyphname = unif225;
lastChange = "2013-05-07 18:36:57 +0000";
layers = (
{
layerId = "684440DB-903B-4FB4-BFDB-FB0ECFF352DE";
name = Regular;
paths = (
{
closed = 1;
nodes = (
"200 1200 LINE",
"1000 1000 LINE",
"200 1400 LINE"
);
},
{
closed = 1;
nodes = (
"800 1800 LINE",
"1000 1000 LINE",
"600 1800 LINE"
);
},
{
closed = 1;
nodes = (
"400 1800 LINE",
"1000 1000 LINE",
"200 1600 LINE"
);
},
{
closed = 1;
nodes = (
"1800 800 LINE",
"1000 1000 LINE",
"1800 600 LINE"
);
},
{
closed = 1;
nodes = (
"1200 200 LINE",
"1000 1000 LINE",
"1400 200 LINE"
);
},
{
closed = 1;
nodes = (
"1600 200 LINE",
"1000 1000 LINE",
"1800 400 LINE"
);
},
{
closed = 1;
nodes = (
"783 479 LINE SMOOTH",
"699 394 OFFCURVE",
"563 394 OFFCURVE",
"479 479 CURVE SMOOTH",
"394 563 OFFCURVE",
"394 699 OFFCURVE",
"479 783 CURVE SMOOTH",
"631 936 LINE",
"700 1000 LINE",
"465 1074 LINE",
"326 936 LINE SMOOTH",
"158 768 OFFCURVE",
"158 494 OFFCURVE",
"326 326 CURVE SMOOTH",
"495 158 OFFCURVE",
"767 158 OFFCURVE",
"936 326 CURVE SMOOTH",
"1074 465 LINE",
"1000 700 LINE",
"936 631 LINE"
);
},
{
closed = 1;
nodes = (
"1606 1942 OFFCURVE",
"1333 1942 OFFCURVE",
"1164 1774 CURVE SMOOTH",
"1012 1621 LINE SMOOTH",
"979 1589 OFFCURVE",
"954 1552 OFFCURVE",
"935 1514 CURVE",
"1000 1300 LINE",
"1164 1469 LINE",
"1240 1545 LINE",
"1317 1621 LINE SMOOTH",
"1401 1706 OFFCURVE",
"1537 1706 OFFCURVE",
"1621 1621 CURVE SMOOTH",
"1705 1537 OFFCURVE",
"1705 1401 OFFCURVE",
"1621 1317 CURVE SMOOTH",
"1545 1241 LINE",
"1469 1164 LINE",
"1300 1000 LINE",
"1513 935 LINE",
"1552 954 OFFCURVE",
"1589 979 OFFCURVE",
"1621 1012 CURVE SMOOTH",
"1774 1164 LINE SMOOTH",
"1942 1333 OFFCURVE",
"1942 1605 OFFCURVE",
"1774 1774 CURVE SMOOTH"
);
}
);
width = 2000;
}
);
unicode = F225;
},
{
glyphname = unif226;
lastChange = "2013-05-14 16:59:30 +0000";
layers = (
{
layerId = "684440DB-903B-4FB4-BFDB-FB0ECFF352DE";
name = Regular;
paths = (
{
closed = 1;
nodes = (
"266 537 OFFCURVE",
"200 711 OFFCURVE",
"200 900 CURVE SMOOTH",
"200 1342 OFFCURVE",
"558 1700 OFFCURVE",
"1000 1700 CURVE SMOOTH",
"1442 1700 OFFCURVE",
"1800 1342 OFFCURVE",
"1800 900 CURVE SMOOTH",
"1800 711 OFFCURVE",
"1734 537 OFFCURVE",
"1624 400 CURVE",
"376 400 LINE"
);
},
{
closed = 1;
nodes = (
"945 1600 OFFCURVE",
"900 1555 OFFCURVE",
"900 1500 CURVE SMOOTH",
"900 1445 OFFCURVE",
"945 1400 OFFCURVE",
"1000 1400 CURVE SMOOTH",
"1055 1400 OFFCURVE",
"1100 1445 OFFCURVE",
"1100 1500 CURVE SMOOTH",
"1100 1555 OFFCURVE",
"1055 1600 OFFCURVE",
"1000 1600 CURVE SMOOTH"
);
},
{
closed = 1;
nodes = (
"545 1400 OFFCURVE",
"500 1355 OFFCURVE",
"500 1300 CURVE SMOOTH",
"500 1245 OFFCURVE",
"545 1200 OFFCURVE",
"600 1200 CURVE SMOOTH",
"655 1200 OFFCURVE",
"700 1245 OFFCURVE",
"700 1300 CURVE SMOOTH",
"700 1355 OFFCURVE",
"655 1400 OFFCURVE",
"600 1400 CURVE SMOOTH"
);
},
{
closed = 1;
nodes = (
"345 1000 OFFCURVE",
"300 955 OFFCURVE",
"300 900 CURVE SMOOTH",
"300 845 OFFCURVE",
"345 800 OFFCURVE",
"400 800 CURVE SMOOTH",
"455 800 OFFCURVE",
"500 845 OFFCURVE",
"500 900 CURVE SMOOTH",
"500 955 OFFCURVE",
"455 1000 OFFCURVE",
"400 1000 CURVE SMOOTH"
);
},
{
closed = 1;
nodes = (
"1545 1000 OFFCURVE",
"1500 955 OFFCURVE",
"1500 900 CURVE SMOOTH",
"1500 845 OFFCURVE",
"1545 800 OFFCURVE",
"1600 800 CURVE SMOOTH",
"1655 800 OFFCURVE",
"1700 845 OFFCURVE",
"1700 900 CURVE SMOOTH",
"1700 955 OFFCURVE",
"1655 1000 OFFCURVE",
"1600 1000 CURVE SMOOTH"
);
},
{
closed = 1;
nodes = (
"1345 1400 OFFCURVE",
"1300 1355 OFFCURVE",
"1300 1300 CURVE SMOOTH",
"1300 1245 OFFCURVE",
"1345 1200 OFFCURVE",
"1400 1200 CURVE SMOOTH",
"1455 1200 OFFCURVE",
"1500 1245 OFFCURVE",
"1500 1300 CURVE SMOOTH",
"1500 1355 OFFCURVE",
"1455 1400 OFFCURVE",
"1400 1400 CURVE SMOOTH"
);
},
{
closed = 1;
nodes = (
"824 808 OFFCURVE",
"800 757 OFFCURVE",
"800 700 CURVE SMOOTH",
"800 590 OFFCURVE",
"890 500 OFFCURVE",
"1000 500 CURVE SMOOTH",
"1110 500 OFFCURVE",
"1200 590 OFFCURVE",
"1200 700 CURVE SMOOTH",
"1200 1300 LINE",
"863 845 LINE"
);
},
{
closed = 1;
nodes = (
"1100 645 OFFCURVE",
"1055 600 OFFCURVE",
"1000 600 CURVE SMOOTH",
"945 600 OFFCURVE",
"900 645 OFFCURVE",
"900 700 CURVE SMOOTH",
"900 755 OFFCURVE",
"945 800 OFFCURVE",
"1000 800 CURVE SMOOTH",
"1055 800 OFFCURVE",
"1100 755 OFFCURVE",
"1100 700 CURVE SMOOTH"
);
}
);
width = 2000;
}
);
unicode = F226;
},
{
glyphname = unif227;
lastChange = "2013-05-14 17:48:53 +0000";
layers = (
{
layerId = "684440DB-903B-4FB4-BFDB-FB0ECFF352DE";
name = Regular;
paths = (
{
closed = 1;
nodes = (
"300 200 LINE",
"300 1700 LINE",
"500 1700 LINE",
"500 200 LINE"
);
},
{
closed = 1;
nodes = (
"600 800 LINE",
"900 900 OFFCURVE",
"1400 673 OFFCURVE",
"1700 800 CURVE",
"1700 1600 LINE",
"1300 1500 OFFCURVE",
"900 1700 OFFCURVE",
"600 1600 CURVE"
);
}
);
width = 2000;
}
);
unicode = F227;
},
{
glyphname = unif228;
lastChange = "2013-10-10 13:53:28 +0000";
layers = (
{
layerId = "684440DB-903B-4FB4-BFDB-FB0ECFF352DE";
name = Regular;
paths = (
{
closed = 1;
nodes = (
"300 1400 LINE",
"1700 1400 LINE",
"1700 1600 LINE",
"300 1600 LINE"
);
},
{
closed = 1;
nodes = (
"300 900 LINE",
"1700 900 LINE",
"1700 1100 LINE",
"300 1100 LINE"
);
},
{
closed = 1;
nodes = (
"300 400 LINE",
"1700 400 LINE",
"1700 600 LINE",
"300 600 LINE"
);
}
);
width = 2000;
}
);
unicode = F228;
},
{
glyphname = unif229;
lastChange = "2013-06-13 18:25:27 +0000";
layers = (
{
layerId = "684440DB-903B-4FB4-BFDB-FB0ECFF352DE";
name = Regular;
paths = (
{
closed = 1;
nodes = (
"1100 600 LINE",
"1700 997 LINE",
"1100 1400 LINE"
);
},
{
closed = 1;
nodes = (
"900 600 LINE",
"900 1400 LINE",
"300 997 LINE"
);
}
);
width = 2000;
}
);
unicode = F229;
},
{
glyphname = unif230;
lastChange = "2013-06-19 12:19:17 +0000";
layers = (
{
layerId = "684440DB-903B-4FB4-BFDB-FB0ECFF352DE";
name = Regular;
paths = (
{
closed = 1;
nodes = (
"1331.35 1800 OFFCURVE",
"1600 1531.35 OFFCURVE",
"1600 1200 CURVE SMOOTH",
"1600 997.949 OFFCURVE",
"1482.62 828.711 OFFCURVE",
"1346.68 710.84 CURVE SMOOTH",
"1304.2 674.023 OFFCURVE",
"1229 615.43 OFFCURVE",
"1162.3 528.223 CURVE SMOOTH",
"1088.23 431.25 OFFCURVE",
"1020.9 327.148 OFFCURVE",
"1000 256.738 CURVE",
"979.102 327.148 OFFCURVE",
"911.768 431.25 OFFCURVE",
"837.646 528.223 CURVE SMOOTH",
"770.996 615.43 OFFCURVE",
"695.801 674.023 OFFCURVE",
"653.32 710.84 CURVE SMOOTH",
"517.383 828.711 OFFCURVE",
"400 997.949 OFFCURVE",
"400 1200 CURVE SMOOTH",
"400 1531.35 OFFCURVE",
"668.652 1800 OFFCURVE",
"1000 1800 CURVE SMOOTH"
);
},
{
closed = 1;
nodes = (
"810.254 1543.6 OFFCURVE",
"656.396 1389.75 OFFCURVE",
"656.396 1200 CURVE SMOOTH",
"656.396 1010.25 OFFCURVE",
"810.254 856.445 OFFCURVE",
"1000 856.445 CURVE SMOOTH",
"1189.75 856.445 OFFCURVE",
"1343.55 1010.25 OFFCURVE",
"1343.55 1200 CURVE SMOOTH",
"1343.55 1389.75 OFFCURVE",
"1189.75 1543.6 OFFCURVE",
"1000 1543.6 CURVE SMOOTH"
);
}
);
width = 2000;
}
);
unicode = F230;
},
{
glyphname = unif231;
lastChange = "2013-06-19 13:06:41 +0000";
layers = (
{
layerId = "684440DB-903B-4FB4-BFDB-FB0ECFF352DE";
name = Regular;
paths = (
{
closed = 1;
nodes = (
"1300 686 LINE",
"1183 1280 LINE",
"1104 1323 OFFCURVE",
"1050 1405 OFFCURVE",
"1050 1500 CURVE SMOOTH",
"1050 1638 OFFCURVE",
"1162 1750 OFFCURVE",
"1300 1750 CURVE SMOOTH",
"1438 1750 OFFCURVE",
"1550 1638 OFFCURVE",
"1550 1500 CURVE SMOOTH",
"1550 1405 OFFCURVE",
"1496 1323 OFFCURVE",
"1417 1280 CURVE"
);
},
{
closed = 1;
nodes = (
"1217 1650 OFFCURVE",
"1150 1583 OFFCURVE",
"1150 1500 CURVE SMOOTH",
"1150 1417 OFFCURVE",
"1217 1350 OFFCURVE",
"1300 1350 CURVE SMOOTH",
"1383 1350 OFFCURVE",
"1450 1417 OFFCURVE",
"1450 1500 CURVE SMOOTH",
"1450 1583 OFFCURVE",
"1383 1650 OFFCURVE",
"1300 1650 CURVE SMOOTH"
);
},
{
closed = 1;
nodes = (
"1300 432 LINE",
"1127 1162 LINE",
"700 1303 LINE",
"200 1103 LINE",
"200 203 LINE",
"700 403 LINE",
"1312 200 LINE",
"1800 403 LINE",
"1800 1303 LINE",
"1472 1170 LINE"
);
}
);
width = 2000;
}
);
unicode = F231;
},
{
glyphname = unif232;
lastChange = "2013-06-22 16:48:20 +0000";
layers = (
{
layerId = "684440DB-903B-4FB4-BFDB-FB0ECFF352DE";
name = Regular;
paths = (
{
closed = 1;
nodes = (
"300 900 LINE",
"300 1400 LINE",
"400 1400 LINE",
"400 900 LINE"
);
},
{
closed = 1;
nodes = (
"600 500 LINE",
"600 200 LINE",
"1800 200 LINE",
"1800 1200 LINE",
"1600 1200 LINE",
"1600 1500 LINE",
"1400 1500 LINE",
"1400 1800 LINE",
"200 1800 LINE",
"200 800 LINE",
"400 800 LINE",
"400 500 LINE"
);
},
{
closed = 1;
nodes = (
"1100 1200 LINE",
"1100 1310 OFFCURVE",
"1190 1400 OFFCURVE",
"1300 1400 CURVE SMOOTH",
"1411 1400 OFFCURVE",
"1500 1310 OFFCURVE",
"1500 1200 CURVE"
);
},
{
closed = 1;
nodes = (
"1211 1700 OFFCURVE",
"1300 1610 OFFCURVE",
"1300 1500 CURVE",
"900 1500 LINE",
"900 1610 OFFCURVE",
"990 1700 OFFCURVE",
"1100 1700 CURVE SMOOTH"
);
},
{
closed = 1;
nodes = (
"500 600 LINE",
"500 1100 LINE",
"600 1100 LINE",
"600 600 LINE"
);
},
{
closed = 1;
nodes = (
"700 300 LINE",
"700 800 LINE",
"1200 800 OFFCURVE",
"1200 500 OFFCURVE",
"1700 500 CURVE",
"1700 300 LINE"
);
},
{
closed = 1;
nodes = (
"1390 700 OFFCURVE",
"1300 789 OFFCURVE",
"1300 900 CURVE SMOOTH",
"1300 1010 OFFCURVE",
"1390 1100 OFFCURVE",
"1500 1100 CURVE SMOOTH",
"1610 1100 OFFCURVE",
"1700 1010 OFFCURVE",
"1700 900 CURVE SMOOTH",
"1700 789 OFFCURVE",
"1610 700 OFFCURVE",
"1500 700 CURVE SMOOTH"
);
}
);
width = 2000;
}
);
unicode = F232;
},
{
glyphname = unif233;
lastChange = "2013-06-22 17:07:17 +0000";
layers = (
{
layerId = "684440DB-903B-4FB4-BFDB-FB0ECFF352DE";
name = Regular;
paths = (
{
closed = 1;
nodes = (
"500 1500 LINE",
"300 1500 LINE",
"300 1300 LINE",
"100 1300 LINE",
"100 200 LINE",
"1500 200 LINE",
"1500 400 LINE",
"1700 400 LINE",
"1700 600 LINE",
"1900 600 LINE",
"1900 1700 LINE",
"500 1700 LINE"
);
},
{
closed = 1;
nodes = (
"200 300 LINE",
"200 1200 LINE",
"300 1200 LINE",
"300 400 LINE",
"1400 400 LINE",
"1400 300 LINE"
);
},
{
closed = 1;
nodes = (
"400 500 LINE",
"400 1400 LINE",
"500 1400 LINE",
"500 600 LINE",
"1600 600 LINE",
"1600 500 LINE"
);
},
{
closed = 1;
nodes = (
"600 700 LINE",
"600 1600 LINE",
"1800 1600 LINE",
"1800 700 LINE"
);
},
{
closed = 1;
nodes = (
"1610 1100 OFFCURVE",
"1700 1190 OFFCURVE",
"1700 1300 CURVE SMOOTH",
"1700 1410 OFFCURVE",
"1610 1500 OFFCURVE",
"1500 1500 CURVE SMOOTH",
"1390 1500 OFFCURVE",
"1300 1410 OFFCURVE",
"1300 1300 CURVE SMOOTH",
"1300 1190 OFFCURVE",
"1390 1100 OFFCURVE",
"1500 1100 CURVE SMOOTH"
);
},
{
closed = 1;
nodes = (
"700 800 LINE",
"1700 800 LINE",
"700 1400 LINE"
);
}
);
width = 2000;
}
);
unicode = F233;
},
{
glyphname = unif234;
lastChange = "2013-06-22 17:39:59 +0000";
layers = (
{
layerId = "684440DB-903B-4FB4-BFDB-FB0ECFF352DE";
name = Regular;
paths = (
{
closed = 1;
nodes = (
"1300 545 OFFCURVE",
"1255 500 OFFCURVE",
"1200 500 CURVE SMOOTH",
"400 500 LINE SMOOTH",
"345 500 OFFCURVE",
"300 545 OFFCURVE",
"300 600 CURVE SMOOTH",
"300 1200 LINE SMOOTH",
"300 1255 OFFCURVE",
"345 1300 OFFCURVE",
"400 1300 CURVE SMOOTH",
"1200 1300 LINE SMOOTH",
"1255 1300 OFFCURVE",
"1300 1255 OFFCURVE",
"1300 1200 CURVE SMOOTH",
"1300 600 LINE SMOOTH"
);
},
{
closed = 1;
nodes = (
"1400 800 LINE",
"1800 400 LINE",
"1800 1400 LINE",
"1400 1000 LINE"
);
},
{
closed = 1;
nodes = (
"800 1445 OFFCURVE",
"755 1400 OFFCURVE",
"700 1400 CURVE SMOOTH",
"200 1400 LINE SMOOTH",
"149 1400 OFFCURVE",
"100 1443 OFFCURVE",
"100 1500 CURVE",
"100 1555 OFFCURVE",
"145 1600 OFFCURVE",
"200 1600 CURVE SMOOTH",
"700 1600 LINE SMOOTH",
"755 1600 OFFCURVE",
"800 1555 OFFCURVE",
"800 1500 CURVE SMOOTH"
);
}
);
width = 2000;
}
);
unicode = F234;
},
{
glyphname = unif235;
lastChange = "2013-06-22 17:43:47 +0000";
layers = (
{
layerId = "684440DB-903B-4FB4-BFDB-FB0ECFF352DE";
name = Regular;
paths = (
{
closed = 1;
nodes = (
"1300 1050 LINE",
"1900 1500 LINE",
"1900 500 LINE",
"1300 950 LINE"
);
},
{
closed = 1;
nodes = (
"1200 590 OFFCURVE",
"1110 500 OFFCURVE",
"1000 500 CURVE SMOOTH",
"300 500 LINE SMOOTH",
"190 500 OFFCURVE",
"100 590 OFFCURVE",
"100 700 CURVE SMOOTH",
"100 1300 LINE SMOOTH",
"100 1410 OFFCURVE",
"190 1500 OFFCURVE",
"300 1500 CURVE SMOOTH",
"1000 1500 LINE SMOOTH",
"1110 1500 OFFCURVE",
"1200 1410 OFFCURVE",
"1200 1300 CURVE SMOOTH",
"1200 700 LINE SMOOTH"
);
}
);
width = 2000;
}
);
unicode = F235;
},
{
glyphname = unif236;
lastChange = "2013-06-22 17:45:32 +0000";
layers = (
{
layerId = "684440DB-903B-4FB4-BFDB-FB0ECFF352DE";
name = Regular;
paths = (
{
closed = 1;
nodes = (
"1900 390 OFFCURVE",
"1810 300 OFFCURVE",
"1700 300 CURVE SMOOTH",
"400 300 LINE SMOOTH",
"290 300 OFFCURVE",
"200 390 OFFCURVE",
"200 500 CURVE SMOOTH",
"200 1500 LINE SMOOTH",
"200 1610 OFFCURVE",
"290 1700 OFFCURVE",
"400 1700 CURVE SMOOTH",
"1700 1700 LINE SMOOTH",
"1810 1700 OFFCURVE",
"1900 1610 OFFCURVE",
"1900 1500 CURVE SMOOTH",
"1900 500 LINE SMOOTH"
);
},
{
closed = 1;
nodes = (
"1400 1000 LINE",
"800 1400 LINE",
"800 600 LINE"
);
}
);
width = 2000;
}
);
unicode = F236;
},
{
glyphname = unif237;
lastChange = "2013-06-22 18:25:19 +0000";
layers = (
{
layerId = "684440DB-903B-4FB4-BFDB-FB0ECFF352DE";
name = Regular;
paths = (
{
closed = 1;
nodes = (
"1362 800 OFFCURVE",
"1284 762 OFFCURVE",
"1229 701 CURVE",
"791 931 LINE",
"797 954 OFFCURVE",
"800 976 OFFCURVE",
"800 1000 CURVE SMOOTH",
"800 1024 OFFCURVE",
"797 1046 OFFCURVE",
"791 1069 CURVE",
"1229 1299 LINE",
"1284 1239 OFFCURVE",
"1362 1200 OFFCURVE",
"1450 1200 CURVE SMOOTH",
"1616 1200 OFFCURVE",
"1750 1334 OFFCURVE",
"1750 1500 CURVE SMOOTH",
"1750 1666 OFFCURVE",
"1616 1800 OFFCURVE",
"1450 1800 CURVE SMOOTH",
"1284 1800 OFFCURVE",
"1150 1666 OFFCURVE",
"1150 1500 CURVE SMOOTH",
"1150 1476 OFFCURVE",
"1153 1454 OFFCURVE",
"1159 1431 CURVE",
"721 1201 LINE",
"666 1261 OFFCURVE",
"588 1300 OFFCURVE",
"500 1300 CURVE SMOOTH",
"334 1300 OFFCURVE",
"200 1166 OFFCURVE",
"200 1000 CURVE SMOOTH",
"200 834 OFFCURVE",
"334 700 OFFCURVE",
"500 700 CURVE SMOOTH",
"588 700 OFFCURVE",
"666 738 OFFCURVE",
"721 799 CURVE",
"1159 569 LINE",
"1153 546 OFFCURVE",
"1150 524 OFFCURVE",
"1150 500 CURVE SMOOTH",
"1150 334 OFFCURVE",
"1284 200 OFFCURVE",
"1450 200 CURVE SMOOTH",
"1616 200 OFFCURVE",
"1750 334 OFFCURVE",
"1750 500 CURVE SMOOTH",
"1750 666 OFFCURVE",
"1616 800 OFFCURVE",
"1450 800 CURVE SMOOTH"
);
}
);
width = 2000;
}
);
unicode = F237;
},
{
glyphname = unif238;
lastChange = "2013-07-09 19:10:18 +0000";
layers = (
{
layerId = "684440DB-903B-4FB4-BFDB-FB0ECFF352DE";
name = Regular;
paths = (
{
closed = 1;
nodes = (
"1800 1712 OFFCURVE",
"1762 1766 OFFCURVE",
"1708 1788 CURVE",
"1708 1799 LINE",
"1703 1790 LINE",
"1686 1796 OFFCURVE",
"1669 1800 OFFCURVE",
"1650 1800 CURVE SMOOTH",
"1567 1800 OFFCURVE",
"1500 1733 OFFCURVE",
"1500 1650 CURVE SMOOTH",
"1500 1602 OFFCURVE",
"1523 1559 OFFCURVE",
"1559 1532 CURVE",
"1201 891 LINE",
"1185 896 OFFCURVE",
"1168 900 OFFCURVE",
"1150 900 CURVE SMOOTH",
"1106 900 OFFCURVE",
"1066 880 OFFCURVE",
"1039 850 CURVE",
"895 913 LINE",
"898 925 OFFCURVE",
"900 937 OFFCURVE",
"900 950 CURVE SMOOTH",
"900 1033 OFFCURVE",
"833 1100 OFFCURVE",
"750 1100 CURVE SMOOTH",
"667 1100 OFFCURVE",
"600 1033 OFFCURVE",
"600 950 CURVE SMOOTH",
"600 922 OFFCURVE",
"608 897 OFFCURVE",
"621 874 CURVE",
"199 201 LINE",
"1708 201 LINE",
"1708 1512 LINE",
"1762 1534 OFFCURVE",
"1800 1588 OFFCURVE",
"1800 1650 CURVE SMOOTH"
);
},
{
closed = 1;
nodes = (
"379 301 LINE",
"699 810 LINE",
"715 804 OFFCURVE",
"732 800 OFFCURVE",
"750 800 CURVE SMOOTH",
"783 800 OFFCURVE",
"813 811 OFFCURVE",
"838 829 CURVE",
"1001 757 LINE",
"1001 755 OFFCURVE",
"1000 752 OFFCURVE",
"1000 750 CURVE SMOOTH",
"1000 667 OFFCURVE",
"1067 600 OFFCURVE",
"1150 600 CURVE SMOOTH",
"1233 600 OFFCURVE",
"1300 667 OFFCURVE",
"1300 750 CURVE SMOOTH",
"1300 778 OFFCURVE",
"1292 803 OFFCURVE",
"1279 826 CURVE",
"1608 1415 LINE",
"1608 301 LINE"
);
}
);
width = 2000;
}
);
unicode = F238;
},
{
glyphname = unif239;
lastChange = "2013-07-09 19:09:48 +0000";
layers = (
{
layerId = "684440DB-903B-4FB4-BFDB-FB0ECFF352DE";
name = Regular;
paths = (
{
closed = 1;
nodes = (
"1800 200 LINE",
"100 200 LINE",
"398 729 LINE",
"340 764 OFFCURVE",
"300 827 OFFCURVE",
"300 900 CURVE SMOOTH",
"300 1011 OFFCURVE",
"390 1100 OFFCURVE",
"500 1100 CURVE SMOOTH",
"611 1100 OFFCURVE",
"700 1011 OFFCURVE",
"700 900 CURVE SMOOTH",
"700 875 OFFCURVE",
"695 851 OFFCURVE",
"686 829 CURVE",
"900 676 LINE",
"930 749 OFFCURVE",
"1001 800 OFFCURVE",
"1085 800 CURVE SMOOTH",
"1128 800 OFFCURVE",
"1168 786 OFFCURVE",
"1201 762 CURVE",
"1614 1420 LINE",
"1547 1452 OFFCURVE",
"1500 1520 OFFCURVE",
"1500 1600 CURVE SMOOTH",
"1500 1710 OFFCURVE",
"1590 1800 OFFCURVE",
"1700 1800 CURVE SMOOTH",
"1810 1800 OFFCURVE",
"1900 1710 OFFCURVE",
"1900 1600 CURVE SMOOTH",
"1900 1527 OFFCURVE",
"1860 1463 OFFCURVE",
"1801 1428 CURVE"
);
},
{
closed = 1;
nodes = (
"445 1000 OFFCURVE",
"400 955 OFFCURVE",
"400 900 CURVE SMOOTH",
"400 845 OFFCURVE",
"445 800 OFFCURVE",
"500 800 CURVE SMOOTH",
"555 800 OFFCURVE",
"600 845 OFFCURVE",
"600 900 CURVE SMOOTH",
"600 955 OFFCURVE",
"555 1000 OFFCURVE",
"500 1000 CURVE SMOOTH"
);
},
{
closed = 1;
nodes = (
"1030 700 OFFCURVE",
"985 655 OFFCURVE",
"985 600 CURVE SMOOTH",
"985 545 OFFCURVE",
"1030 500 OFFCURVE",
"1085 500 CURVE SMOOTH",
"1140 500 OFFCURVE",
"1185 545 OFFCURVE",
"1185 600 CURVE SMOOTH",
"1185 655 OFFCURVE",
"1140 700 OFFCURVE",
"1085 700 CURVE SMOOTH"
);
},
{
closed = 1;
nodes = (
"1645 1700 OFFCURVE",
"1600 1655 OFFCURVE",
"1600 1600 CURVE SMOOTH",
"1600 1545 OFFCURVE",
"1645 1500 OFFCURVE",
"1700 1500 CURVE SMOOTH",
"1755 1500 OFFCURVE",
"1800 1545 OFFCURVE",
"1800 1600 CURVE SMOOTH",
"1800 1655 OFFCURVE",
"1755 1700 OFFCURVE",
"1700 1700 CURVE SMOOTH"
);
}
);
width = 2000;
}
);
unicode = F239;
},
{
glyphname = unif240;
lastChange = "2013-07-09 19:09:51 +0000";
layers = (
{
layerId = "684440DB-903B-4FB4-BFDB-FB0ECFF352DE";
name = Regular;
paths = (
{
closed = 1;
nodes = (
"1250 862 OFFCURVE",
"1138 750 OFFCURVE",
"1000 750 CURVE SMOOTH",
"862 750 OFFCURVE",
"750 862 OFFCURVE",
"750 1000 CURVE SMOOTH",
"750 1138 OFFCURVE",
"862 1250 OFFCURVE",
"1000 1250 CURVE SMOOTH",
"1138 1250 OFFCURVE",
"1250 1138 OFFCURVE",
"1250 1000 CURVE SMOOTH"
);
},
{
closed = 1;
nodes = (
"1595 1460 OFFCURVE",
"1565 1497 OFFCURVE",
"1531 1531 CURVE SMOOTH",
"1497 1565 OFFCURVE",
"1459 1596 OFFCURVE",
"1420 1622 CURVE SMOOTH",
"1380 1649 OFFCURVE",
"1337 1673 OFFCURVE",
"1292 1692 CURVE SMOOTH",
"1247 1711 OFFCURVE",
"1199 1726 OFFCURVE",
"1151 1735 CURVE SMOOTH",
"1052 1756 OFFCURVE",
"948 1756 OFFCURVE",
"849 1735 CURVE SMOOTH",
"801 1726 OFFCURVE",
"753 1711 OFFCURVE",
"708 1692 CURVE SMOOTH",
"663 1673 OFFCURVE",
"620 1649 OFFCURVE",
"580 1622 CURVE SMOOTH",
"541 1596 OFFCURVE",
"503 1565 OFFCURVE",
"469 1531 CURVE SMOOTH",
"435 1497 OFFCURVE",
"405 1460 OFFCURVE",
"378 1420 CURVE SMOOTH",
"373 1413 OFFCURVE",
"370 1407 OFFCURVE",
"366 1400 CURVE",
"100 1400 LINE",
"100 1100 LINE",
"257 1100 LINE",
"561 1100 LINE",
"567 1124 OFFCURVE",
"574 1148 OFFCURVE",
"584 1172 CURVE SMOOTH",
"584 1173 OFFCURVE",
"584 1174 OFFCURVE",
"585 1176 CURVE SMOOTH",
"596 1202 OFFCURVE",
"610 1228 OFFCURVE",
"626 1252 CURVE SMOOTH",
"642 1276 OFFCURVE",
"661 1298 OFFCURVE",
"682 1319 CURVE SMOOTH",
"702 1339 OFFCURVE",
"724 1358 OFFCURVE",
"748 1374 CURVE SMOOTH",
"772 1390 OFFCURVE",
"798 1404 OFFCURVE",
"825 1415 CURVE SMOOTH",
"852 1427 OFFCURVE",
"880 1436 OFFCURVE",
"909 1442 CURVE SMOOTH",
"968 1454 OFFCURVE",
"1032 1454 OFFCURVE",
"1091 1441 CURVE SMOOTH",
"1120 1436 OFFCURVE",
"1148 1427 OFFCURVE",
"1175 1415 CURVE SMOOTH",
"1202 1404 OFFCURVE",
"1228 1390 OFFCURVE",
"1252 1374 CURVE SMOOTH",
"1276 1358 OFFCURVE",
"1298 1339 OFFCURVE",
"1319 1319 CURVE SMOOTH",
"1339 1298 OFFCURVE",
"1358 1276 OFFCURVE",
"1374 1252 CURVE SMOOTH",
"1420 1183 OFFCURVE",
"1513 1165 OFFCURVE",
"1582 1212 CURVE SMOOTH",
"1651 1258 OFFCURVE",
"1669 1351 OFFCURVE",
"1622 1420 CURVE SMOOTH"
);
},
{
closed = 1;
nodes = (
"405 540 OFFCURVE",
"435 503 OFFCURVE",
"469 469 CURVE SMOOTH",
"503 435 OFFCURVE",
"541 404 OFFCURVE",
"580 378 CURVE SMOOTH",
"620 351 OFFCURVE",
"663 327 OFFCURVE",
"708 308 CURVE SMOOTH",
"753 289 OFFCURVE",
"801 275 OFFCURVE",
"849 265 CURVE SMOOTH",
"948 244 OFFCURVE",
"1052 244 OFFCURVE",
"1151 265 CURVE SMOOTH",
"1199 275 OFFCURVE",
"1247 289 OFFCURVE",
"1292 308 CURVE SMOOTH",
"1337 327 OFFCURVE",
"1380 351 OFFCURVE",
"1420 378 CURVE SMOOTH",
"1459 404 OFFCURVE",
"1497 435 OFFCURVE",
"1531 469 CURVE SMOOTH",
"1565 503 OFFCURVE",
"1595 540 OFFCURVE",
"1622 580 CURVE SMOOTH",
"1627 587 OFFCURVE",
"1630 594 OFFCURVE",
"1634 600 CURVE",
"1900 600 LINE",
"1900 900 LINE",
"1743 900 LINE",
"1439 900 LINE",
"1433 876 OFFCURVE",
"1426 852 OFFCURVE",
"1416 828 CURVE SMOOTH",
"1416 827 OFFCURVE",
"1416 826 OFFCURVE",
"1415 824 CURVE SMOOTH",
"1404 798 OFFCURVE",
"1390 773 OFFCURVE",
"1374 748 CURVE SMOOTH",
"1358 725 OFFCURVE",
"1339 702 OFFCURVE",
"1318 681 CURVE SMOOTH",
"1298 661 OFFCURVE",
"1276 642 OFFCURVE",
"1252 626 CURVE SMOOTH",
"1228 610 OFFCURVE",
"1202 596 OFFCURVE",
"1175 585 CURVE SMOOTH",
"1148 573 OFFCURVE",
"1120 565 OFFCURVE",
"1091 559 CURVE SMOOTH",
"1032 547 OFFCURVE",
"968 546 OFFCURVE",
"909 559 CURVE SMOOTH",
"880 565 OFFCURVE",
"852 573 OFFCURVE",
"825 585 CURVE SMOOTH",
"798 596 OFFCURVE",
"772 610 OFFCURVE",
"748 626 CURVE SMOOTH",
"724 642 OFFCURVE",
"702 661 OFFCURVE",
"681 681 CURVE SMOOTH",
"661 702 OFFCURVE",
"642 724 OFFCURVE",
"626 748 CURVE SMOOTH",
"580 817 OFFCURVE",
"487 835 OFFCURVE",
"418 789 CURVE SMOOTH",
"349 742 OFFCURVE",
"331 649 OFFCURVE",
"378 580 CURVE SMOOTH"
);
}
);
width = 2000;
}
);
unicode = F240;
},
{
glyphname = unif242;
lastChange = "2013-07-09 20:20:00 +0000";
layers = (
{
layerId = "684440DB-903B-4FB4-BFDB-FB0ECFF352DE";
name = Regular;
paths = (
{
closed = 1;
nodes = (
"1300 1700 LINE",
"1300 1394 LINE",
"866 1366 OFFCURVE",
"629 1157 OFFCURVE",
"600 800 CURVE",
"812 1054 OFFCURVE",
"1042 1093 OFFCURVE",
"1300 1099 CURVE",
"1300 800 LINE",
"1800 1200 LINE"
);
},
{
closed = 1;
nodes = (
"400 1300 LINE",
"702 1300 LINE",
"812 1400 OFFCURVE",
"960 1468 OFFCURVE",
"1143 1500 CURVE",
"200 1500 LINE",
"200 400 LINE",
"1700 400 LINE",
"1700 960 LINE",
"1500 800 LINE",
"1500 600 LINE",
"400 600 LINE"
);
}
);
width = 2000;
}
);
unicode = F242;
},
{
glyphname = unif301;
lastChange = "2013-07-11 17:51:26 +0000";
layers = (
{
layerId = "684440DB-903B-4FB4-BFDB-FB0ECFF352DE";
name = Regular;
paths = (
{
closed = 1;
nodes = (
"1828 1525 OFFCURVE",
"1758 1505 OFFCURVE",
"1683 1497 CURVE",
"1759 1542 OFFCURVE",
"1817 1614 OFFCURVE",
"1845 1699 CURVE",
"1774 1657 OFFCURVE",
"1695 1627 OFFCURVE",
"1612 1610 CURVE",
"1545 1682 OFFCURVE",
"1450 1726 OFFCURVE",
"1344 1726 CURVE SMOOTH",
"1142 1726 OFFCURVE",
"977 1562 OFFCURVE",
"977 1360 CURVE SMOOTH",
"977 1331 OFFCURVE",
"981 1303 OFFCURVE",
"987 1276 CURVE",
"682 1291 OFFCURVE",
"412 1437 OFFCURVE",
"231 1659 CURVE",
"199 1605 OFFCURVE",
"181 1542 OFFCURVE",
"181 1475 CURVE SMOOTH",
"181 1347 OFFCURVE",
"246 1235 OFFCURVE",
"344 1169 CURVE",
"284 1171 OFFCURVE",
"228 1188 OFFCURVE",
"178 1215 CURVE",
"178 1214 OFFCURVE",
"178 1212 OFFCURVE",
"178 1211 CURVE SMOOTH",
"178 1033 OFFCURVE",
"305 885 OFFCURVE",
"472 851 CURVE",
"442 843 OFFCURVE",
"409 838 OFFCURVE",
"376 838 CURVE SMOOTH",
"352 838 OFFCURVE",
"329 841 OFFCURVE",
"307 845 CURVE",
"354 699 OFFCURVE",
"489 593 OFFCURVE",
"649 590 CURVE",
"524 492 OFFCURVE",
"366 433 OFFCURVE",
"194 433 CURVE SMOOTH",
"164 433 OFFCURVE",
"135 435 OFFCURVE",
"106 438 CURVE",
"269 334 OFFCURVE",
"462 273 OFFCURVE",
"669 273 CURVE SMOOTH",
"1343 273 OFFCURVE",
"1712 832 OFFCURVE",
"1712 1317 CURVE SMOOTH",
"1712 1333 OFFCURVE",
"1712 1349 OFFCURVE",
"1711 1364 CURVE",
"1783 1416 OFFCURVE",
"1845 1481 OFFCURVE",
"1894 1554 CURVE"
);
}
);
width = 2000;
}
);
unicode = F301;
},
{
glyphname = unif302;
lastChange = "2013-07-11 18:00:52 +0000";
layers = (
{
layerId = "684440DB-903B-4FB4-BFDB-FB0ECFF352DE";
name = Regular;
paths = (
{
closed = 1;
nodes = (
"721 1800 OFFCURVE",
"816 1706 OFFCURVE",
"816 1590 CURVE",
"816 1384 LINE SMOOTH",
"1390 1384 LINE",
"1505 1384 OFFCURVE",
"1600 1289 OFFCURVE",
"1600 1173 CURVE",
"1600 1057 OFFCURVE",
"1505 963 OFFCURVE",
"1390 963 CURVE",
"816 963 LINE SMOOTH",
"816 660 LINE",
"816 635 OFFCURVE",
"823 621 OFFCURVE",
"846 621 CURVE",
"1390 621 LINE",
"1505 621 OFFCURVE",
"1600 527 OFFCURVE",
"1600 411 CURVE",
"1600 295 OFFCURVE",
"1505 200 OFFCURVE",
"1390 200 CURVE",
"869 200 LINE",
"864 200 OFFCURVE",
"859 201 OFFCURVE",
"854 201 CURVE",
"545 209 OFFCURVE",
"394 405 OFFCURVE",
"394 673 CURVE SMOOTH",
"395 676 OFFCURVE",
"395 678 OFFCURVE",
"395 682 CURVE",
"395 1590 LINE",
"395 1706 OFFCURVE",
"489 1800 OFFCURVE",
"605 1800 CURVE"
);
}
);
width = 2000;
}
);
unicode = F302;
},
{
glyphname = unif303;
lastChange = "2013-07-11 18:00:54 +0000";
layers = (
{
layerId = "684440DB-903B-4FB4-BFDB-FB0ECFF352DE";
name = Regular;
paths = (
{
closed = 1;
nodes = (
"295 202 OFFCURVE",
"200 295 OFFCURVE",
"200 411 CURVE SMOOTH",
"200 526 OFFCURVE",
"295 620 OFFCURVE",
"413 620 CURVE SMOOTH",
"530 620 OFFCURVE",
"626 526 OFFCURVE",
"626 411 CURVE SMOOTH",
"626 295 OFFCURVE",
"530 202 OFFCURVE",
"413 202 CURVE SMOOTH"
);
},
{
closed = 1;
nodes = (
"948 397 OFFCURVE",
"870 583 OFFCURVE",
"729 722 CURVE SMOOTH",
"587 861 OFFCURVE",
"400 938 OFFCURVE",
"200 938 CURVE",
"200 1240 LINE",
"782 1240 OFFCURVE",
"1256 773 OFFCURVE",
"1256 200 CURVE",
"948 200 LINE"
);
},
{
closed = 1;
nodes = (
"1492 902 OFFCURVE",
"912 1473 OFFCURVE",
"200 1473 CURVE",
"200 1775 LINE",
"1082 1775 OFFCURVE",
"1800 1068 OFFCURVE",
"1800 200 CURVE",
"1492 200 LINE"
);
}
);
width = 2000;
}
);
unicode = F303;
},
{
glyphname = unif304;
lastChange = "2013-07-11 18:10:30 +0000";
layers = (
{
layerId = "684440DB-903B-4FB4-BFDB-FB0ECFF352DE";
name = Regular;
paths = (
{
closed = 1;
nodes = (
"289 1800 LINE SMOOTH",
"240 1800 OFFCURVE",
"200 1761 OFFCURVE",
"200 1712 CURVE SMOOTH",
"200 288 LINE SMOOTH",
"200 240 OFFCURVE",
"240 200 OFFCURVE",
"289 200 CURVE SMOOTH",
"1055 200 LINE",
"1055 820 LINE",
"846 820 LINE",
"846 1061 LINE",
"1055 1061 LINE",
"1055 1239 LINE SMOOTH",
"1055 1446 OFFCURVE",
"1181 1558 OFFCURVE",
"1366 1558 CURVE SMOOTH",
"1454 1558 OFFCURVE",
"1530 1552 OFFCURVE",
"1552 1549 CURVE",
"1552 1333 LINE",
"1424 1333 LINE SMOOTH",
"1324 1333 OFFCURVE",
"1304 1285 OFFCURVE",
"1304 1215 CURVE SMOOTH",
"1304 1061 LINE",
"1543 1061 LINE",
"1512 820 LINE",
"1304 820 LINE",
"1304 200 LINE",
"1712 200 LINE SMOOTH",
"1761 200 OFFCURVE",
"1800 240 OFFCURVE",
"1800 288 CURVE SMOOTH",
"1800 1712 LINE SMOOTH",
"1800 1761 OFFCURVE",
"1761 1800 OFFCURVE",
"1712 1800 CURVE SMOOTH"
);
}
);
width = 2000;
}
);
unicode = F304;
},
{
glyphname = unif305;
lastChange = "2013-07-11 18:16:41 +0000";
layers = (
{
layerId = "684440DB-903B-4FB4-BFDB-FB0ECFF352DE";
name = Regular;
paths = (
{
closed = 1;
nodes = (
"846 930 LINE",
"600 930 LINE",
"600 1214 LINE",
"846 1214 LINE",
"846 1424 LINE SMOOTH",
"846 1667 OFFCURVE",
"994 1800 OFFCURVE",
"1212 1800 CURVE SMOOTH",
"1316 1800 OFFCURVE",
"1405 1792 OFFCURVE",
"1431 1789 CURVE",
"1431 1534 LINE",
"1280 1534 LINE SMOOTH",
"1162 1534 OFFCURVE",
"1139 1478 OFFCURVE",
"1139 1396 CURVE SMOOTH",
"1139 1214 LINE",
"1421 1214 LINE",
"1384 930 LINE",
"1139 930 LINE",
"1139 200 LINE",
"846 200 LINE"
);
}
);
width = 2000;
}
);
unicode = F305;
},
{
glyphname = unif306;
lastChange = "2013-07-11 18:23:47 +0000";
layers = (
{
layerId = "684440DB-903B-4FB4-BFDB-FB0ECFF352DE";
name = Regular;
paths = (
{
closed = 1;
nodes = (
"200 500 LINE",
"200 1400 LINE",
"700 1400 LINE",
"900 1600 LINE",
"1800 1600 LINE",
"1800 500 LINE"
);
},
{
closed = 1;
nodes = (
"934 1300 OFFCURVE",
"800 1166 OFFCURVE",
"800 1000 CURVE SMOOTH",
"800 834 OFFCURVE",
"934 700 OFFCURVE",
"1100 700 CURVE SMOOTH",
"1266 700 OFFCURVE",
"1400 834 OFFCURVE",
"1400 1000 CURVE SMOOTH",
"1400 1166 OFFCURVE",
"1266 1300 OFFCURVE",
"1100 1300 CURVE SMOOTH"
);
},
{
closed = 1;
nodes = (
"300 1500 LINE",
"300 1700 LINE",
"600 1700 LINE",
"600 1500 LINE"
);
}
);
width = 2000;
}
);
unicode = F306;
},
{
glyphname = unif307;
lastChange = "2013-07-11 20:11:06 +0000";
layers = (
{
layerId = "684440DB-903B-4FB4-BFDB-FB0ECFF352DE";
name = Regular;
paths = (
{
closed = 1;
nodes = (
"826 1652 OFFCURVE",
"911 1717 OFFCURVE",
"1000 1717 CURVE SMOOTH",
"1088 1717 OFFCURVE",
"1174 1652 OFFCURVE",
"1196 1554 CURVE SMOOTH",
"1225 1426 OFFCURVE",
"1141 1208 OFFCURVE",
"1000 1208 CURVE SMOOTH",
"858 1208 OFFCURVE",
"774 1426 OFFCURVE",
"803 1554 CURVE SMOOTH"
);
},
{
closed = 1;
nodes = (
"1295 1547 OFFCURVE",
"1368 1603 OFFCURVE",
"1442 1603 CURVE SMOOTH",
"1517 1603 OFFCURVE",
"1590 1547 OFFCURVE",
"1609 1464 CURVE SMOOTH",
"1634 1356 OFFCURVE",
"1562 1171 OFFCURVE",
"1442 1171 CURVE SMOOTH",
"1323 1171 OFFCURVE",
"1251 1356 OFFCURVE",
"1276 1464 CURVE SMOOTH"
);
},
{
closed = 1;
nodes = (
"409 1547 OFFCURVE",
"482 1603 OFFCURVE",
"557 1603 CURVE SMOOTH",
"632 1603 OFFCURVE",
"705 1547 OFFCURVE",
"724 1464 CURVE SMOOTH",
"749 1356 OFFCURVE",
"677 1171 OFFCURVE",
"557 1171 CURVE SMOOTH",
"437 1171 OFFCURVE",
"365 1356 OFFCURVE",
"390 1464 CURVE SMOOTH"
);
},
{
closed = 1;
nodes = (
"1414 1123 OFFCURVE",
"1388 1121 OFFCURVE",
"1363 1117 CURVE",
"1373 1107 OFFCURVE",
"1383 1095 OFFCURVE",
"1391 1084 CURVE SMOOTH",
"1441 1017 OFFCURVE",
"1488 901 OFFCURVE",
"1433 723 CURVE SMOOTH",
"1322 346 LINE",
"1356 326 OFFCURVE",
"1399 315 OFFCURVE",
"1442 315 CURVE SMOOTH",
"1527 315 OFFCURVE",
"1607 356 OFFCURVE",
"1627 418 CURVE SMOOTH",
"1734 783 LINE SMOOTH",
"1800 994 OFFCURVE",
"1673 1123 OFFCURVE",
"1442 1123 CURVE SMOOTH"
);
},
{
closed = 1;
nodes = (
"616 1095 OFFCURVE",
"626 1107 OFFCURVE",
"636 1117 CURVE",
"611 1121 OFFCURVE",
"584 1123 OFFCURVE",
"557 1123 CURVE SMOOTH",
"326 1123 OFFCURVE",
"200 994 OFFCURVE",
"265 783 CURVE SMOOTH",
"372 418 LINE SMOOTH",
"392 356 OFFCURVE",
"472 315 OFFCURVE",
"557 315 CURVE SMOOTH",
"600 315 OFFCURVE",
"643 326 OFFCURVE",
"677 346 CURVE",
"565 725 LINE SMOOTH",
"511 901 OFFCURVE",
"558 1017 OFFCURVE",
"607 1084 CURVE SMOOTH"
);
},
{
closed = 1;
nodes = (
"1194 249 OFFCURVE",
"1098 200 OFFCURVE",
"1000 200 CURVE SMOOTH",
"900 200 OFFCURVE",
"805 249 OFFCURVE",
"782 321 CURVE SMOOTH",
"656 751 LINE SMOOTH",
"579 1000 OFFCURVE",
"728 1153 OFFCURVE",
"1000 1153 CURVE",
"1271 1153 OFFCURVE",
"1420 1000 OFFCURVE",
"1342 751 CURVE SMOOTH",
"1217 321 LINE SMOOTH"
);
}
);
width = 2000;
}
);
unicode = F307;
},
{
glyphname = unif308;
lastChange = "2013-07-17 17:16:34 +0000";
layers = (
{
layerId = "684440DB-903B-4FB4-BFDB-FB0ECFF352DE";
name = Regular;
paths = (
{
closed = 1;
nodes = (
"1685 1285 LINE",
"1576 1423 OFFCURVE",
"1464 1577 OFFCURVE",
"1294 1643 CURVE SMOOTH",
"1131 1706 OFFCURVE",
"906 1695 OFFCURVE",
"636 1613 CURVE",
"882 1611 OFFCURVE",
"1066 1551 OFFCURVE",
"1203 1465 CURVE",
"106 473 LINE",
"67 434 OFFCURVE",
"67 371 OFFCURVE",
"106 332 CURVE SMOOTH",
"226 211 LINE SMOOTH",
"266 172 OFFCURVE",
"329 172 OFFCURVE",
"368 211 CURVE",
"894 681 LINE",
"1355 1340 LINE",
"1425 1266 OFFCURVE",
"1474 1185 OFFCURVE",
"1506 1109 CURVE SMOOTH",
"1422 1027 LINE",
"1564 885 LINE",
"1911 1226 LINE",
"1770 1368 LINE"
);
}
);
width = 2000;
}
);
unicode = F308;
},
{
glyphname = unif309;
lastChange = "2013-07-17 13:05:49 +0000";
layers = (
{
layerId = "684440DB-903B-4FB4-BFDB-FB0ECFF352DE";
name = Regular;
paths = (
{
closed = 1;
nodes = (
"506 1813 OFFCURVE",
"-7 1157 OFFCURVE",
"194 704 CURVE SMOOTH",
"367 315 OFFCURVE",
"867 188 OFFCURVE",
"1264 438 CURVE SMOOTH",
"1657 687 OFFCURVE",
"1752 1306 OFFCURVE",
"1643 1544 CURVE SMOOTH",
"1557 1732 OFFCURVE",
"1387 1721 OFFCURVE",
"1290 1667 CURVE SMOOTH",
"1176 1603 OFFCURVE",
"949 1318 OFFCURVE",
"845 1381 CURVE SMOOTH",
"660 1493 OFFCURVE",
"956 1660 OFFCURVE",
"855 1694 CURVE SMOOTH"
);
},
{
closed = 1;
nodes = (
"907 1204 OFFCURVE",
"1296 1478 OFFCURVE",
"1355 1329 CURVE SMOOTH",
"1446 1099 OFFCURVE",
"1049 885 OFFCURVE",
"976 1049 CURVE SMOOTH"
);
}
);
width = 2000;
}
);
unicode = F309;
},
{
glyphname = unif310;
lastChange = "2013-07-17 17:16:08 +0000";
layers = (
{
layerId = "684440DB-903B-4FB4-BFDB-FB0ECFF352DE";
name = Regular;
paths = (
{
closed = 1;
nodes = (
"400 600 LINE",
"1000 600 LINE",
"1000 399 LINE",
"200 399 LINE",
"200 1600 LINE",
"1000 1600 LINE",
"1000 1400 LINE",
"400 1400 LINE"
);
},
{
closed = 1;
nodes = (
"600 800 LINE",
"1200 800 LINE",
"1200 500 LINE",
"1800 1000 LINE",
"1200 1500 LINE",
"1200 1200 LINE",
"600 1200 LINE"
);
}
);
width = 2000;
}
);
unicode = F310;
},
{
glyphname = unif311;
lastChange = "2013-07-17 13:04:46 +0000";
layers = (
{
layerId = "684440DB-903B-4FB4-BFDB-FB0ECFF352DE";
name = Regular;
paths = (
{
closed = 1;
nodes = (
"266 437 OFFCURVE",
"200 610 OFFCURVE",
"200 800 CURVE SMOOTH",
"200 1241 OFFCURVE",
"558 1600 OFFCURVE",
"1000 1600 CURVE SMOOTH",
"1442 1600 OFFCURVE",
"1800 1241 OFFCURVE",
"1800 800 CURVE SMOOTH",
"1800 610 OFFCURVE",
"1734 437 OFFCURVE",
"1624 299 CURVE",
"376 299 LINE"
);
},
{
closed = 1;
nodes = (
"769 777 OFFCURVE",
"769 642 OFFCURVE",
"852 559 CURVE SMOOTH",
"936 475 OFFCURVE",
"1070 475 OFFCURVE",
"1154 559 CURVE SMOOTH",
"1237 642 OFFCURVE",
"1503 1210 OFFCURVE",
"1503 1210 CURVE SMOOTH",
"1503 1210 OFFCURVE",
"936 943 OFFCURVE",
"852 860 CURVE SMOOTH"
);
},
{
closed = 1;
nodes = (
"900 644 OFFCURVE",
"945 600 OFFCURVE",
"1000 600 CURVE SMOOTH",
"1055 600 OFFCURVE",
"1100 644 OFFCURVE",
"1100 700 CURVE SMOOTH",
"1100 755 OFFCURVE",
"1055 800 OFFCURVE",
"1000 800 CURVE SMOOTH",
"945 800 OFFCURVE",
"900 755 OFFCURVE",
"900 700 CURVE SMOOTH"
);
},
{
closed = 1;
nodes = (
"900 1344 OFFCURVE",
"945 1300 OFFCURVE",
"1000 1300 CURVE SMOOTH",
"1055 1300 OFFCURVE",
"1100 1344 OFFCURVE",
"1100 1400 CURVE SMOOTH",
"1100 1455 OFFCURVE",
"1055 1500 OFFCURVE",
"1000 1500 CURVE SMOOTH",
"945 1500 OFFCURVE",
"900 1455 OFFCURVE",
"900 1400 CURVE SMOOTH"
);
},
{
closed = 1;
nodes = (
"400 1144 OFFCURVE",
"445 1100 OFFCURVE",
"500 1100 CURVE SMOOTH",
"555 1100 OFFCURVE",
"600 1144 OFFCURVE",
"600 1200 CURVE SMOOTH",
"600 1255 OFFCURVE",
"555 1300 OFFCURVE",
"500 1300 CURVE SMOOTH",
"445 1300 OFFCURVE",
"400 1255 OFFCURVE",
"400 1200 CURVE SMOOTH"
);
},
{
closed = 1;
nodes = (
"300 644 OFFCURVE",
"345 600 OFFCURVE",
"400 600 CURVE SMOOTH",
"455 600 OFFCURVE",
"500 644 OFFCURVE",
"500 700 CURVE SMOOTH",
"500 755 OFFCURVE",
"455 800 OFFCURVE",
"400 800 CURVE SMOOTH",
"345 800 OFFCURVE",
"300 755 OFFCURVE",
"300 700 CURVE SMOOTH"
);
},
{
closed = 1;
nodes = (
"1500 644 OFFCURVE",
"1545 600 OFFCURVE",
"1600 600 CURVE SMOOTH",
"1655 600 OFFCURVE",
"1700 644 OFFCURVE",
"1700 700 CURVE SMOOTH",
"1700 755 OFFCURVE",
"1655 800 OFFCURVE",
"1600 800 CURVE SMOOTH",
"1545 800 OFFCURVE",
"1500 755 OFFCURVE",
"1500 700 CURVE SMOOTH"
);
}
);
width = 2000;
}
);
unicode = F311;
},
{
glyphname = unif312;
lastChange = "2013-07-17 13:36:00 +0000";
layers = (
{
layerId = "684440DB-903B-4FB4-BFDB-FB0ECFF352DE";
name = Regular;
paths = (
{
closed = 1;
nodes = (
"1700 1400 LINE SMOOTH",
"1700 1676 OFFCURVE",
"1476 1900 OFFCURVE",
"1200 1900 CURVE SMOOTH",
"1129 1900 OFFCURVE",
"1061 1885 OFFCURVE",
"1000 1858 CURVE",
"939 1885 OFFCURVE",
"871 1900 OFFCURVE",
"800 1900 CURVE SMOOTH",
"524 1900 OFFCURVE",
"300 1676 OFFCURVE",
"300 1400 CURVE SMOOTH",
"300 1200 LINE",
"200 1200 LINE",
"200 100 LINE",
"1800 100 LINE",
"1800 1200 LINE",
"1700 1200 LINE"
);
},
{
closed = 1;
nodes = (
"1500 1200 LINE",
"1300 1200 LINE",
"1300 1400 LINE SMOOTH",
"1300 1513 OFFCURVE",
"1261 1616 OFFCURVE",
"1198 1700 CURVE",
"1198 1700 OFFCURVE",
"1199 1700 OFFCURVE",
"1200 1700 CURVE SMOOTH",
"1365 1700 OFFCURVE",
"1500 1565 OFFCURVE",
"1500 1400 CURVE SMOOTH"
);
},
{
closed = 1;
nodes = (
"1061 1567 OFFCURVE",
"1100 1488 OFFCURVE",
"1100 1400 CURVE SMOOTH",
"1100 1200 LINE",
"900 1200 LINE",
"900 1400 LINE SMOOTH",
"900 1488 OFFCURVE",
"939 1567 OFFCURVE",
"1000 1622 CURVE"
);
},
{
closed = 1;
nodes = (
"500 1565 OFFCURVE",
"635 1700 OFFCURVE",
"800 1700 CURVE SMOOTH",
"801 1700 OFFCURVE",
"802 1700 OFFCURVE",
"802 1700 CURVE",
"739 1616 OFFCURVE",
"700 1513 OFFCURVE",
"700 1400 CURVE SMOOTH",
"700 1200 LINE",
"500 1200 LINE",
"500 1400 LINE SMOOTH"
);
}
);
width = 2000;
}
);
unicode = F312;
},
{
glyphname = unif313;
lastChange = "2013-07-17 13:36:00 +0000";
layers = (
{
layerId = "684440DB-903B-4FB4-BFDB-FB0ECFF352DE";
name = Regular;
paths = (
{
closed = 1;
nodes = (
"310 300 LINE",
"560 300 LINE",
"700 80 LINE",
"951 659 LINE",
"738 608 LINE",
"613 833 LINE"
);
},
{
closed = 1;
nodes = (
"1690 300 LINE",
"1440 300 LINE",
"1300 80 LINE",
"1047 663 LINE",
"1255 616 LINE",
"1383 840 LINE"
);
},
{
closed = 1;
nodes = (
"646 1608 LINE",
"771 1808 LINE",
"1000 1754 LINE",
"1230 1809 LINE",
"1354 1608 LINE",
"1554 1484 LINE",
"1500 1254 LINE",
"1554 1025 LINE",
"1353 901 LINE",
"1230 700 LINE",
"1000 754 LINE",
"770 700 LINE",
"647 901 LINE",
"446 1025 LINE",
"500 1254 LINE",
"446 1484 LINE"
);
},
{
closed = 1;
nodes = (
"1221 850 OFFCURVE",
"1400 1029 OFFCURVE",
"1400 1251 CURVE SMOOTH",
"1400 1471 OFFCURVE",
"1221 1650 OFFCURVE",
"1001 1650 CURVE SMOOTH",
"779 1650 OFFCURVE",
"600 1471 OFFCURVE",
"600 1251 CURVE SMOOTH",
"600 1029 OFFCURVE",
"779 850 OFFCURVE",
"1001 850 CURVE SMOOTH"
);
},
{
closed = 1;
nodes = (
"1165 950 OFFCURVE",
"1300 1084 OFFCURVE",
"1300 1250 CURVE SMOOTH",
"1300 1415 OFFCURVE",
"1165 1550 OFFCURVE",
"999 1550 CURVE SMOOTH",
"833 1550 OFFCURVE",
"700 1415 OFFCURVE",
"700 1250 CURVE SMOOTH",
"700 1084 OFFCURVE",
"833 950 OFFCURVE",
"999 950 CURVE SMOOTH"
);
}
);
width = 2000;
}
);
unicode = F313;
},
{
glyphname = unif314;
lastChange = "2013-07-17 13:48:19 +0000";
layers = (
{
layerId = "684440DB-903B-4FB4-BFDB-FB0ECFF352DE";
name = Regular;
paths = (
{
closed = 1;
nodes = (
"200 200 LINE",
"200 900 LINE",
"900 900 LINE",
"900 200 LINE"
);
},
{
closed = 1;
nodes = (
"300 800 LINE",
"300 300 LINE",
"800 300 LINE",
"800 800 LINE"
);
},
{
closed = 1;
nodes = (
"200 1100 LINE",
"900 1100 LINE",
"900 1800 LINE",
"200 1800 LINE"
);
},
{
closed = 1;
nodes = (
"800 1300 LINE",
"650 1450 LINE",
"800 1600 LINE"
);
},
{
closed = 1;
nodes = (
"400 1700 LINE",
"700 1700 LINE",
"550 1550 LINE"
);
},
{
closed = 1;
nodes = (
"300 1300 LINE",
"300 1600 LINE",
"450 1450 LINE"
);
},
{
closed = 1;
nodes = (
"700 1200 LINE",
"400 1200 LINE",
"550 1350 LINE"
);
},
{
closed = 1;
nodes = (
"1800 1800 LINE",
"1800 1100 LINE",
"1100 1100 LINE",
"1100 1800 LINE"
);
},
{
closed = 1;
nodes = (
"1700 1200 LINE",
"1700 1700 LINE",
"1200 1700 LINE",
"1200 1200 LINE"
);
},
{
closed = 1;
nodes = (
"1800 900 LINE",
"1100 900 LINE",
"1100 200 LINE",
"1800 200 LINE"
);
},
{
closed = 1;
nodes = (
"1200 700 LINE",
"1350 550 LINE",
"1200 400 LINE"
);
},
{
closed = 1;
nodes = (
"1600 300 LINE",
"1300 300 LINE",
"1450 450 LINE"
);
},
{
closed = 1;
nodes = (
"1700 700 LINE",
"1700 400 LINE",
"1550 550 LINE"
);
},
{
closed = 1;
nodes = (
"1300 800 LINE",
"1600 800 LINE",
"1450 650 LINE"
);
}
);
width = 2000;
}
);
unicode = F314;
},
{
glyphname = unif315;
lastChange = "2013-07-17 13:57:40 +0000";
layers = (
{
layerId = "684440DB-903B-4FB4-BFDB-FB0ECFF352DE";
name = Regular;
paths = (
{
closed = 1;
nodes = (
"1500 1400 LINE SMOOTH",
"1500 1676 OFFCURVE",
"1276 1900 OFFCURVE",
"1000 1900 CURVE SMOOTH",
"724 1900 OFFCURVE",
"500 1676 OFFCURVE",
"500 1400 CURVE SMOOTH",
"500 1200 LINE",
"390 1200 OFFCURVE",
"300 1110 OFFCURVE",
"300 1000 CURVE SMOOTH",
"300 300 LINE SMOOTH",
"300 190 OFFCURVE",
"390 100 OFFCURVE",
"500 100 CURVE SMOOTH",
"1500 100 LINE SMOOTH",
"1610 100 OFFCURVE",
"1700 190 OFFCURVE",
"1700 300 CURVE SMOOTH",
"1700 1000 LINE SMOOTH",
"1700 1110 OFFCURVE",
"1610 1200 OFFCURVE",
"1500 1200 CURVE"
);
},
{
closed = 1;
nodes = (
"800 1510 OFFCURVE",
"890 1600 OFFCURVE",
"1000 1600 CURVE SMOOTH",
"1110 1600 OFFCURVE",
"1200 1510 OFFCURVE",
"1200 1400 CURVE SMOOTH",
"1200 1200 LINE",
"800 1200 LINE",
"800 1400 LINE SMOOTH"
);
},
{
closed = 1;
nodes = (
"1080 375 LINE",
"920 375 LINE",
"920 592 LINE",
"850 623 OFFCURVE",
"800 693 OFFCURVE",
"800 775 CURVE SMOOTH",
"800 885 OFFCURVE",
"890 975 OFFCURVE",
"1000 975 CURVE SMOOTH",
"1110 975 OFFCURVE",
"1200 885 OFFCURVE",
"1200 775 CURVE SMOOTH",
"1200 693 OFFCURVE",
"1150 623 OFFCURVE",
"1080 592 CURVE"
);
}
);
width = 2000;
}
);
unicode = F315;
},
{
glyphname = unif316;
lastChange = "2013-07-17 17:16:43 +0000";
layers = (
{
layerId = "684440DB-903B-4FB4-BFDB-FB0ECFF352DE";
name = Regular;
paths = (
{
closed = 1;
nodes = (
"601 1600 LINE",
"601 1000 LINE",
"400 1000 LINE",
"400 1800 LINE",
"1601 1800 LINE",
"1601 1000 LINE",
"1401 1000 LINE",
"1401 1600 LINE"
);
},
{
closed = 1;
nodes = (
"801 1400 LINE",
"801 800 LINE",
"501 800 LINE",
"1001 200 LINE",
"1501 800 LINE",
"1201 800 LINE",
"1201 1400 LINE"
);
}
);
width = 2000;
}
);
unicode = F316;
},
{
glyphname = unif317;
lastChange = "2013-07-17 13:38:29 +0000";
layers = (
{
layerId = "684440DB-903B-4FB4-BFDB-FB0ECFF352DE";
name = Regular;
paths = (
{
closed = 1;
nodes = (
"1400 400 LINE",
"1400 1000 LINE",
"1601 1000 LINE",
"1601 200 LINE",
"400 200 LINE",
"400 1000 LINE",
"600 1000 LINE",
"600 400 LINE"
);
},
{
closed = 1;
nodes = (
"1200 600 LINE",
"1200 1200 LINE",
"1500 1200 LINE",
"1000 1800 LINE",
"500 1200 LINE",
"800 1200 LINE",
"800 600 LINE"
);
}
);
width = 2000;
}
);
unicode = F317;
},
{
glyphname = unif318;
lastChange = "2013-07-17 14:03:15 +0000";
layers = (
{
layerId = "684440DB-903B-4FB4-BFDB-FB0ECFF352DE";
name = Regular;
paths = (
{
closed = 1;
nodes = (
"500 500 LINE",
"400 500 LINE",
"400 1400 LINE",
"1100 1400 LINE",
"900 1600 LINE",
"200 1600 LINE",
"200 300 LINE",
"1800 300 LINE",
"1800 1300 LINE",
"500 1300 LINE"
);
}
);
width = 2000;
}
);
unicode = F318;
},
{
glyphname = unif319;
lastChange = "2013-08-15 12:50:36 +0000";
layers = (
{
layerId = "684440DB-903B-4FB4-BFDB-FB0ECFF352DE";
name = Regular;
paths = (
{
closed = 1;
nodes = (
"1900 503 OFFCURVE",
"1497 100 OFFCURVE",
"1000 100 CURVE SMOOTH",
"503 100 OFFCURVE",
"100 503 OFFCURVE",
"100 1000 CURVE SMOOTH",
"100 1497 OFFCURVE",
"503 1900 OFFCURVE",
"1000 1900 CURVE SMOOTH",
"1497 1900 OFFCURVE",
"1900 1497 OFFCURVE",
"1900 1000 CURVE SMOOTH"
);
},
{
closed = 1;
nodes = (
"664 917 OFFCURVE",
"640 826 OFFCURVE",
"620 739 CURVE",
"676 619 OFFCURVE",
"949 653 OFFCURVE",
"940 235 CURVE",
"1266 375 OFFCURVE",
"1343 558 OFFCURVE",
"1346 705 CURVE SMOOTH",
"1349 855 OFFCURVE",
"1312 954 OFFCURVE",
"983 1013 CURVE SMOOTH",
"655 1073 OFFCURVE",
"520 1228 OFFCURVE",
"663 1340 CURVE SMOOTH",
"753 1411 OFFCURVE",
"823 1204 OFFCURVE",
"974 1225 CURVE",
"827 1369 OFFCURVE",
"893 1644 OFFCURVE",
"977 1782 CURVE",
"632 1767 OFFCURVE",
"349 1535 OFFCURVE",
"252 1219 CURVE",
"352 1107 OFFCURVE",
"516 1019 OFFCURVE",
"800 990 CURVE"
);
},
{
closed = 1;
nodes = (
"1542 1331 OFFCURVE",
"1448 1219 OFFCURVE",
"1480 1108 CURVE SMOOTH",
"1516 983 OFFCURVE",
"1656 940 OFFCURVE",
"1733 754 CURVE",
"1751 814 OFFCURVE",
"1864 1092 OFFCURVE",
"1649 1422 CURVE"
);
}
);
width = 2000;
}
);
unicode = F319;
},
{
glyphname = unif320;
lastChange = "2013-09-05 08:20:40 +0000";
layers = (
{
layerId = "684440DB-903B-4FB4-BFDB-FB0ECFF352DE";
name = Regular;
paths = (
{
closed = 1;
nodes = (
"1400 1400 LINE",
"1900 1000 LINE",
"1400 600 LINE"
);
},
{
closed = 1;
nodes = (
"552 1800 LINE SMOOTH",
"302 1800 OFFCURVE",
"100 1598 OFFCURVE",
"100 1348 CURVE SMOOTH",
"100 1098 OFFCURVE",
"302 896 OFFCURVE",
"552 896 CURVE SMOOTH",
"595 896 LINE",
"595 300 LINE SMOOTH",
"595 245 OFFCURVE",
"640 200 OFFCURVE",
"695 200 CURVE SMOOTH",
"750 200 OFFCURVE",
"795 245 OFFCURVE",
"795 300 CURVE SMOOTH",
"795 1500 LINE SMOOTH",
"795 1555 OFFCURVE",
"840 1600 OFFCURVE",
"895 1600 CURVE SMOOTH",
"950 1600 OFFCURVE",
"995 1555 OFFCURVE",
"995 1500 CURVE SMOOTH",
"995 300 LINE SMOOTH",
"995 245 OFFCURVE",
"1040 200 OFFCURVE",
"1095 200 CURVE SMOOTH",
"1150 200 OFFCURVE",
"1195 245 OFFCURVE",
"1195 300 CURVE SMOOTH",
"1195 1600 LINE",
"1295 1600 LINE SMOOTH",
"1350 1600 OFFCURVE",
"1395 1645 OFFCURVE",
"1395 1700 CURVE SMOOTH",
"1395 1755 OFFCURVE",
"1350 1800 OFFCURVE",
"1295 1800 CURVE SMOOTH"
);
}
);
width = 2000;
}
);
unicode = F320;
},
{
glyphname = unif321;
lastChange = "2013-09-05 08:20:46 +0000";
layers = (
{
layerId = "684440DB-903B-4FB4-BFDB-FB0ECFF352DE";
name = Regular;
paths = (
{
closed = 1;
nodes = (
"975 1911 OFFCURVE",
"490 1760 OFFCURVE",
"288 1365 CURVE",
"110 1456 LINE",
"149 874 LINE",
"644 1182 LINE",
"456 1279 LINE",
"610 1580 OFFCURVE",
"978 1699 OFFCURVE",
"1279 1545 CURVE SMOOTH",
"1580 1390 OFFCURVE",
"1699 1022 OFFCURVE",
"1544 721 CURVE SMOOTH",
"1390 420 OFFCURVE",
"1022 301 OFFCURVE",
"721 455 CURVE SMOOTH",
"565 536 OFFCURVE",
"458 674 OFFCURVE",
"413 831 CURVE",
"249 728 LINE",
"315 544 OFFCURVE",
"448 384 OFFCURVE",
"635 288 CURVE SMOOTH",
"1029 87 OFFCURVE",
"1511 242 OFFCURVE",
"1712 635 CURVE SMOOTH",
"1913 1028 OFFCURVE",
"1758 1511 OFFCURVE",
"1365 1712 CURVE SMOOTH"
);
},
{
closed = 1;
nodes = (
"936 923 OFFCURVE",
"944 918 OFFCURVE",
"952 914 CURVE",
"950 912 LINE",
"1400 700 LINE",
"1097 1019 LINE",
"1000 1500 LINE",
"903 1019 LINE",
"904 1019 LINE",
"903 1012 OFFCURVE",
"900 1007 OFFCURVE",
"900 1000 CURVE SMOOTH",
"900 972 OFFCURVE",
"911 947 OFFCURVE",
"929 929 CURVE SMOOTH"
);
}
);
width = 2000;
}
);
unicode = F321;
},
{
glyphname = unif322;
lastChange = "2013-10-02 18:25:35 +0000";
layers = (
{
layerId = "684440DB-903B-4FB4-BFDB-FB0ECFF352DE";
name = Regular;
paths = (
{
closed = 1;
nodes = (
"400 1500 LINE",
"400 1500 OFFCURVE",
"425 1596 OFFCURVE",
"434 1636 CURVE SMOOTH",
"444 1677 OFFCURVE",
"478 1700 OFFCURVE",
"514 1700 CURVE SMOOTH",
"845 1700 LINE SMOOTH",
"889 1700 OFFCURVE",
"911 1675 OFFCURVE",
"923 1631 CURVE SMOOTH",
"930 1608 OFFCURVE",
"1000 1400 OFFCURVE",
"1000 1400 CURVE SMOOTH",
"484 1400 LINE SMOOTH",
"447 1400 OFFCURVE",
"397 1383 OFFCURVE",
"386 1330 CURVE SMOOTH",
"350 1153 OFFCURVE",
"165 417 OFFCURVE",
"165 417 CURVE SMOOTH",
"9 1416 LINE SMOOTH",
"4 1468 OFFCURVE",
"41 1500 OFFCURVE",
"78 1500 CURVE SMOOTH"
);
},
{
closed = 1;
nodes = (
"888 1500 LINE",
"888 1500 OFFCURVE",
"836 1600 OFFCURVE",
"788 1600 CURVE SMOOTH",
"575 1600 LINE SMOOTH",
"530 1600 OFFCURVE",
"488 1500 OFFCURVE",
"488 1500 CURVE"
);
},
{
closed = 1;
nodes = (
"296 418 OFFCURVE",
"311 480 OFFCURVE",
"318 517 CURVE SMOOTH",
"331 580 OFFCURVE",
"490 1250 OFFCURVE",
"490 1250 CURVE SMOOTH",
"496 1281 OFFCURVE",
"527 1300 OFFCURVE",
"559 1300 CURVE SMOOTH",
"1000 1300 LINE",
"1071 1442 LINE",
"1071 1442 OFFCURVE",
"1106 1500 OFFCURVE",
"1158 1500 CURVE SMOOTH",
"1534 1500 LINE SMOOTH",
"1574 1500 OFFCURVE",
"1600 1463 OFFCURVE",
"1600 1447 CURVE SMOOTH",
"1600 1300 LINE",
"1923 1300 LINE SMOOTH",
"1955 1300 OFFCURVE",
"1992 1277 OFFCURVE",
"1985 1227 CURVE SMOOTH",
"1985 1227 OFFCURVE",
"1861 602 OFFCURVE",
"1817 383 CURVE SMOOTH",
"1806 331 OFFCURVE",
"1768 300 OFFCURVE",
"1714 300 CURVE SMOOTH",
"141 300 LINE",
"191 300 OFFCURVE",
"236 328 OFFCURVE",
"267 375 CURVE SMOOTH"
);
},
{
closed = 1;
nodes = (
"1538 1300 OFFCURVE",
"1513 1400 OFFCURVE",
"1442 1400 CURVE SMOOTH",
"1213 1400 LINE SMOOTH",
"1158 1400 OFFCURVE",
"1100 1300 OFFCURVE",
"1100 1300 CURVE",
"1538 1300 LINE"
);
}
);
width = 2000;
}
);
unicode = F322;
},
{
glyphname = unif323;
lastChange = "2013-09-16 17:12:18 +0000";
layers = (
{
layerId = "684440DB-903B-4FB4-BFDB-FB0ECFF352DE";
name = Regular;
paths = (
{
closed = 1;
nodes = (
"100 800 LINE",
"800 100 LINE",
"1800 1100 LINE",
"1800 1800 LINE",
"1100 1800 LINE"
);
},
{
closed = 1;
nodes = (
"1290 1200 OFFCURVE",
"1200 1290 OFFCURVE",
"1200 1400 CURVE SMOOTH",
"1200 1510 OFFCURVE",
"1290 1600 OFFCURVE",
"1400 1600 CURVE SMOOTH",
"1510 1600 OFFCURVE",
"1600 1510 OFFCURVE",
"1600 1400 CURVE SMOOTH",
"1600 1290 OFFCURVE",
"1510 1200 OFFCURVE",
"1400 1200 CURVE SMOOTH"
);
}
);
width = 2000;
}
);
unicode = F323;
},
{
glyphname = unif324;
lastChange = "2013-09-23 10:23:32 +0000";
layers = (
{
layerId = "684440DB-903B-4FB4-BFDB-FB0ECFF352DE";
name = Regular;
paths = (
{
closed = 1;
nodes = (
"2000 448 OFFCURVE",
"1551 0 OFFCURVE",
"1000 0 CURVE SMOOTH",
"448 0 OFFCURVE",
"0 448 OFFCURVE",
"0 1000 CURVE SMOOTH",
"0 1551 OFFCURVE",
"448 2000 OFFCURVE",
"1000 2000 CURVE SMOOTH",
"1551 2000 OFFCURVE",
"2000 1551 OFFCURVE",
"2000 1000 CURVE SMOOTH"
);
},
{
closed = 1;
nodes = (
"778 463 LINE",
"959 1046 LINE",
"833 1387 LINE",
"741 1395 LINE SMOOTH",
"691 1397 OFFCURVE",
"697 1520 OFFCURVE",
"747 1517 CURVE",
"747 1517 OFFCURVE",
"893 1505 OFFCURVE",
"980 1505 CURVE SMOOTH",
"1074 1505 OFFCURVE",
"1218 1517 OFFCURVE",
"1218 1517 CURVE",
"1268 1520 OFFCURVE",
"1274 1400 OFFCURVE",
"1224 1395 CURVE",
"1224 1395 OFFCURVE",
"1196 1380 OFFCURVE",
"1142 1378 CURVE",
"1445 541 LINE",
"1445 541 OFFCURVE",
"1585 892 OFFCURVE",
"1585 1041 CURVE SMOOTH",
"1585 1151 OFFCURVE",
"1565 1226 OFFCURVE",
"1530 1287 CURVE SMOOTH",
"1485 1361 OFFCURVE",
"1440 1423 OFFCURVE",
"1440 1497 CURVE",
"1440 1616 OFFCURVE",
"1537 1666 OFFCURVE",
"1605 1655 CURVE",
"1445 1802 OFFCURVE",
"1233 1889 OFFCURVE",
"1000 1889 CURVE SMOOTH",
"687 1889 OFFCURVE",
"412 1731 OFFCURVE",
"253 1487 CURVE",
"274 1486 OFFCURVE",
"293 1486 OFFCURVE",
"311 1486 CURVE SMOOTH",
"403 1486 OFFCURVE",
"548 1497 OFFCURVE",
"548 1497 CURVE",
"598 1499 OFFCURVE",
"604 1392 OFFCURVE",
"554 1386 CURVE",
"554 1386 OFFCURVE",
"492 1380 OFFCURVE",
"437 1378 CURVE"
);
},
{
closed = 1;
nodes = (
"1643 742 OFFCURVE",
"1546 481 OFFCURVE",
"1449 222 CURVE",
"1716 376 OFFCURVE",
"1889 671 OFFCURVE",
"1889 1000 CURVE SMOOTH",
"1889 1154 OFFCURVE",
"1854 1296 OFFCURVE",
"1784 1425 CURVE",
"1815 1187 OFFCURVE",
"1765 1064 OFFCURVE",
"1741 1000 CURVE SMOOTH"
);
},
{
closed = 1;
nodes = (
"467 580 OFFCURVE",
"325 970 OFFCURVE",
"183 1359 CURVE",
"134 1248 OFFCURVE",
"111 1130 OFFCURVE",
"111 1000 CURVE SMOOTH",
"111 647 OFFCURVE",
"312 335 OFFCURVE",
"610 191 CURVE"
);
},
{
closed = 1;
nodes = (
"933 618 OFFCURVE",
"852 382 OFFCURVE",
"771 144 CURVE",
"843 122 OFFCURVE",
"921 111 OFFCURVE",
"1000 111 CURVE SMOOTH",
"1095 111 OFFCURVE",
"1185 127 OFFCURVE",
"1271 156 CURVE",
"1013 854 LINE"
);
}
);
width = 2000;
}
);
unicode = F324;
},
{
glyphname = unif325;
lastChange = "2013-10-03 01:02:46 +0000";
layers = (
{
layerId = "684440DB-903B-4FB4-BFDB-FB0ECFF352DE";
name = Regular;
paths = (
{
closed = 1;
nodes = (
"1800 700 LINE",
"1800 900 LINE SMOOTH",
"1800 1010 OFFCURVE",
"1710 1100 OFFCURVE",
"1600 1100 CURVE SMOOTH",
"1100 1100 LINE",
"1100 1300 LINE",
"1200 1300 LINE SMOOTH",
"1255 1300 OFFCURVE",
"1300 1345 OFFCURVE",
"1300 1401 CURVE SMOOTH",
"1300 1699 LINE SMOOTH",
"1300 1755 OFFCURVE",
"1255 1800 OFFCURVE",
"1200 1800 CURVE SMOOTH",
"800 1800 LINE SMOOTH",
"745 1800 OFFCURVE",
"700 1755 OFFCURVE",
"700 1699 CURVE SMOOTH",
"700 1401 LINE SMOOTH",
"700 1345 OFFCURVE",
"745 1300 OFFCURVE",
"800 1300 CURVE SMOOTH",
"900 1300 LINE",
"900 1100 LINE",
"400 1100 LINE SMOOTH",
"290 1100 OFFCURVE",
"200 1010 OFFCURVE",
"200 900 CURVE SMOOTH",
"200 700 LINE",
"100 700 LINE SMOOTH",
"45 700 OFFCURVE",
"0 655 OFFCURVE",
"0 599 CURVE SMOOTH",
"0 301 LINE SMOOTH",
"0 245 OFFCURVE",
"45 200 OFFCURVE",
"100 200 CURVE SMOOTH",
"500 200 LINE SMOOTH",
"555 200 OFFCURVE",
"600 245 OFFCURVE",
"600 301 CURVE SMOOTH",
"600 599 LINE SMOOTH",
"600 655 OFFCURVE",
"555 700 OFFCURVE",
"500 700 CURVE SMOOTH",
"400 700 LINE",
"400 900 LINE",
"900 900 LINE",
"900 700 LINE",
"800 700 LINE SMOOTH",
"745 700 OFFCURVE",
"700 655 OFFCURVE",
"700 599 CURVE SMOOTH",
"700 301 LINE SMOOTH",
"700 245 OFFCURVE",
"745 200 OFFCURVE",
"800 200 CURVE SMOOTH",
"1200 200 LINE SMOOTH",
"1255 200 OFFCURVE",
"1300 245 OFFCURVE",
"1300 301 CURVE SMOOTH",
"1300 599 LINE SMOOTH",
"1300 655 OFFCURVE",
"1255 700 OFFCURVE",
"1200 700 CURVE SMOOTH",
"1100 700 LINE",
"1100 900 LINE",
"1600 900 LINE",
"1600 700 LINE",
"1500 700 LINE SMOOTH",
"1445 700 OFFCURVE",
"1400 655 OFFCURVE",
"1400 599 CURVE SMOOTH",
"1400 301 LINE SMOOTH",
"1400 245 OFFCURVE",
"1445 200 OFFCURVE",
"1500 200 CURVE SMOOTH",
"1900 200 LINE SMOOTH",
"1955 200 OFFCURVE",
"2000 245 OFFCURVE",
"2000 301 CURVE SMOOTH",
"2000 599 LINE SMOOTH",
"2000 655 OFFCURVE",
"1955 700 OFFCURVE",
"1900 700 CURVE SMOOTH"
);
}
);
width = 2000;
}
);
unicode = F325;
},
{
glyphname = unif326;
lastChange = "2013-10-04 11:41:49 +0000";
layers = (
{
layerId = "684440DB-903B-4FB4-BFDB-FB0ECFF352DE";
name = Regular;
paths = (
{
closed = 1;
nodes = (
"1100 1500 LINE SMOOTH",
"1100 1610 OFFCURVE",
"1010 1700 OFFCURVE",
"900 1700 CURVE SMOOTH",
"200 1700 LINE SMOOTH",
"90 1700 OFFCURVE",
"0 1610 OFFCURVE",
"0 1500 CURVE SMOOTH",
"0 800 LINE SMOOTH",
"0 690 OFFCURVE",
"90 600 OFFCURVE",
"200 600 CURVE SMOOTH",
"700 600 LINE",
"700 1000 LINE",
"417 1000 LINE",
"343 800 LINE",
"174 800 LINE",
"413 1500 LINE",
"700 1500 LINE",
"790 1230 LINE",
"824 1270 OFFCURVE",
"886 1300 OFFCURVE",
"949 1300 CURVE SMOOTH",
"1100 1300 LINE"
);
},
{
closed = 1;
nodes = (
"549 1393 LINE",
"449 1100 LINE",
"651 1100 LINE"
);
},
{
closed = 1;
nodes = (
"1000 1200 LINE SMOOTH",
"890 1200 OFFCURVE",
"800 1110 OFFCURVE",
"800 1000 CURVE SMOOTH",
"800 300 LINE SMOOTH",
"800 190 OFFCURVE",
"890 100 OFFCURVE",
"1000 100 CURVE SMOOTH",
"1700 100 LINE SMOOTH",
"1810 100 OFFCURVE",
"1900 190 OFFCURVE",
"1900 300 CURVE SMOOTH",
"1900 1000 LINE SMOOTH",
"1900 1110 OFFCURVE",
"1810 1200 OFFCURVE",
"1700 1200 CURVE SMOOTH"
);
},
{
closed = 1;
nodes = (
"1589 700 LINE",
"1578 616 OFFCURVE",
"1534 516 OFFCURVE",
"1464 439 CURVE",
"1553 403 OFFCURVE",
"1659 376 OFFCURVE",
"1702 376 CURVE",
"1702 374 OFFCURVE",
"1680 279 OFFCURVE",
"1682 230 CURVE",
"1596 230 OFFCURVE",
"1457 280 OFFCURVE",
"1348 345 CURVE",
"1241 280 OFFCURVE",
"1104 230 OFFCURVE",
"1020 230 CURVE",
"1022 279 OFFCURVE",
"999 374 OFFCURVE",
"1000 376 CURVE",
"1042 376 OFFCURVE",
"1144 402 OFFCURVE",
"1231 438 CURVE",
"1159 515 OFFCURVE",
"1114 615 OFFCURVE",
"1103 700 CURVE",
"975 700 LINE",
"975 808 LINE",
"1292 808 LINE",
"1292 1025 LINE",
"1408 1025 LINE",
"1408 808 LINE",
"1725 808 LINE",
"1725 700 LINE"
);
},
{
closed = 1;
nodes = (
"1345 506 OFFCURVE",
"1348 504 OFFCURVE",
"1348 504 CURVE",
"1348 504 OFFCURVE",
"1351 506 OFFCURVE",
"1352 507 CURVE SMOOTH",
"1401 553 OFFCURVE",
"1435 620 OFFCURVE",
"1452 700 CURVE",
"1243 700 LINE",
"1259 620 OFFCURVE",
"1294 553 OFFCURVE",
"1344 507 CURVE SMOOTH"
);
}
);
width = 2000;
}
);
unicode = F326;
},
{
glyphname = unif327;
lastChange = "2013-10-09 12:36:16 +0000";
layers = (
{
layerId = "684440DB-903B-4FB4-BFDB-FB0ECFF352DE";
name = Regular;
paths = (
{
closed = 1;
nodes = (
"1480 1812 LINE SMOOTH",
"1423 1869 OFFCURVE",
"1321 1869 OFFCURVE",
"1273 1821 CURVE SMOOTH",
"1225 1772 OFFCURVE",
"288 832 OFFCURVE",
"288 832 CURVE",
"145 144 LINE",
"831 287 LINE",
"831 287 OFFCURVE",
"1769 1227 OFFCURVE",
"1817 1275 CURVE SMOOTH",
"1865 1324 OFFCURVE",
"1870 1420 OFFCURVE",
"1814 1477 CURVE SMOOTH"
);
},
{
closed = 1;
nodes = (
"1274 1337 LINE",
"592 640 LINE",
"455 777 LINE",
"1143 1468 LINE"
);
},
{
closed = 1;
nodes = (
"644 588 LINE",
"1333 1277 LINE",
"1465 1145 LINE",
"777 454 LINE"
);
}
);
width = 2000;
}
);
unicode = F327;
},
{
glyphname = unif328;
lastChange = "2013-10-10 14:00:12 +0000";
layers = (
{
layerId = "684440DB-903B-4FB4-BFDB-FB0ECFF352DE";
name = Regular;
paths = (
{
closed = 1;
nodes = (
"627.881 109.98 OFFCURVE",
"296.973 346.406 OFFCURVE",
"176.611 698.359 CURVE",
"309.033 743.672 LINE",
"410.059 448.359 OFFCURVE",
"687.695 250.02 OFFCURVE",
"1000 250.02 CURVE SMOOTH",
"1312.3 250.02 OFFCURVE",
"1590.04 448.359 OFFCURVE",
"1691.02 743.672 CURVE",
"1823.44 698.359 LINE",
"1703.12 346.406 OFFCURVE",
"1372.17 109.98 OFFCURVE",
"1000 109.98 CURVE SMOOTH"
);
},
{
closed = 1;
nodes = (
"589.502 1480 OFFCURVE",
"500 1390.5 OFFCURVE",
"500 1280 CURVE SMOOTH",
"500 1243.38 OFFCURVE",
"510.547 1209.49 OFFCURVE",
"527.734 1180 CURVE",
"527.734 1180 OFFCURVE",
"600 1200.02 OFFCURVE",
"700 1200.02 CURVE SMOOTH",
"800 1200.02 OFFCURVE",
"872.266 1180 OFFCURVE",
"872.266 1180 CURVE",
"889.453 1209.49 OFFCURVE",
"900 1243.38 OFFCURVE",
"900 1280 CURVE SMOOTH",
"900 1390.5 OFFCURVE",
"810.498 1480 OFFCURVE",
"700 1480 CURVE SMOOTH"
);
},
{
closed = 1;
nodes = (
"1189.45 1480 OFFCURVE",
"1100 1390.5 OFFCURVE",
"1100 1280 CURVE SMOOTH",
"1100 1243.38 OFFCURVE",
"1110.55 1209.49 OFFCURVE",
"1127.73 1180 CURVE",
"1127.73 1180 OFFCURVE",
"1200 1200.02 OFFCURVE",
"1300 1200.02 CURVE SMOOTH",
"1400 1200.02 OFFCURVE",
"1472.27 1180 OFFCURVE",
"1472.27 1180 CURVE",
"1489.45 1209.49 OFFCURVE",
"1500 1243.38 OFFCURVE",
"1500 1280 CURVE SMOOTH",
"1500 1390.5 OFFCURVE",
"1410.55 1480 OFFCURVE",
"1300 1480 CURVE SMOOTH"
);
}
);
width = 2000;
}
);
unicode = F328;
},
{
glyphname = unif329;
lastChange = "2013-10-21 15:31:46 +0000";
layers = (
{
layerId = "684440DB-903B-4FB4-BFDB-FB0ECFF352DE";
name = Regular;
paths = (
{
closed = 1;
nodes = (
"500 1300 LINE",
"500 1500 LINE",
"1500 1500 LINE",
"1500 1300 LINE"
);
},
{
closed = 1;
nodes = (
"500 900 LINE",
"500 1100 LINE",
"1500 1100 LINE",
"1500 900 LINE"
);
},
{
closed = 1;
nodes = (
"500 500 LINE",
"500 700 LINE",
"1500 700 LINE",
"1500 500 LINE"
);
}
);
width = 2000;
}
);
unicode = F329;
},
{
glyphname = unif330;
lastChange = "2013-10-21 19:43:50 +0000";
layers = (
{
layerId = "684440DB-903B-4FB4-BFDB-FB0ECFF352DE";
name = Regular;
paths = (
{
closed = 1;
nodes = (
"1600 500 LINE",
"1600 300 LINE",
"500 300 LINE SMOOTH",
"445 300 OFFCURVE",
"400 345 OFFCURVE",
"400 400 CURVE SMOOTH",
"400 455 OFFCURVE",
"445 500 OFFCURVE",
"500 500 CURVE SMOOTH",
"1400 500 LINE",
"1400 1900 LINE",
"500 1900 LINE SMOOTH",
"334 1900 OFFCURVE",
"200 1766 OFFCURVE",
"200 1600 CURVE SMOOTH",
"200 400 LINE SMOOTH",
"200 234 OFFCURVE",
"334 100 OFFCURVE",
"500 100 CURVE SMOOTH",
"1800 100 LINE",
"1800 1700 LINE",
"1600 1700 LINE"
);
}
);
width = 2000;
}
);
unicode = F330;
},
{
glyphname = unif331;
lastChange = "2013-10-22 10:39:08 +0000";
layers = (
{
layerId = "684440DB-903B-4FB4-BFDB-FB0ECFF352DE";
name = Regular;
paths = (
{
closed = 1;
nodes = (
"445 300 OFFCURVE",
"400 345 OFFCURVE",
"400 400 CURVE SMOOTH",
"400 455 OFFCURVE",
"445 500 OFFCURVE",
"500 500 CURVE SMOOTH",
"1800 500 LINE",
"1800 1900 LINE",
"500 1900 LINE SMOOTH",
"334 1900 OFFCURVE",
"200 1766 OFFCURVE",
"200 1600 CURVE SMOOTH",
"200 400 LINE SMOOTH",
"200 234 OFFCURVE",
"334 100 OFFCURVE",
"500 100 CURVE SMOOTH",
"1800 100 LINE",
"1800 300 LINE",
"500 300 LINE SMOOTH"
);
},
{
closed = 1;
nodes = (
"700 622 OFFCURVE",
"678 600 OFFCURVE",
"650 600 CURVE SMOOTH",
"622 600 OFFCURVE",
"600 622 OFFCURVE",
"600 650 CURVE SMOOTH",
"600 1750 LINE SMOOTH",
"600 1778 OFFCURVE",
"622 1800 OFFCURVE",
"650 1800 CURVE",
"678 1800 OFFCURVE",
"700 1778 OFFCURVE",
"700 1750 CURVE SMOOTH",
"700 650 LINE SMOOTH"
);
}
);
width = 2000;
}
);
unicode = F331;
},
{
glyphname = unif332;
lastChange = "2013-11-05 18:23:48 +0000";
layers = (
{
layerId = "684440DB-903B-4FB4-BFDB-FB0ECFF352DE";
name = Regular;
paths = (
{
closed = 1;
nodes = (
"1000 1800 OFFCURVE",
"700 1600 OFFCURVE",
"300 1600 CURVE",
"300 500 OFFCURVE",
"1000 200 OFFCURVE",
"1000 200 CURVE SMOOTH",
"1000 200 OFFCURVE",
"1700 500 OFFCURVE",
"1700 1600 CURVE",
"1300 1600 OFFCURVE",
"1000 1800 OFFCURVE",
"1000 1800 CURVE SMOOTH"
);
},
{
closed = 1;
nodes = (
"1000 300 LINE",
"1000 300 OFFCURVE",
"600 600 OFFCURVE",
"500 1000 CURVE",
"1000 1000 LINE",
"1000 1700 LINE",
"1100 1600 OFFCURVE",
"1600 1500 OFFCURVE",
"1600 1500 CURVE",
"1600 1100 OFFCURVE",
"1500 1000 OFFCURVE",
"1500 1000 CURVE SMOOTH",
"1000 1000 LINE"
);
}
);
width = 2000;
}
);
unicode = F332;
},
{
glyphname = unif333;
lastChange = "2013-11-05 23:39:29 +0000";
layers = (
{
layerId = "684440DB-903B-4FB4-BFDB-FB0ECFF352DE";
name = Regular;
paths = (
{
closed = 1;
nodes = (
"300 1300 LINE",
"300 1500 LINE",
"1700 1500 LINE",
"1700 1300 LINE"
);
},
{
closed = 1;
nodes = (
"300 900 LINE",
"300 1100 LINE",
"1700 1100 LINE",
"1700 900 LINE"
);
},
{
closed = 1;
nodes = (
"300 500 LINE",
"300 700 LINE",
"1700 700 LINE",
"1700 500 LINE"
);
}
);
width = 2000;
}
);
unicode = F333;
},
{
glyphname = unif334;
lastChange = "2013-11-05 18:25:28 +0000";
layers = (
{
layerId = "684440DB-903B-4FB4-BFDB-FB0ECFF352DE";
name = Regular;
paths = (
{
closed = 1;
nodes = (
"1000 1800 OFFCURVE",
"700 1600 OFFCURVE",
"300 1600 CURVE",
"300 500 OFFCURVE",
"1000 200 OFFCURVE",
"1000 200 CURVE SMOOTH",
"1000 200 OFFCURVE",
"1700 500 OFFCURVE",
"1700 1600 CURVE",
"1300 1600 OFFCURVE",
"1000 1800 OFFCURVE",
"1000 1800 CURVE SMOOTH"
);
}
);
width = 2000;
}
);
unicode = F334;
},
{
glyphname = unif335;
lastChange = "2013-10-25 12:24:52 +0000";
layers = (
{
layerId = "684440DB-903B-4FB4-BFDB-FB0ECFF352DE";
name = Regular;
paths = (
{
closed = 1;
nodes = (
"505 647 LINE",
"647 505 LINE",
"1495 1354 LINE",
"1354 1495 LINE"
);
},
{
closed = 1;
nodes = (
"647 1495 LINE",
"505 1353 LINE",
"1354 505 LINE",
"1495 646 LINE"
);
}
);
width = 2000;
}
);
unicode = F335;
},
{
glyphname = unif336;
lastChange = "2013-11-04 22:59:52 +0000";
layers = (
{
layerId = "684440DB-903B-4FB4-BFDB-FB0ECFF352DE";
name = Regular;
paths = (
{
closed = 1;
nodes = (
"1800 1600 LINE",
"200 1600 LINE",
"200 400 LINE",
"1800 400 LINE"
);
},
{
closed = 1;
nodes = (
"798 1107 LINE",
"837 1107 OFFCURVE",
"874 1096 OFFCURVE",
"909 1074 CURVE SMOOTH",
"944 1052 OFFCURVE",
"972 1023 OFFCURVE",
"993 988 CURVE SMOOTH",
"1014 953 OFFCURVE",
"1024 917 OFFCURVE",
"1024 881 CURVE SMOOTH",
"1024 756 LINE",
"1019 755 OFFCURVE",
"1012 753 OFFCURVE",
"1003 750 CURVE SMOOTH",
"994 748 OFFCURVE",
"976 743 OFFCURVE",
"949 737 CURVE SMOOTH",
"921 730 OFFCURVE",
"894 725 OFFCURVE",
"867 720 CURVE SMOOTH",
"839 715 OFFCURVE",
"807 710 OFFCURVE",
"769 706 CURVE SMOOTH",
"731 702 OFFCURVE",
"696 700 OFFCURVE",
"662 700 CURVE SMOOTH",
"628 700 OFFCURVE",
"592 702 OFFCURVE",
"555 706 CURVE SMOOTH",
"517 710 OFFCURVE",
"484 714 OFFCURVE",
"455 720 CURVE SMOOTH",
"426 725 OFFCURVE",
"399 731 OFFCURVE",
"375 737 CURVE SMOOTH",
"351 742 OFFCURVE",
"333 747 OFFCURVE",
"320 751 CURVE SMOOTH",
"300 756 LINE",
"300 881 LINE SMOOTH",
"300 918 OFFCURVE",
"310 954 OFFCURVE",
"329 988 CURVE SMOOTH",
"348 1023 OFFCURVE",
"375 1051 OFFCURVE",
"410 1073 CURVE SMOOTH",
"445 1094 OFFCURVE",
"483 1105 OFFCURVE",
"524 1105 CURVE",
"662 1017 LINE"
);
},
{
closed = 1;
nodes = (
"692 1141 OFFCURVE",
"677 1138 OFFCURVE",
"662 1138 CURVE SMOOTH",
"647 1138 OFFCURVE",
"632 1141 OFFCURVE",
"619 1147 CURVE SMOOTH",
"605 1153 OFFCURVE",
"594 1162 OFFCURVE",
"585 1172 CURVE SMOOTH",
"576 1182 OFFCURVE",
"568 1193 OFFCURVE",
"560 1205 CURVE SMOOTH",
"553 1217 OFFCURVE",
"547 1230 OFFCURVE",
"543 1242 CURVE SMOOTH",
"539 1254 OFFCURVE",
"536 1265 OFFCURVE",
"533 1275 CURVE SMOOTH",
"530 1285 OFFCURVE",
"528 1294 OFFCURVE",
"527 1300 CURVE SMOOTH",
"525 1309 LINE",
"524 1328 OFFCURVE",
"523 1346 OFFCURVE",
"524 1364 CURVE SMOOTH",
"525 1382 OFFCURVE",
"529 1399 OFFCURVE",
"536 1415 CURVE SMOOTH",
"543 1432 OFFCURVE",
"552 1446 OFFCURVE",
"563 1459 CURVE SMOOTH",
"573 1471 OFFCURVE",
"587 1481 OFFCURVE",
"604 1489 CURVE SMOOTH",
"621 1496 OFFCURVE",
"640 1500 OFFCURVE",
"660 1500 CURVE SMOOTH",
"695 1500 OFFCURVE",
"723 1490 OFFCURVE",
"746 1471 CURVE SMOOTH",
"769 1451 OFFCURVE",
"784 1427 OFFCURVE",
"792 1399 CURVE SMOOTH",
"799 1370 OFFCURVE",
"801 1341 OFFCURVE",
"796 1309 CURVE SMOOTH",
"796 1307 OFFCURVE",
"795 1304 OFFCURVE",
"795 1300 CURVE SMOOTH",
"794 1296 OFFCURVE",
"792 1288 OFFCURVE",
"789 1276 CURVE SMOOTH",
"786 1264 OFFCURVE",
"783 1253 OFFCURVE",
"779 1242 CURVE SMOOTH",
"775 1231 OFFCURVE",
"769 1219 OFFCURVE",
"762 1205 CURVE SMOOTH",
"755 1192 OFFCURVE",
"747 1181 OFFCURVE",
"738 1171 CURVE SMOOTH",
"729 1162 OFFCURVE",
"718 1154 OFFCURVE",
"705 1147 CURVE SMOOTH"
);
},
{
closed = 1;
nodes = (
"300 500 LINE",
"300 600 LINE",
"1700 600 LINE",
"1700 500 LINE"
);
},
{
closed = 1;
nodes = (
"1200 1100 LINE",
"1200 1500 LINE",
"1700 1500 LINE",
"1700 1100 LINE"
);
},
{
closed = 1;
nodes = (
"1200 900 LINE",
"1200 1000 LINE",
"1700 1000 LINE",
"1700 900 LINE"
);
},
{
closed = 1;
nodes = (
"1200 700 LINE",
"1200 800 LINE",
"1700 800 LINE",
"1700 700 LINE"
);
}
);
width = 2000;
}
);
unicode = F336;
},
{
glyphname = unif337;
lastChange = "2013-11-04 23:01:22 +0000";
layers = (
{
layerId = "684440DB-903B-4FB4-BFDB-FB0ECFF352DE";
name = Regular;
paths = (
{
closed = 1;
nodes = (
"1800 1800 LINE",
"200 1800 LINE",
"200 200 LINE",
"1800 200 LINE"
);
},
{
closed = 1;
nodes = (
"898 1207 LINE",
"937 1207 OFFCURVE",
"974 1196 OFFCURVE",
"1009 1174 CURVE SMOOTH",
"1044 1152 OFFCURVE",
"1072 1123 OFFCURVE",
"1093 1088 CURVE SMOOTH",
"1114 1053 OFFCURVE",
"1124 1017 OFFCURVE",
"1124 981 CURVE SMOOTH",
"1124 856 LINE",
"1119 855 OFFCURVE",
"1112 853 OFFCURVE",
"1103 850 CURVE SMOOTH",
"1094 848 OFFCURVE",
"1076 843 OFFCURVE",
"1049 837 CURVE SMOOTH",
"1021 830 OFFCURVE",
"994 825 OFFCURVE",
"967 820 CURVE SMOOTH",
"939 815 OFFCURVE",
"907 810 OFFCURVE",
"869 806 CURVE SMOOTH",
"831 802 OFFCURVE",
"796 800 OFFCURVE",
"762 800 CURVE SMOOTH",
"728 800 OFFCURVE",
"692 802 OFFCURVE",
"655 806 CURVE SMOOTH",
"617 810 OFFCURVE",
"584 814 OFFCURVE",
"555 820 CURVE SMOOTH",
"526 825 OFFCURVE",
"499 831 OFFCURVE",
"475 837 CURVE SMOOTH",
"451 842 OFFCURVE",
"433 847 OFFCURVE",
"420 851 CURVE SMOOTH",
"400 856 LINE",
"400 981 LINE SMOOTH",
"400 1018 OFFCURVE",
"410 1054 OFFCURVE",
"429 1088 CURVE SMOOTH",
"448 1123 OFFCURVE",
"475 1151 OFFCURVE",
"510 1173 CURVE SMOOTH",
"545 1194 OFFCURVE",
"583 1205 OFFCURVE",
"624 1205 CURVE",
"762 1117 LINE"
);
},
{
closed = 1;
nodes = (
"792 1241 OFFCURVE",
"777 1238 OFFCURVE",
"762 1238 CURVE SMOOTH",
"747 1238 OFFCURVE",
"732 1241 OFFCURVE",
"719 1247 CURVE SMOOTH",
"705 1253 OFFCURVE",
"694 1262 OFFCURVE",
"685 1272 CURVE SMOOTH",
"676 1282 OFFCURVE",
"668 1293 OFFCURVE",
"660 1305 CURVE SMOOTH",
"653 1317 OFFCURVE",
"647 1330 OFFCURVE",
"643 1342 CURVE SMOOTH",
"639 1354 OFFCURVE",
"636 1365 OFFCURVE",
"633 1375 CURVE SMOOTH",
"630 1385 OFFCURVE",
"628 1394 OFFCURVE",
"627 1400 CURVE SMOOTH",
"625 1409 LINE",
"624 1428 OFFCURVE",
"623 1446 OFFCURVE",
"624 1464 CURVE SMOOTH",
"625 1482 OFFCURVE",
"629 1499 OFFCURVE",
"636 1515 CURVE SMOOTH",
"643 1532 OFFCURVE",
"652 1546 OFFCURVE",
"663 1559 CURVE SMOOTH",
"673 1571 OFFCURVE",
"687 1581 OFFCURVE",
"704 1589 CURVE SMOOTH",
"721 1596 OFFCURVE",
"740 1600 OFFCURVE",
"760 1600 CURVE SMOOTH",
"795 1600 OFFCURVE",
"823 1590 OFFCURVE",
"846 1571 CURVE SMOOTH",
"869 1551 OFFCURVE",
"884 1527 OFFCURVE",
"892 1499 CURVE SMOOTH",
"899 1470 OFFCURVE",
"901 1441 OFFCURVE",
"896 1409 CURVE SMOOTH",
"896 1407 OFFCURVE",
"895 1404 OFFCURVE",
"895 1400 CURVE SMOOTH",
"894 1396 OFFCURVE",
"892 1388 OFFCURVE",
"889 1376 CURVE SMOOTH",
"886 1364 OFFCURVE",
"883 1353 OFFCURVE",
"879 1342 CURVE SMOOTH",
"875 1331 OFFCURVE",
"869 1319 OFFCURVE",
"862 1305 CURVE SMOOTH",
"855 1292 OFFCURVE",
"847 1281 OFFCURVE",
"838 1271 CURVE SMOOTH",
"829 1262 OFFCURVE",
"818 1254 OFFCURVE",
"805 1247 CURVE SMOOTH"
);
},
{
closed = 1;
nodes = (
"400 600 LINE",
"400 700 LINE",
"1600 700 LINE",
"1600 600 LINE"
);
},
{
closed = 1;
nodes = (
"400 400 LINE",
"400 500 LINE",
"1600 500 LINE",
"1600 400 LINE"
);
},
{
closed = 1;
nodes = (
"1100 1500 LINE",
"1100 1600 LINE",
"1600 1600 LINE",
"1600 1500 LINE"
);
},
{
closed = 1;
nodes = (
"1100 1300 LINE",
"1100 1400 LINE",
"1600 1400 LINE",
"1600 1300 LINE"
);
},
{
closed = 1;
nodes = (
"1300 1100 LINE",
"1300 1200 LINE",
"1600 1200 LINE",
"1600 1100 LINE"
);
},
{
closed = 1;
nodes = (
"1300 900 LINE",
"1300 1000 LINE",
"1600 1000 LINE",
"1600 900 LINE"
);
}
);
width = 2000;
}
);
unicode = F337;
},
{
glyphname = unif338;
lastChange = "2013-11-05 18:24:16 +0000";
layers = (
{
layerId = "684440DB-903B-4FB4-BFDB-FB0ECFF352DE";
name = Regular;
paths = (
{
closed = 1;
nodes = (
"732 1387 OFFCURVE",
"736 1371 OFFCURVE",
"742 1350 CURVE SMOOTH",
"747 1330 OFFCURVE",
"754 1308 OFFCURVE",
"763 1283 CURVE SMOOTH",
"771 1259 OFFCURVE",
"782 1235 OFFCURVE",
"797 1210 CURVE SMOOTH",
"812 1186 OFFCURVE",
"828 1164 OFFCURVE",
"846 1144 CURVE SMOOTH",
"864 1123 OFFCURVE",
"887 1107 OFFCURVE",
"913 1094 CURVE SMOOTH",
"941 1081 OFFCURVE",
"969 1075 OFFCURVE",
"1000 1075 CURVE SMOOTH",
"1031 1075 OFFCURVE",
"1059 1081 OFFCURVE",
"1086 1094 CURVE SMOOTH",
"1113 1108 OFFCURVE",
"1135 1123 OFFCURVE",
"1153 1142 CURVE SMOOTH",
"1170 1162 OFFCURVE",
"1186 1184 OFFCURVE",
"1200 1211 CURVE SMOOTH",
"1215 1238 OFFCURVE",
"1226 1262 OFFCURVE",
"1234 1283 CURVE SMOOTH",
"1242 1305 OFFCURVE",
"1249 1328 OFFCURVE",
"1254 1352 CURVE SMOOTH",
"1260 1375 OFFCURVE",
"1264 1391 OFFCURVE",
"1265 1400 CURVE SMOOTH",
"1266 1408 OFFCURVE",
"1267 1414 OFFCURVE",
"1268 1419 CURVE SMOOTH",
"1277 1481 OFFCURVE",
"1274 1540 OFFCURVE",
"1259 1597 CURVE SMOOTH",
"1244 1654 OFFCURVE",
"1213 1702 OFFCURVE",
"1168 1741 CURVE SMOOTH",
"1123 1780 OFFCURVE",
"1066 1800 OFFCURVE",
"997 1800 CURVE SMOOTH",
"956 1800 OFFCURVE",
"918 1792 OFFCURVE",
"884 1777 CURVE SMOOTH",
"850 1763 OFFCURVE",
"822 1742 OFFCURVE",
"801 1717 CURVE SMOOTH",
"780 1692 OFFCURVE",
"763 1663 OFFCURVE",
"749 1631 CURVE SMOOTH",
"734 1598 OFFCURVE",
"726 1563 OFFCURVE",
"724 1527 CURVE SMOOTH",
"722 1492 OFFCURVE",
"723 1456 OFFCURVE",
"727 1419 CURVE",
"730 1400 LINE SMOOTH"
);
},
{
closed = 1;
nodes = (
"1608 846 OFFCURVE",
"1558 903 OFFCURVE",
"1487 948 CURVE SMOOTH",
"1417 993 OFFCURVE",
"1274 1000 OFFCURVE",
"1197 1000 CURVE",
"1032 833 LINE",
"1100 700 LINE",
"1100 400 LINE",
"1002 292 LINE",
"900 400 LINE",
"900 700 LINE",
"967 833 LINE",
"800 1000 LINE",
"719 1000 OFFCURVE",
"566 988 OFFCURVE",
"496 945 CURVE SMOOTH",
"427 902 OFFCURVE",
"385 846 OFFCURVE",
"346 777 CURVE SMOOTH",
"307 708 OFFCURVE",
"300 637 OFFCURVE",
"300 562 CURVE SMOOTH",
"300 313 LINE",
"327 302 LINE",
"353 294 OFFCURVE",
"384 284 OFFCURVE",
"433 273 CURVE SMOOTH",
"481 262 OFFCURVE",
"531 250 OFFCURVE",
"589 239 CURVE SMOOTH",
"647 229 OFFCURVE",
"712 219 OFFCURVE",
"787 212 CURVE SMOOTH",
"862 204 OFFCURVE",
"933 200 OFFCURVE",
"1001 200 CURVE SMOOTH",
"1068 200 OFFCURVE",
"1139 204 OFFCURVE",
"1214 212 CURVE SMOOTH",
"1290 220 OFFCURVE",
"1354 229 OFFCURVE",
"1409 239 CURVE SMOOTH",
"1464 249 OFFCURVE",
"1519 261 OFFCURVE",
"1574 273 CURVE SMOOTH",
"1629 287 OFFCURVE",
"1653 296 OFFCURVE",
"1671 300 CURVE SMOOTH",
"1688 305 OFFCURVE",
"1700 310 OFFCURVE",
"1700 313 CURVE SMOOTH",
"1700 562 LINE SMOOTH",
"1700 635 OFFCURVE",
"1691 706 OFFCURVE",
"1650 776 CURVE SMOOTH"
);
}
);
width = 2000;
}
);
unicode = F338;
},
{
glyphname = unif339;
lastChange = "2013-11-04 23:05:14 +0000";
layers = (
{
layerId = "684440DB-903B-4FB4-BFDB-FB0ECFF352DE";
name = Regular;
paths = (
{
closed = 1;
nodes = (
"1563 1648 OFFCURVE",
"1311 1900 OFFCURVE",
"1000 1900 CURVE SMOOTH",
"689 1900 OFFCURVE",
"438 1648 OFFCURVE",
"438 1338 CURVE SMOOTH",
"438 1154 OFFCURVE",
"640 880 OFFCURVE",
"640 880 CURVE",
"673 836 OFFCURVE",
"700 755 OFFCURVE",
"700 700 CURVE SMOOTH",
"700 600 LINE SMOOTH",
"700 545 OFFCURVE",
"745 500 OFFCURVE",
"800 500 CURVE SMOOTH",
"1200 500 LINE SMOOTH",
"1255 500 OFFCURVE",
"1300 545 OFFCURVE",
"1300 600 CURVE SMOOTH",
"1300 700 LINE SMOOTH",
"1300 755 OFFCURVE",
"1327 836 OFFCURVE",
"1360 880 CURVE",
"1360 880 OFFCURVE",
"1563 1154 OFFCURVE",
"1563 1338 CURVE SMOOTH"
);
},
{
closed = 1;
nodes = (
"1300 251 OFFCURVE",
"1287 200 OFFCURVE",
"1225 200 CURVE SMOOTH",
"775 200 LINE SMOOTH",
"713 200 OFFCURVE",
"700 251 OFFCURVE",
"700 313 CURVE SMOOTH",
"700 400 LINE",
"1300 400 LINE",
"1300 313 LINE SMOOTH"
);
},
{
closed = 1;
nodes = (
"1200 138 OFFCURVE",
"1160 100 OFFCURVE",
"1098 100 CURVE SMOOTH",
"898 100 LINE SMOOTH",
"837 100 OFFCURVE",
"800 138 OFFCURVE",
"800 200 CURVE",
"1200 200 LINE"
);
}
);
width = 2000;
}
);
unicode = F339;
},
{
glyphname = unif340;
lastChange = "2014-04-04 01:53:09 +0000";
layers = (
{
layerId = "684440DB-903B-4FB4-BFDB-FB0ECFF352DE";
name = Regular;
paths = (
{
closed = 1;
nodes = (
"600 1100 LINE",
"1000 1500 LINE",
"900 1700 LINE",
"200 1000 LINE",
"900 300 LINE",
"1000 500 LINE",
"600 900 LINE",
"1800 900 LINE",
"1800 1100 LINE"
);
}
);
width = 2000;
}
);
unicode = F340;
},
{
glyphname = unif341;
lastChange = "2014-04-04 01:54:10 +0000";
layers = (
{
layerId = "684440DB-903B-4FB4-BFDB-FB0ECFF352DE";
name = Regular;
paths = (
{
closed = 1;
nodes = (
"1300 1700 LINE",
"600 1000 LINE",
"1300 300 LINE",
"1400 500 LINE",
"900 1000 LINE",
"1400 1500 LINE"
);
}
);
width = 2000;
}
);
unicode = F341;
},
{
glyphname = unif342;
lastChange = "2014-04-04 01:56:20 +0000";
layers = (
{
layerId = "684440DB-903B-4FB4-BFDB-FB0ECFF352DE";
name = Regular;
paths = (
{
closed = 1;
nodes = (
"1100 1400 LINE",
"1500 1000 LINE",
"1700 1100 LINE",
"1000 1800 LINE",
"300 1100 LINE",
"500 1000 LINE",
"900 1400 LINE",
"900 200 LINE",
"1100 200 LINE"
);
}
);
width = 2000;
}
);
unicode = F342;
},
{
glyphname = unif343;
lastChange = "2014-04-04 01:56:59 +0000";
layers = (
{
layerId = "684440DB-903B-4FB4-BFDB-FB0ECFF352DE";
name = Regular;
paths = (
{
closed = 1;
nodes = (
"1700 700 LINE",
"1000 1400 LINE",
"300 700 LINE",
"500 600 LINE",
"1000 1100 LINE",
"1500 600 LINE"
);
}
);
width = 2000;
}
);
unicode = F343;
},
{
glyphname = unif344;
lastChange = "2014-04-04 01:55:12 +0000";
layers = (
{
layerId = "684440DB-903B-4FB4-BFDB-FB0ECFF352DE";
name = Regular;
paths = (
{
closed = 1;
nodes = (
"1400 900 LINE",
"1000 500 LINE",
"1100 300 LINE",
"1800 1000 LINE",
"1100 1700 LINE",
"1000 1500 LINE",
"1400 1100 LINE",
"200 1100 LINE",
"200 900 LINE"
);
}
);
width = 2000;
}
);
unicode = F344;
},
{
glyphname = unif345;
lastChange = "2014-04-04 01:55:38 +0000";
layers = (
{
layerId = "684440DB-903B-4FB4-BFDB-FB0ECFF352DE";
name = Regular;
paths = (
{
closed = 1;
nodes = (
"700 300 LINE",
"1400 1000 LINE",
"700 1700 LINE",
"600 1500 LINE",
"1100 1000 LINE",
"600 500 LINE"
);
}
);
width = 2000;
}
);
unicode = F345;
},
{
glyphname = unif346;
lastChange = "2014-04-04 01:56:38 +0000";
layers = (
{
layerId = "684440DB-903B-4FB4-BFDB-FB0ECFF352DE";
name = Regular;
paths = (
{
closed = 1;
nodes = (
"900 600 LINE",
"500 1000 LINE",
"300 900 LINE",
"1000 200 LINE",
"1700 900 LINE",
"1500 1000 LINE",
"1100 600 LINE",
"1100 1800 LINE",
"900 1800 LINE"
);
}
);
width = 2000;
}
);
unicode = F346;
},
{
glyphname = unif347;
lastChange = "2014-04-04 01:57:21 +0000";
layers = (
{
layerId = "684440DB-903B-4FB4-BFDB-FB0ECFF352DE";
name = Regular;
paths = (
{
closed = 1;
nodes = (
"300 1300 LINE",
"1000 600 LINE",
"1700 1300 LINE",
"1500 1400 LINE",
"1000 900 LINE",
"500 1400 LINE"
);
}
);
width = 2000;
}
);
unicode = F347;
},
{
glyphname = unif348;
lastChange = "2013-11-04 23:22:46 +0000";
layers = (
{
layerId = "684440DB-903B-4FB4-BFDB-FB0ECFF352DE";
name = Regular;
paths = (
{
closed = 1;
nodes = (
"558 1800 OFFCURVE",
"200 1442 OFFCURVE",
"200 1000 CURVE SMOOTH",
"200 558 OFFCURVE",
"558 200 OFFCURVE",
"1000 200 CURVE SMOOTH",
"1442 200 OFFCURVE",
"1800 558 OFFCURVE",
"1800 1000 CURVE SMOOTH",
"1800 1442 OFFCURVE",
"1442 1800 OFFCURVE",
"1000 1800 CURVE SMOOTH"
);
},
{
closed = 1;
nodes = (
"900 500 LINE",
"900 1100 LINE",
"1100 1100 LINE",
"1100 500 LINE"
);
},
{
closed = 1;
nodes = (
"1100 1345 OFFCURVE",
"1055 1300 OFFCURVE",
"1000 1300 CURVE SMOOTH",
"945 1300 OFFCURVE",
"900 1345 OFFCURVE",
"900 1400 CURVE SMOOTH",
"900 1455 OFFCURVE",
"945 1500 OFFCURVE",
"1000 1500 CURVE SMOOTH",
"1055 1500 OFFCURVE",
"1100 1455 OFFCURVE",
"1100 1400 CURVE SMOOTH"
);
}
);
width = 2000;
}
);
unicode = F348;
},
{
glyphname = unif349;
lastChange = "2013-11-06 00:45:46 +0000";
layers = (
{
layerId = "684440DB-903B-4FB4-BFDB-FB0ECFF352DE";
name = Regular;
paths = (
{
closed = 1;
nodes = (
"0 1500 LINE",
"0 1800 LINE",
"2000 1800 LINE",
"2000 1500 LINE"
);
},
{
closed = 1;
nodes = (
"0 900 LINE",
"0 1200 LINE",
"2000 1200 LINE",
"2000 900 LINE"
);
},
{
closed = 1;
nodes = (
"0 300 LINE",
"0 600 LINE",
"2000 600 LINE",
"2000 300 LINE"
);
}
);
width = 2000;
}
);
unicode = F349;
},
{
glyphname = unif448;
lastChange = "2013-11-07 16:56:53 +0000";
layers = (
{
layerId = "684440DB-903B-4FB4-BFDB-FB0ECFF352DE";
name = Regular;
paths = (
{
closed = 1;
nodes = (
"448 2000 OFFCURVE",
"0 1552 OFFCURVE",
"0 1000 CURVE SMOOTH",
"0 448 OFFCURVE",
"448 0 OFFCURVE",
"1000 0 CURVE SMOOTH",
"1552 0 OFFCURVE",
"2000 448 OFFCURVE",
"2000 1000 CURVE SMOOTH",
"2000 1552 OFFCURVE",
"1552 2000 OFFCURVE",
"1000 2000 CURVE SMOOTH"
);
},
{
closed = 1;
nodes = (
"1157 998 OFFCURVE",
"1544 998 OFFCURVE",
"1497 500 CURVE",
"824 500 OFFCURVE",
"389 500 OFFCURVE",
"389 500 CURVE SMOOTH",
"389 500 OFFCURVE",
"312 976 OFFCURVE",
"733 998 CURVE",
"733 998 OFFCURVE",
"945 789 OFFCURVE",
"945 789 CURVE",
"1157 998 LINE"
);
},
{
closed = 1;
nodes = (
"1525 1950 OFFCURVE",
"1950 1525 OFFCURVE",
"1950 1000 CURVE SMOOTH",
"1950 475 OFFCURVE",
"1525 50 OFFCURVE",
"1000 50 CURVE SMOOTH",
"475 50 OFFCURVE",
"50 475 OFFCURVE",
"50 1000 CURVE SMOOTH",
"50 1525 OFFCURVE",
"475 1950 OFFCURVE",
"1000 1950 CURVE SMOOTH"
);
},
{
closed = 1;
nodes = (
"530 1850 OFFCURVE",
"150 1470 OFFCURVE",
"150 1000 CURVE SMOOTH",
"150 530 OFFCURVE",
"530 150 OFFCURVE",
"1000 150 CURVE SMOOTH",
"1470 150 OFFCURVE",
"1850 530 OFFCURVE",
"1850 1000 CURVE SMOOTH",
"1850 1470 OFFCURVE",
"1470 1850 OFFCURVE",
"1000 1850 CURVE SMOOTH"
);
},
{
closed = 1;
nodes = (
"1104 1579 OFFCURVE",
"1235 1448 OFFCURVE",
"1235 1286 CURVE SMOOTH",
"1235 1125 OFFCURVE",
"1104 994 OFFCURVE",
"942 994 CURVE SMOOTH",
"781 994 OFFCURVE",
"650 1125 OFFCURVE",
"650 1286 CURVE SMOOTH",
"650 1448 OFFCURVE",
"781 1579 OFFCURVE",
"942 1579 CURVE SMOOTH"
);
},
{
closed = 1;
nodes = (
"1367 1078 OFFCURVE",
"1689 1129 OFFCURVE",
"1689 658 CURVE",
"1689 658 OFFCURVE",
"1561 658 OFFCURVE",
"1561 658 CURVE SMOOTH",
"1561 658 OFFCURVE",
"1550 950 OFFCURVE",
"1316 1019 CURVE",
"1367 1078 LINE"
);
},
{
closed = 1;
nodes = (
"1341 1679 OFFCURVE",
"1472 1548 OFFCURVE",
"1472 1387 CURVE SMOOTH",
"1472 1247 OFFCURVE",
"1374 1131 OFFCURVE",
"1243 1102 CURVE",
"1277 1156 OFFCURVE",
"1298 1220 OFFCURVE",
"1298 1289 CURVE SMOOTH",
"1298 1457 OFFCURVE",
"1181 1597 OFFCURVE",
"1025 1634 CURVE",
"1070 1662 OFFCURVE",
"1123 1679 OFFCURVE",
"1180 1679 CURVE SMOOTH"
);
}
);
width = 2000;
}
);
unicode = F448;
},
{
glyphname = unif449;
lastChange = "2013-11-07 16:56:34 +0000";
layers = (
{
layerId = "684440DB-903B-4FB4-BFDB-FB0ECFF352DE";
name = Regular;
paths = (
{
closed = 1;
nodes = (
"400 1200 LINE SMOOTH",
"344.775 1200 OFFCURVE",
"300 1155.22 OFFCURVE",
"300 1100 CURVE SMOOTH",
"300 1044.78 OFFCURVE",
"344.775 1000 OFFCURVE",
"400 1000 CURVE SMOOTH",
"1600 1000 LINE SMOOTH",
"1655.27 1000 OFFCURVE",
"1700 1044.78 OFFCURVE",
"1700 1100 CURVE SMOOTH",
"1700 1155.22 OFFCURVE",
"1655.27 1200 OFFCURVE",
"1600 1200 CURVE SMOOTH"
);
},
{
closed = 1;
nodes = (
"500 900 LINE SMOOTH",
"444.775 900 OFFCURVE",
"400 855.273 OFFCURVE",
"400 800 CURVE SMOOTH",
"400 744.727 OFFCURVE",
"444.775 700 OFFCURVE",
"500 700 CURVE SMOOTH",
"1500 700 LINE SMOOTH",
"1555.27 700 OFFCURVE",
"1600 744.727 OFFCURVE",
"1600 800 CURVE SMOOTH",
"1600 855.273 OFFCURVE",
"1555.27 900 OFFCURVE",
"1500 900 CURVE SMOOTH"
);
},
{
closed = 1;
nodes = (
"700 600 LINE SMOOTH",
"644.775 600 OFFCURVE",
"600 555.273 OFFCURVE",
"600 500 CURVE SMOOTH",
"600 444.727 OFFCURVE",
"644.775 400 OFFCURVE",
"700 400 CURVE SMOOTH",
"809.18 400 LINE",
"803.613 384.277 OFFCURVE",
"800 367.578 OFFCURVE",
"800 350 CURVE SMOOTH",
"800 267.188 OFFCURVE",
"867.139 200 OFFCURVE",
"950 200 CURVE SMOOTH",
"1050 200 LINE SMOOTH",
"1132.81 200 OFFCURVE",
"1200 267.188 OFFCURVE",
"1200 350 CURVE SMOOTH",
"1200 367.578 OFFCURVE",
"1196.39 384.277 OFFCURVE",
"1190.82 400 CURVE",
"1300 400 LINE SMOOTH",
"1355.27 400 OFFCURVE",
"1400 444.727 OFFCURVE",
"1400 500 CURVE SMOOTH",
"1400 555.273 OFFCURVE",
"1355.27 600 OFFCURVE",
"1300 600 CURVE SMOOTH"
);
},
{
closed = 1;
nodes = (
"1350 1300 LINE SMOOTH",
"1432.81 1300 OFFCURVE",
"1500 1367.14 OFFCURVE",
"1500 1450 CURVE SMOOTH",
"1500 1532.86 OFFCURVE",
"1432.81 1600 OFFCURVE",
"1350 1600 CURVE SMOOTH",
"1190.82 1600 LINE",
"1196.39 1615.72 OFFCURVE",
"1200 1632.37 OFFCURVE",
"1200 1650 CURVE SMOOTH",
"1200 1732.86 OFFCURVE",
"1132.81 1800 OFFCURVE",
"1050 1800 CURVE SMOOTH",
"950 1800 LINE SMOOTH",
"867.139 1800 OFFCURVE",
"800 1732.86 OFFCURVE",
"800 1650 CURVE SMOOTH",
"800 1632.37 OFFCURVE",
"803.613 1615.72 OFFCURVE",
"809.18 1600 CURVE",
"650 1600 LINE SMOOTH",
"567.139 1600 OFFCURVE",
"500 1532.86 OFFCURVE",
"500 1450 CURVE SMOOTH",
"500 1367.14 OFFCURVE",
"567.139 1300 OFFCURVE",
"650 1300 CURVE SMOOTH"
);
}
);
width = 2000;
}
);
unicode = F449;
},
{
glyphname = unif450;
lastChange = "2013-11-07 16:56:34 +0000";
layers = (
{
layerId = "684440DB-903B-4FB4-BFDB-FB0ECFF352DE";
name = Regular;
paths = (
{
closed = 1;
nodes = (
"1102.54 1775.29 OFFCURVE",
"1102.44 1680.32 OFFCURVE",
"1043.95 1621.78 CURVE SMOOTH",
"478.223 1056.05 LINE SMOOTH",
"422 1000 OFFCURVE",
"326 996 OFFCURVE",
"266.113 1056.05 CURVE",
"207.52 1114.65 OFFCURVE",
"207.52 1209.57 OFFCURVE",
"266.113 1268.16 CURVE SMOOTH",
"831.836 1833.89 LINE SMOOTH",
"890.332 1892.43 OFFCURVE",
"985.352 1892.48 OFFCURVE",
"1043.95 1833.89 CURVE SMOOTH"
);
},
{
closed = 1;
nodes = (
"1385.35 1492.48 OFFCURVE",
"1385.35 1397.46 OFFCURVE",
"1326.86 1338.92 CURVE SMOOTH",
"761.035 773.242 LINE SMOOTH",
"705 718 OFFCURVE",
"609 713 OFFCURVE",
"548.926 773.242 CURVE",
"490.332 831.836 OFFCURVE",
"490.332 926.758 OFFCURVE",
"548.926 985.352 CURVE SMOOTH",
"1114.65 1551.07 LINE SMOOTH",
"1173.14 1609.62 OFFCURVE",
"1268.16 1609.67 OFFCURVE",
"1326.76 1551.07 CURVE SMOOTH"
);
},
{
closed = 1;
nodes = (
"1432.81 879.297 LINE",
"1609.67 1056.1 LINE SMOOTH",
"1668.16 1114.65 OFFCURVE",
"1668.16 1209.67 OFFCURVE",
"1609.67 1268.21 CURVE SMOOTH",
"1551.07 1326.81 OFFCURVE",
"1456.05 1326.76 OFFCURVE",
"1397.56 1268.21 CURVE SMOOTH",
"831.738 702.539 LINE SMOOTH",
"773.144 643.945 OFFCURVE",
"773.144 549.023 OFFCURVE",
"831.738 490.43 CURVE SMOOTH",
"890.332 431.836 OFFCURVE",
"985.254 431.836 OFFCURVE",
"1043.85 490.43 CURVE SMOOTH",
"1220.7 667.188 LINE",
"1638.96 249.023 LINE SMOOTH",
"1697.46 190.43 OFFCURVE",
"1792.48 190.43 OFFCURVE",
"1851.07 249.023 CURVE SMOOTH",
"1909.57 307.52 OFFCURVE",
"1909.57 402.539 OFFCURVE",
"1851.07 461.133 CURVE SMOOTH"
);
},
{
closed = 1;
nodes = (
"500 340.625 OFFCURVE",
"439.844 300 OFFCURVE",
"365.625 300 CURVE SMOOTH",
"334.375 300 LINE SMOOTH",
"260.156 300 OFFCURVE",
"200 378.125 OFFCURVE",
"200 500 CURVE SMOOTH",
"200 621.875 OFFCURVE",
"334.375 900 OFFCURVE",
"334.375 900 CURVE SMOOTH",
"334.375 900 OFFCURVE",
"500 659.375 OFFCURVE",
"500 500 CURVE SMOOTH"
);
}
);
width = 2000;
}
);
unicode = F450;
},
{
glyphname = unif451;
lastChange = "2013-11-07 16:56:34 +0000";
layers = (
{
layerId = "684440DB-903B-4FB4-BFDB-FB0ECFF352DE";
name = Regular;
paths = (
{
closed = 1;
nodes = (
"1753.52 970.703 OFFCURVE",
"1653 1038 OFFCURVE",
"1545 1101 CURVE",
"1630 1216 OFFCURVE",
"1681 1358 OFFCURVE",
"1681 1512 CURVE SMOOTH",
"1681 1546 OFFCURVE",
"1678 1579 OFFCURVE",
"1673 1612 CURVE",
"1648 1434 OFFCURVE",
"1554 1278 OFFCURVE",
"1421 1170 CURVE",
"1361 1201 OFFCURVE",
"1234 1253 OFFCURVE",
"1183 1262 CURVE",
"1200 1262 LINE SMOOTH",
"1310 1262 OFFCURVE",
"1400 1352 OFFCURVE",
"1400 1462 CURVE SMOOTH",
"1400 1572 OFFCURVE",
"1310 1662 OFFCURVE",
"1200 1662 CURVE",
"1200 1712 LINE SMOOTH",
"1200 1740 OFFCURVE",
"1178 1762 OFFCURVE",
"1150 1762 CURVE SMOOTH",
"1122 1762 OFFCURVE",
"1100 1740 OFFCURVE",
"1100 1712 CURVE SMOOTH",
"1100 1662 LINE",
"900 1662 LINE",
"900 1712 LINE SMOOTH",
"900 1740 OFFCURVE",
"878 1762 OFFCURVE",
"850 1762 CURVE SMOOTH",
"822 1762 OFFCURVE",
"800 1740 OFFCURVE",
"800 1712 CURVE SMOOTH",
"800 1662 LINE",
"690 1662 OFFCURVE",
"600 1572 OFFCURVE",
"600 1462 CURVE SMOOTH",
"600 1352 OFFCURVE",
"690 1262 OFFCURVE",
"800 1262 CURVE SMOOTH",
"817 1262 LINE",
"765 1253 OFFCURVE",
"647 1205 OFFCURVE",
"580 1170 CURVE",
"447 1278 OFFCURVE",
"353 1434 OFFCURVE",
"328 1612 CURVE",
"323 1579 OFFCURVE",
"320 1546 OFFCURVE",
"320 1512 CURVE SMOOTH",
"320 1358 OFFCURVE",
"371 1216 OFFCURVE",
"456 1101 CURVE",
"348 1038 OFFCURVE",
"246.484 970.703 OFFCURVE",
"246.484 970.703 CURVE",
"129.297 853.516 OFFCURVE",
"129.297 663.477 OFFCURVE",
"246.436 546.387 CURVE SMOOTH",
"363.574 429.297 OFFCURVE",
"553.565 429.199 OFFCURVE",
"670.752 546.387 CURVE",
"670.752 546.387 OFFCURVE",
"684.033 566.016 OFFCURVE",
"704.639 598.145 CURVE",
"705 228 OFFCURVE",
"918 160 OFFCURVE",
"1000 100 CURVE",
"1095 160 OFFCURVE",
"1295 232 OFFCURVE",
"1295.41 598.145 CURVE",
"1316.02 566.016 OFFCURVE",
"1329.3 546.387 OFFCURVE",
"1329.3 546.387 CURVE",
"1446.48 429.199 OFFCURVE",
"1636.43 429.297 OFFCURVE",
"1753.52 546.387 CURVE SMOOTH",
"1870.7 663.477 OFFCURVE",
"1870.7 853.516 OFFCURVE",
"1753.52 970.703 CURVE"
);
},
{
closed = 1;
nodes = (
"928 995 OFFCURVE",
"938 1000 OFFCURVE",
"950 1000 CURVE",
"983 1000 OFFCURVE",
"1017 1000 OFFCURVE",
"1050 1000 CURVE SMOOTH",
"1062 1000 OFFCURVE",
"1072 995 OFFCURVE",
"1080 989 CURVE",
"1092 975 OFFCURVE",
"1099 961 OFFCURVE",
"1099 946 CURVE",
"1097 921 OFFCURVE",
"1076 900 OFFCURVE",
"1050 900 CURVE SMOOTH",
"950 900 LINE SMOOTH",
"924 900 OFFCURVE",
"903 921 OFFCURVE",
"901 946 CURVE",
"901 963 OFFCURVE",
"908 978 OFFCURVE",
"920 989 CURVE"
);
},
{
closed = 1;
nodes = (
"1205 1562 OFFCURVE",
"1250 1517 OFFCURVE",
"1250 1462 CURVE SMOOTH",
"1250 1407 OFFCURVE",
"1205 1362 OFFCURVE",
"1150 1362 CURVE SMOOTH",
"1095 1362 OFFCURVE",
"1050 1407 OFFCURVE",
"1050 1462 CURVE",
"1050 1517 OFFCURVE",
"1095 1562 OFFCURVE",
"1150 1562 CURVE SMOOTH"
);
},
{
closed = 1;
nodes = (
"795 1362 OFFCURVE",
"750 1407 OFFCURVE",
"750 1462 CURVE SMOOTH",
"750 1517 OFFCURVE",
"795 1562 OFFCURVE",
"850 1562 CURVE SMOOTH",
"905 1562 OFFCURVE",
"950 1517 OFFCURVE",
"950 1462 CURVE SMOOTH",
"950 1407 OFFCURVE",
"900 1362 OFFCURVE",
"850 1362 CURVE SMOOTH"
);
},
{
closed = 1;
nodes = (
"950 300 LINE SMOOTH",
"922.363 300 OFFCURVE",
"900 322.363 OFFCURVE",
"900 350 CURVE SMOOTH",
"900 377.637 OFFCURVE",
"922.363 400 OFFCURVE",
"950 400 CURVE SMOOTH",
"1050 400 LINE SMOOTH",
"1077.64 400 OFFCURVE",
"1100 377.637 OFFCURVE",
"1100 350 CURVE SMOOTH",
"1100 322.363 OFFCURVE",
"1077.64 300 OFFCURVE",
"1050 300 CURVE SMOOTH"
);
},
{
closed = 1;
nodes = (
"850 500 LINE SMOOTH",
"822.363 500 OFFCURVE",
"800 522.363 OFFCURVE",
"800 550 CURVE SMOOTH",
"800 577.637 OFFCURVE",
"822.363 600 OFFCURVE",
"850 600 CURVE SMOOTH",
"1150 600 LINE SMOOTH",
"1177.64 600 OFFCURVE",
"1200 577.637 OFFCURVE",
"1200 550 CURVE SMOOTH",
"1200 522.363 OFFCURVE",
"1177.64 500 OFFCURVE",
"1150 500 CURVE SMOOTH"
);
},
{
closed = 1;
nodes = (
"1200 722.363 OFFCURVE",
"1177.64 700 OFFCURVE",
"1150 700 CURVE SMOOTH",
"850 700 LINE SMOOTH",
"822.363 700 OFFCURVE",
"800 722.363 OFFCURVE",
"800 750 CURVE SMOOTH",
"800 763 OFFCURVE",
"808 778 OFFCURVE",
"819.238 788.477 CURVE",
"827.783 795.313 OFFCURVE",
"838.184 800 OFFCURVE",
"850 800 CURVE SMOOTH",
"1150 800 LINE SMOOTH",
"1161.82 800 OFFCURVE",
"1172.27 795.313 OFFCURVE",
"1180.86 788.379 CURVE",
"1194 778 OFFCURVE",
"1200 762 OFFCURVE",
"1200 750 CURVE SMOOTH"
);
}
);
width = 2000;
}
);
unicode = F451;
},
{
glyphname = unif452;
lastChange = "2013-11-07 16:56:34 +0000";
layers = (
{
layerId = "684440DB-903B-4FB4-BFDB-FB0ECFF352DE";
name = Regular;
paths = (
{
closed = 1;
nodes = (
"700 1900 LINE",
"700 1200 LINE",
"500 1200 LINE SMOOTH",
"334 1200 OFFCURVE",
"200 1066 OFFCURVE",
"200 900 CURVE SMOOTH",
"200 800 LINE",
"300 800 LINE",
"300 400 LINE SMOOTH",
"300 345 OFFCURVE",
"345 300 OFFCURVE",
"400 300 CURVE SMOOTH",
"455 300 OFFCURVE",
"500 345 OFFCURVE",
"500 400 CURVE SMOOTH",
"500 618 LINE",
"531 607 OFFCURVE",
"565 600 OFFCURVE",
"600 600 CURVE",
"600 400 LINE SMOOTH",
"600 345 OFFCURVE",
"645 300 OFFCURVE",
"700 300 CURVE SMOOTH",
"755 300 OFFCURVE",
"800 345 OFFCURVE",
"800 400 CURVE SMOOTH",
"800 600 LINE",
"1000 600 LINE",
"1000 400 LINE SMOOTH",
"1000 345 OFFCURVE",
"1045 300 OFFCURVE",
"1100 300 CURVE SMOOTH",
"1155 300 OFFCURVE",
"1200 345 OFFCURVE",
"1200 400 CURVE SMOOTH",
"1200 600 LINE SMOOTH",
"1235 600 OFFCURVE",
"1269 607 OFFCURVE",
"1300 618 CURVE",
"1300 400 LINE SMOOTH",
"1300 345 OFFCURVE",
"1345 300 OFFCURVE",
"1400 300 CURVE SMOOTH",
"1455 300 OFFCURVE",
"1500 345 OFFCURVE",
"1500 400 CURVE SMOOTH",
"1500 899 LINE SMOOTH",
"1500 899 OFFCURVE",
"1500 900 OFFCURVE",
"1500 900 CURVE SMOOTH",
"1500 900 OFFCURVE",
"1500 901 OFFCURVE",
"1500 901 CURVE SMOOTH",
"1500 1000 LINE",
"1600 1000 LINE SMOOTH",
"1710 1000 OFFCURVE",
"1800 1090 OFFCURVE",
"1800 1200 CURVE SMOOTH",
"1800 1310 OFFCURVE",
"1710 1400 OFFCURVE",
"1600 1400 CURVE SMOOTH",
"1500 1400 LINE",
"1500 1700 LINE",
"1426 1700 OFFCURVE",
"1355 1666 OFFCURVE",
"1300 1614 CURVE",
"1300 1700 LINE",
"1145 1700 OFFCURVE",
"1000 1552 OFFCURVE",
"1000 1400 CURVE SMOOTH",
"1000 1357 OFFCURVE",
"1000 1277 OFFCURVE",
"1000 1200 CURVE",
"800 1200 LINE",
"800 1900 LINE"
);
},
{
closed = 1;
nodes = (
"1245 1200 OFFCURVE",
"1200 1245 OFFCURVE",
"1200 1300 CURVE SMOOTH",
"1200 1355 OFFCURVE",
"1245 1400 OFFCURVE",
"1300 1400 CURVE SMOOTH",
"1355 1400 OFFCURVE",
"1400 1355 OFFCURVE",
"1400 1300 CURVE SMOOTH",
"1400 1245 OFFCURVE",
"1355 1200 OFFCURVE",
"1300 1200 CURVE SMOOTH"
);
}
);
width = 2000;
}
);
unicode = F452;
},
